<svg id="Layer_1" data-name="Layer 1" xmlns="http://www.w3.org/2000/svg" xmlns:xlink="http://www.w3.org/1999/xlink" viewBox="0 0 1440 450"><defs><style>.cls-1,.cls-15,.cls-18,.cls-4{fill:none;}.cls-2{fill:#576370;}.cls-3{font-size:26.22px;font-family:FreightSansProSemibold-Regular, FreightSans Pro;}.cls-23,.cls-3{fill:#fff;}.cls-4{stroke:#a9a9a9;stroke-width:2px;}.cls-15,.cls-18,.cls-4{stroke-miterlimit:10;}.cls-5{fill:#a9a9a9;}.cls-6{letter-spacing:-0.01em;}.cls-7{letter-spacing:0em;}.cls-8{font-size:16.67px;fill:#777;font-family:FreightSansProBold-Regular, FreightSans Pro;letter-spacing:0.02em;}.cls-9{letter-spacing:0.01em;}.cls-10{letter-spacing:0.02em;}.cls-11{letter-spacing:-0.05em;}.cls-12{letter-spacing:0.02em;}.cls-13{letter-spacing:0.03em;}.cls-14{clip-path:url(#clip-path);}.cls-15,.cls-18{stroke:#000;}.cls-15{stroke-width:0px;opacity:0;}.cls-16{clip-path:url(#clip-path-2);}.cls-17{clip-path:url(#clip-path-3);}.cls-18{stroke-width:1.43px;}.cls-19{clip-path:url(#clip-path-4);}.cls-20{clip-path:url(#clip-path-5);}.cls-21{clip-path:url(#clip-path-6);}.cls-22{clip-path:url(#clip-path-7);}</style><clipPath id="clip-path"><rect class="cls-1" x="119.98" y="206.89" width="30" height="25"/></clipPath><clipPath id="clip-path-2"><rect class="cls-1" x="281.7" y="94.89" width="27" height="25"/></clipPath><clipPath id="clip-path-3"><rect class="cls-1" x="1087.31" y="187.81" width="80" height="79.14"/></clipPath><clipPath id="clip-path-4"><rect class="cls-1" x="1267.2" y="204.85" width="79" height="37"/></clipPath><clipPath id="clip-path-5"><rect class="cls-1" x="838.44" y="64.85" width="74" height="37"/></clipPath><clipPath id="clip-path-6"><rect class="cls-1" x="832.44" y="333.85" width="86" height="37"/></clipPath><clipPath id="clip-path-7"><rect class="cls-1" x="460.9" y="216.75" width="179" height="37"/></clipPath></defs><title>mc_acq</title><rect class="cls-2" x="226.48" y="184.95" width="132.31" height="66.46" rx="11.91"/><text class="cls-3" transform="translate(257.94 226.33)">Model</text><line class="cls-4" x1="401.18" y1="218.28" x2="358.78" y2="218.29"/><polygon class="cls-5" points="400.45 223.75 400.44 212.82 405.91 218.28 400.45 223.75"/><line class="cls-4" x1="200.82" y1="219.28" x2="158.42" y2="219.29"/><polygon class="cls-5" points="200.09 224.75 200.09 213.82 205.55 219.28 200.09 224.75"/><line class="cls-4" x1="1245.62" y1="224.28" x2="1183.22" y2="224.29"/><polygon class="cls-5" points="1244.88 229.75 1244.88 218.82 1250.35 224.28 1244.88 229.75"/><rect class="cls-2" x="423.14" y="161.06" width="254.31" height="116.46" rx="11.91"/><text class="cls-3" transform="translate(498.65 198.86)"><tspan class="cls-6">P</tspan><tspan x="14.45" y="0">os</tspan><tspan class="cls-7" x="40.01" y="0">t</tspan><tspan x="49.26" y="0">erior</tspan></text><text class="cls-8" transform="translate(309.16 143.47)">T<tspan class="cls-9" x="10.37" y="0">R</tspan><tspan x="20.76" y="0">AINING </tspan><tspan class="cls-10"><tspan x="0" y="24">D</tspan><tspan class="cls-11" x="11.6" y="24">AT</tspan><tspan class="cls-12" x="30.81" y="24">A</tspan></tspan></text><text class="cls-8" transform="translate(78.72 266.74)">CANDI<tspan class="cls-10" x="50.66" y="0">D</tspan><tspan class="cls-11" x="62.26" y="0">A</tspan><tspan x="72.21" y="0">TE </tspan><tspan x="31.24" y="24">SET</tspan></text><text class="cls-8" transform="translate(1242.02 266.74)">UTILI<tspan class="cls-13" x="41.3" y="0">T</tspan><tspan class="cls-12" x="51.83" y="0">Y OF THE </tspan><tspan x="-0.85" y="24">CANDI</tspan><tspan class="cls-10" x="49.81" y="24">D</tspan><tspan class="cls-11" x="61.41" y="24">A</tspan><tspan x="71.36" y="24">TE SET</tspan></text><line class="cls-4" x1="292.63" y1="168.41" x2="292.63" y2="130.16"/><polygon class="cls-5" points="288.62 167.88 296.64 167.88 292.63 171.88 288.62 167.88"/><circle class="cls-2" cx="877.57" cy="178.34" r="3.78"/><circle class="cls-2" cx="877.57" cy="218.49" r="3.78"/><circle class="cls-2" cx="877.57" cy="258.64" r="3.78"/><path class="cls-4" d="M705.48,218.49c54.62,0,57.56-55.39,107.23-55.39h2.85"/><polygon class="cls-5" points="814.83 157.63 814.83 168.56 820.29 163.09 814.83 157.63"/><path class="cls-4" d="M705.48,219.05c54.62,0,57.56,55.39,107.23,55.39h2.85"/><polygon class="cls-5" points="814.83 268.98 814.83 279.91 820.29 274.44 814.83 268.98"/><path class="cls-4" d="M699.11,219.11c69.6,0,25.74-134.26,113.55-134.26h2.9"/><polygon class="cls-5" points="814.83 79.38 814.83 90.31 820.29 84.85 814.83 79.38"/><path class="cls-4" d="M815.56,353.42h-2.9c-87.81,0-43.95-134.26-113.55-134.26H677.44"/><polygon class="cls-5" points="814.83 358.89 814.83 347.96 820.29 353.43 814.83 358.89"/><path class="cls-4" d="M1045.54,218.49c-54.61,0-57.55-55.39-107.22-55.39h-7.59"/><path class="cls-4" d="M1045.54,219.05c-54.61,0-57.55,55.39-107.22,55.39h-7.59"/><path class="cls-4" d="M1051.91,219.11c-69.6,0-25.73-134.26-113.55-134.26h-7.63"/><path class="cls-4" d="M930.73,353.42h7.63c87.82,0,43.95-134.26,113.55-134.26h16.94"/><polygon class="cls-5" points="1068.12 213.69 1068.12 224.63 1073.59 219.16 1068.12 213.69"/><g class="cls-14"><path d="M136.7,216.73l-3-7.15c-.1-.29-.18-.43-.18-.47,0-.21.62-.89,2.12-1,.36,0,.72-.07.72-.68,0-.43-.43-.43-.54-.43-1.47,0-3,.11-4.52.11-.9,0-3.13-.11-4-.11-.22,0-.65,0-.65.72,0,.39.36.39.83.39,2.15,0,2.37.36,2.69,1.15l4.24,10-7.58,8.15-.47.4a7.22,7.22,0,0,1-5.28,2.58c-.46,0-.79,0-.79.72,0,0,0,.4.47.4,1.08,0,2.26-.11,3.38-.11,1.32,0,2.73.11,4,.11.21,0,.64,0,.64-.72a.41.41,0,0,0-.43-.4c-.32,0-1.43-.1-1.43-1.11,0-.57.54-1.15,1-1.61l3.66-3.88,3.23-3.52,3.63,8.58a3.52,3.52,0,0,1,.18.5c0,.29-.68.9-2.08,1-.4,0-.72.08-.72.69,0,.43.39.43.54.43,1,0,3.52-.11,4.52-.11s3.09.11,4,.11c.25,0,.68,0,.68-.68,0-.44-.36-.44-.65-.44-2.4,0-2.47-.14-3.08-1.58-1.41-3.33-3.81-8.94-4.64-11.09,2.45-2.52,6.22-6.79,7.37-7.8a7.35,7.35,0,0,1,4.56-1.83c.46,0,.79,0,.79-.72,0,0,0-.39-.47-.39-1.08,0-2.26.11-3.38.11-1.33,0-2.69-.11-4-.11-.22,0-.69,0-.69.72,0,.25.18.36.44.39s1.43.11,1.43,1.11a2.14,2.14,0,0,1-.68,1.3l-5.82,6.25"/></g><polygon class="cls-15" points="136.68 217.75 136.68 217.75 136.68 217.75 136.68 217.75 136.68 217.75 136.68 217.75 136.68 217.75 136.68 217.75 136.68 217.75 136.68 217.75 136.68 217.75 136.68 217.75 136.68 217.75 136.68 217.75 136.68 217.75 136.68 217.75 136.68 217.75 136.68 217.75 136.68 217.75 136.68 217.75 136.68 217.75 136.68 217.75 136.68 217.75 136.68 217.75 136.68 217.75 136.68 217.75 136.68 217.75 136.68 217.75 136.68 217.75 136.68 217.75 136.68 217.75 136.68 217.75 136.68 217.75 136.68 217.75 136.68 217.75 136.68 217.75 136.68 217.75 136.68 217.75 136.68 217.75 136.68 217.75 136.68 217.75 136.68 217.75 136.68 217.75 136.68 217.75 136.68 217.75 136.68 217.75 136.68 217.75 136.68 217.75 136.68 217.75 136.68 217.75 136.68 217.75 136.68 217.75 136.68 217.75 136.68 217.75 136.68 217.75 136.68 217.75 136.68 217.75 136.68 217.75 136.68 217.75 136.68 217.75 136.68 217.75 136.68 217.75 136.68 217.75 136.68 217.75 136.68 217.75 136.68 217.75 136.68 217.75 136.68 217.75 136.68 217.75 136.68 217.75 136.68 217.75 136.68 217.75 136.68 217.75 136.68 217.75 136.68 217.75 136.68 217.75 136.68 217.75 136.68 217.75 136.68 217.75 136.68 217.75 136.68 217.75 136.68 217.75 136.68 217.75 136.68 217.75 136.68 217.75 136.68 217.75 136.68 217.75"/><g class="cls-16"><path d="M288.51,117.51a70.91,70.91,0,0,0,5.35-20.58c2.4,0,11.6,0,11.6,7.9,0,7-6.32,12.68-15,12.68h-1.93m-.18,2c8.36,0,20.18-6.39,20.18-16.2A7.09,7.09,0,0,0,305.24,97c-3.09-2-6.39-2-9.8-2-3.09,0-5.21,0-8.23,1.29-4.77,2.12-5.46,5.1-5.46,5.39s.15.29.36.29a4,4,0,0,0,1.69-.69,2,2,0,0,0,1.08-1.4c.5-1.43,1.51-2.69,6-2.91A69.2,69.2,0,0,1,286,117.58c-1.33.47-2.19,1.3-2.19,1.66s0,.25.83.25Z"/></g><polygon class="cls-15" points="297.18 107.75 297.18 107.75 297.18 107.75 297.18 107.75 297.18 107.75 297.18 107.75 297.18 107.75 297.18 107.75 297.18 107.75 297.18 107.75 297.18 107.75 297.18 107.75 297.18 107.75 297.18 107.75 297.18 107.75 297.18 107.75 297.18 107.75 297.18 107.75 297.18 107.75 297.18 107.75 297.18 107.75 297.18 107.75 297.18 107.75 297.18 107.75 297.18 107.75 297.18 107.75 297.18 107.75 297.18 107.75 297.18 107.75 297.18 107.75 297.18 107.75 297.18 107.75 297.18 107.75 297.18 107.75 297.18 107.75 297.18 107.75 297.18 107.75 297.18 107.75 297.18 107.75 297.18 107.75 297.18 107.75 297.18 107.75 297.18 107.75 297.18 107.75 297.18 107.75 297.18 107.75 297.18 107.75 297.18 107.75 297.18 107.75 297.18 107.75 297.18 107.75 297.18 107.75 297.18 107.75 297.18 107.75 297.18 107.75 297.18 107.75 297.18 107.75 297.18 107.75 297.18 107.75 297.18 107.75 297.18 107.75 297.18 107.75 297.18 107.75 297.18 107.75 297.18 107.75 297.18 107.75 297.18 107.75 297.18 107.75 297.18 107.75 297.18 107.75 297.18 107.75 297.18 107.75 297.18 107.75 297.18 107.75 297.18 107.75 297.18 107.75 297.18 107.75 297.18 107.75 297.18 107.75 297.18 107.75 297.18 107.75 297.18 107.75 297.18 107.75 297.18 107.75 297.18 107.75 297.18 107.75 297.18 107.75 297.18 107.75 297.18 107.75"/><g class="cls-17"><path d="M1102.84,189c0-.75,0-.81-.71-.81a7.61,7.61,0,0,1-5.62,2v1a9.2,9.2,0,0,0,4-.81v16c0,1.11-.1,1.48-2.88,1.48h-1v1c1.09-.1,3.77-.1,5-.1s3.92,0,5,.1v-1h-1c-2.78,0-2.87-.34-2.87-1.48V189"/><line class="cls-18" x1="1087.43" y1="221.88" x2="1115.58" y2="221.88"/><path d="M1110.75,232.93c.31-1.24.86-2.2,3.34-2.29.15,0,.52,0,.52-.62,0,0,0-.34-.4-.34-1,0-2.1.09-3.12.09s-2.13-.09-3.15-.09c-.19,0-.56,0-.56.62,0,.34.31.34.56.34,1.76,0,2.1.68,2.1,1.36a5.07,5.07,0,0,1-.09.65l-3.46,13.74-6.83-16.12c-.25-.56-.28-.59-1-.59h-4.14c-.62,0-.9,0-.9.62,0,.34.28.34.87.34.15,0,2.1,0,2.1.28l-4.14,16.59c-.31,1.23-.83,2.22-3.34,2.31-.18,0-.52,0-.52.62,0,.22.15.34.4.34,1,0,2.07-.09,3.09-.09s2.16.09,3.18.09c.16,0,.56,0,.56-.62,0-.31-.28-.34-.62-.34-1.79-.06-2-.74-2-1.36a2.53,2.53,0,0,1,.12-.71l4.08-16.31a3.59,3.59,0,0,1,.28.56l7.69,18.19c.22.53.31.59.59.59s.34-.09.49-.65l4.33-17.2"/><path d="M1163.49,243.54l3.74-9.89h-.77c-1.21,3.22-4.48,5.32-8,6.24a38.11,38.11,0,0,1-9.61,1h-18.63l15.73-18.44c.21-.25.27-.34.27-.5s0-.15-.21-.46l-14.4-19.68h16.93a46,46,0,0,1,7.23.49,17.63,17.63,0,0,1,6.8,2.32,10,10,0,0,1,3.92,4.39h.77l-3.74-8.68H1127c-.71,0-.74,0-.84.21a9.09,9.09,0,0,0,0,1l16.35,22.37-16,18.75c-.31.37-.31.53-.31.56,0,.34.28.34.84.34h36.51"/><path d="M1145,263.48a2.77,2.77,0,0,0-.2.91,1.92,1.92,0,0,0,2,1.83c2.16,0,3.11-3,3.11-3.3s-.28-.28-.35-.28c-.3,0-.32.13-.41.37-.49,1.73-1.44,2.61-2.28,2.61-.43,0-.54-.28-.54-.75a3.64,3.64,0,0,1,.34-1.39c.22-.58.46-1.16.69-1.72s1-2.48,1.06-2.74a2.71,2.71,0,0,0,.13-.69,1.91,1.91,0,0,0-2-1.83c-2.13,0-3.13,2.93-3.13,3.3s.31.28.37.28c.3,0,.32-.11.39-.35.56-1.85,1.51-2.63,2.31-2.63.34,0,.54.18.54.76a6,6,0,0,1-.67,2.15l-1.36,3.47m4.4-11a.83.83,0,0,0-.87-.82,1.27,1.27,0,0,0-1.2,1.19.82.82,0,0,0,.86.82A1.28,1.28,0,0,0,1149.35,252.53Z"/></g><polygon class="cls-15" points="1127.18 228.25 1127.18 228.25 1127.18 228.25 1127.18 228.25 1127.18 228.25 1127.18 228.25 1127.18 228.25 1127.18 228.25 1127.18 228.25 1127.18 228.25 1127.18 228.25 1127.18 228.25 1127.18 228.25 1127.18 228.25 1127.18 228.25 1127.18 228.25 1127.18 228.25 1127.18 228.25 1127.18 228.25 1127.18 228.25 1127.18 228.25 1127.18 228.25 1127.18 228.25 1127.18 228.25 1127.18 228.25 1127.18 228.25 1127.18 228.25 1127.18 228.25 1127.18 228.25 1127.18 228.25 1127.18 228.25 1127.18 228.25 1127.18 228.25 1127.18 228.25 1127.18 228.25 1127.18 228.25 1127.18 228.25 1127.18 228.25 1127.18 228.25 1127.18 228.25 1127.18 228.25 1127.18 228.25 1127.18 228.25 1127.18 228.25 1127.18 228.25 1127.18 228.25 1127.18 228.25 1127.18 228.25 1127.18 228.25 1127.18 228.25 1127.18 228.25 1127.18 228.25 1127.18 228.25 1127.18 228.25 1127.18 228.25 1127.18 228.25 1127.18 228.25 1127.18 228.25 1127.18 228.25 1127.18 228.25 1127.18 228.25 1127.18 228.25 1127.18 228.25 1127.18 228.25 1127.18 228.25 1127.18 228.25 1127.18 228.25 1127.18 228.25 1127.18 228.25 1127.18 228.25 1127.18 228.25 1127.18 228.25 1127.18 228.25 1127.18 228.25 1127.18 228.25 1127.18 228.25 1127.18 228.25 1127.18 228.25 1127.18 228.25 1127.18 228.25 1127.18 228.25 1127.18 228.25 1127.18 228.25 1127.18 228.25 1127.18 228.25 1127.18 228.25 1127.18 228.25 1127.18 228.25 1127.18 228.25 1127.18 228.25 1127.18 228.25"/><g class="cls-19"><path d="M1280.92,228.9c-3.16,2.76-5.93,3.16-7.36,3.16-2.16,0-3.23-1.62-3.23-3.92a18.58,18.58,0,0,1,2.08-7.47c1.69-2.62,3.63-3.3,4.88-3.3,3.56,0,3.56,4.7,3.56,7.5,0,1.33,0,3.42.07,4m2.41-4.92c0-5.64-3.34-7.4-6-7.4-4.92,0-9.66,5.13-9.66,10.2,0,3.34,2.15,6.07,5.82,6.07a12.13,12.13,0,0,0,7.58-3c.46,1.9,1.65,3,3.26,3a3.33,3.33,0,0,0,3-2.55.38.38,0,0,0-.43-.36c-.25,0-.36.11-.47.36-.64,1.76-1.94,1.76-2,1.76-1.11,0-1.11-2.81-1.11-3.67s0-.82.36-1.25a20.91,20.91,0,0,0,4.13-8.44c0-.07,0-.36-.43-.36s-.36.11-.54.75a21.27,21.27,0,0,1-3.52,7.11Z"/><path d="M1301.18,241.07c0-.11,0-.18-.61-.79-4.49-4.52-5.63-11.31-5.63-16.81,0-6.25,1.36-12.49,5.78-17,.46-.44.46-.51.46-.61a.32.32,0,0,0-.36-.36c-.35,0-3.59,2.44-5.7,7a27.62,27.62,0,0,0,.1,22.16c2.16,4.42,5.25,6.75,5.6,6.75a.32.32,0,0,0,.36-.36"/><path d="M1320.72,217.69l-3-7.15c-.11-.28-.18-.43-.18-.46,0-.22.61-.9,2.12-1,.36,0,.72-.08.72-.69,0-.43-.44-.43-.54-.43-1.48,0-3,.11-4.53.11-.9,0-3.12-.11-4-.11-.22,0-.65,0-.65.72,0,.4.36.4.83.4,2.15,0,2.37.36,2.69,1.14l4.24,10-7.58,8.16-.46.39a7.25,7.25,0,0,1-5.28,2.59c-.47,0-.79,0-.79.72,0,0,0,.39.46.39,1.08,0,2.26-.11,3.38-.11,1.33,0,2.73.11,4,.11.22,0,.65,0,.65-.72a.4.4,0,0,0-.43-.39c-.33,0-1.44-.11-1.44-1.11,0-.58.54-1.15,1-1.62l3.66-3.88,3.24-3.52,3.62,8.58a2.32,2.32,0,0,1,.18.51c0,.28-.68.9-2.08,1-.4,0-.72.07-.72.68,0,.43.4.43.54.43,1,0,3.52-.11,4.52-.11s3.09.11,4,.11c.25,0,.68,0,.68-.68,0-.43-.36-.43-.64-.43-2.41,0-2.48-.14-3.09-1.58-1.4-3.34-3.81-8.94-4.63-11.1,2.44-2.51,6.21-6.79,7.36-7.79a7.26,7.26,0,0,1,4.56-1.83c.47,0,.79,0,.79-.72,0,0,0-.4-.47-.4-1.07,0-2.26.11-3.37.11-1.33,0-2.7-.11-4-.11-.21,0-.68,0-.68.72,0,.25.18.36.43.4s1.44.1,1.44,1.11a2.16,2.16,0,0,1-.69,1.29l-5.81,6.25"/><path d="M1346.18,223.47a26.23,26.23,0,0,0-2.37-11.2c-2.16-4.42-5.25-6.75-5.61-6.75a.34.34,0,0,0-.36.36c0,.1,0,.17.69.82,3.51,3.56,5.56,9.27,5.56,16.77,0,6.14-1.33,12.47-5.78,17-.47.43-.47.5-.47.61a.34.34,0,0,0,.36.36c.36,0,3.59-2.44,5.71-7a26.16,26.16,0,0,0,2.27-11"/></g><polygon class="cls-15" points="1303.18 224.75 1303.18 224.75 1303.18 224.75 1303.18 224.75 1303.18 224.75 1303.18 224.75 1303.18 224.75 1303.18 224.75 1303.18 224.75 1303.18 224.75 1303.18 224.75 1303.18 224.75 1303.18 224.75 1303.18 224.75 1303.18 224.75 1303.18 224.75 1303.18 224.75 1303.18 224.75 1303.18 224.75 1303.18 224.75 1303.18 224.75 1303.18 224.75 1303.18 224.75 1303.18 224.75 1303.18 224.75 1303.18 224.75 1303.18 224.75 1303.18 224.75 1303.18 224.75 1303.18 224.75 1303.18 224.75 1303.18 224.75 1303.18 224.75 1303.18 224.75 1303.18 224.75 1303.18 224.75 1303.18 224.75 1303.18 224.75 1303.18 224.75 1303.18 224.75 1303.18 224.75 1303.18 224.75 1303.18 224.75 1303.18 224.75 1303.18 224.75 1303.18 224.75 1303.18 224.75 1303.18 224.75 1303.18 224.75 1303.18 224.75 1303.18 224.75 1303.18 224.75 1303.18 224.75 1303.18 224.75 1303.18 224.75 1303.18 224.75 1303.18 224.75 1303.18 224.75 1303.18 224.75 1303.18 224.75 1303.18 224.75 1303.18 224.75 1303.18 224.75 1303.18 224.75 1303.18 224.75 1303.18 224.75 1303.18 224.75 1303.18 224.75 1303.18 224.75 1303.18 224.75 1303.18 224.75 1303.18 224.75 1303.18 224.75 1303.18 224.75 1303.18 224.75 1303.18 224.75 1303.18 224.75 1303.18 224.75 1303.18 224.75 1303.18 224.75 1303.18 224.75 1303.18 224.75 1303.18 224.75 1303.18 224.75 1303.18 224.75 1303.18 224.75 1303.18 224.75 1303.18 224.75 1303.18 224.75"/><g class="cls-20"><path d="M848.4,88.18a2.32,2.32,0,0,1-.72,1.33c-1.58,2-3,2.55-4.06,2.55-1.79,0-2.3-2-2.3-3.38a26.18,26.18,0,0,1,2-7.86c1.11-2.12,2.73-3.45,4.16-3.45,2.34,0,2.84,2.94,2.84,3.16a2.87,2.87,0,0,1-.11.61l-1.79,7m2.33-9.3a3.59,3.59,0,0,0-3.3-2.3c-4.2,0-8.66,5.28-8.66,10.52,0,3.38,2,5.75,4.78,5.75.72,0,2.51-.15,4.67-2.7a3.27,3.27,0,0,0,3.27,2.7,3,3,0,0,0,2.65-2,17.9,17.9,0,0,0,1.08-3.55c0-.36-.32-.36-.43-.36-.36,0-.39.14-.5.64-.61,2.34-1.26,4.46-2.73,4.46-1,0-1.08-.94-1.08-1.66a9,9,0,0,1,.47-2.65c.39-1.51.46-1.87.79-3.24l1.29-5a5.21,5.21,0,0,0,.25-1.22.94.94,0,0,0-1-1A1.67,1.67,0,0,0,850.73,78.88Z"/><path d="M868.12,101.07c0-.11,0-.18-.61-.79C863,95.76,861.88,89,861.88,83.47c0-6.25,1.36-12.49,5.78-17,.46-.44.46-.51.46-.61a.32.32,0,0,0-.36-.36c-.35,0-3.59,2.44-5.7,7a27.62,27.62,0,0,0,.1,22.16c2.16,4.42,5.25,6.75,5.6,6.75a.32.32,0,0,0,.36-.36"/><path d="M878.78,81a7.89,7.89,0,0,1,2.05-.22,5.59,5.59,0,0,1,2,.22,4.88,4.88,0,0,1-2.3.28,3.68,3.68,0,0,1-1.8-.28m2.8-9.81a6.27,6.27,0,0,1,1.73-.18,5.47,5.47,0,0,1,2,.22,5.39,5.39,0,0,1-2.23.28A2.19,2.19,0,0,1,881.58,71.19Zm-5.81,10.27c-3.92,2.59-4.71,6-4.71,7.26a4.33,4.33,0,0,0,1,2.83c1.15,1.19,1.48,1.33,4.17,2.34l4.35,1.69c.53.25,1.25.5,1.25,1.54a1.87,1.87,0,0,1-1.76,1.9A5.51,5.51,0,0,1,877,97.88c-.21-.15-.25-.18-.39-.18a.36.36,0,0,0-.36.39c0,.43,1.9,1.72,3.91,1.72A3.92,3.92,0,0,0,883.85,96a2.73,2.73,0,0,0-1.73-2.55l-2.19-.82c-.72-.29-1.43-.58-2.19-.83l-2.15-.86c-1.62-.65-2.7-1.69-2.7-3.2a8,8,0,0,1,4.42-6.1,9,9,0,0,0,3.16.46c1.08,0,3.34,0,3.34-1.11,0-.9-1.54-1-2.94-1a9.16,9.16,0,0,0-3,.43,3.93,3.93,0,0,1-1.08-2.8,7.21,7.21,0,0,1,4-6.11,2.6,2.6,0,0,0,2.3.79c.9,0,3.19,0,3.19-1.11,0-.93-1.58-1-3-1a11.78,11.78,0,0,0-2.26.18,3.06,3.06,0,0,1-.18-1.18,9.58,9.58,0,0,1,.18-1.33.43.43,0,0,0-.43-.47c-.65,0-.65,1.65-.65,1.76a4.7,4.7,0,0,0,.25,1.4c-3.84,1.08-6.28,4-6.28,6.72a4.36,4.36,0,0,0,2.33,3.8Z"/><path d="M894.33,81.91c0-.68-.05-.7-.75-.7a6.81,6.81,0,0,1-4.91,1.6v.91A8.17,8.17,0,0,0,892.3,83V95.8c0,.82,0,1.15-2.5,1.15h-1v.9c.45,0,3.54-.1,4.47-.1.77,0,3.93.08,4.48.1V97h-.95c-2.51,0-2.51-.33-2.51-1.15V81.91"/><path d="M912.42,83.47a26.23,26.23,0,0,0-2.37-11.2c-2.16-4.42-5.25-6.75-5.61-6.75a.34.34,0,0,0-.36.36c0,.1,0,.17.69.82,3.51,3.56,5.56,9.27,5.56,16.77,0,6.14-1.33,12.47-5.78,17-.47.43-.47.5-.47.61a.34.34,0,0,0,.36.36c.36,0,3.59-2.44,5.71-7a26.16,26.16,0,0,0,2.27-11"/></g><polygon class="cls-15" points="875.68 81.75 875.68 81.75 875.68 81.75 875.68 81.75 875.68 81.75 875.68 81.75 875.68 81.75 875.68 81.75 875.68 81.75 875.68 81.75 875.68 81.75 875.68 81.75 875.68 81.75 875.68 81.75 875.68 81.75 875.68 81.75 875.68 81.75 875.68 81.75 875.68 81.75 875.68 81.75 875.68 81.75 875.68 81.75 875.68 81.75 875.68 81.75 875.68 81.75 875.68 81.75 875.68 81.75 875.68 81.75 875.68 81.75 875.68 81.75 875.68 81.75 875.68 81.75 875.68 81.75 875.68 81.75 875.68 81.75 875.68 81.75 875.68 81.75 875.68 81.75 875.68 81.75 875.68 81.75 875.68 81.75 875.68 81.75 875.68 81.75 875.68 81.75 875.68 81.75 875.68 81.75 875.68 81.75 875.68 81.75 875.68 81.75 875.68 81.75 875.68 81.75 875.68 81.75 875.68 81.75 875.68 81.75 875.68 81.75 875.68 81.75 875.68 81.75 875.68 81.75 875.68 81.75 875.68 81.75 875.68 81.75 875.68 81.75 875.68 81.75 875.68 81.75 875.68 81.75 875.68 81.75 875.68 81.75 875.68 81.75 875.68 81.75 875.68 81.75 875.68 81.75 875.68 81.75 875.68 81.75 875.68 81.75 875.68 81.75 875.68 81.75 875.68 81.75 875.68 81.75 875.68 81.75 875.68 81.75 875.68 81.75 875.68 81.75 875.68 81.75 875.68 81.75 875.68 81.75 875.68 81.75 875.68 81.75 875.68 81.75 875.68 81.75"/><g class="cls-21"><path d="M843,357.18a2.32,2.32,0,0,1-.72,1.33c-1.58,2-3,2.55-4.06,2.55-1.79,0-2.3-2-2.3-3.38a26.18,26.18,0,0,1,2-7.86c1.11-2.12,2.73-3.45,4.16-3.45,2.34,0,2.84,2.94,2.84,3.16a2.87,2.87,0,0,1-.11.61l-1.79,7m2.33-9.3a3.59,3.59,0,0,0-3.3-2.3c-4.2,0-8.66,5.28-8.66,10.52,0,3.38,2,5.75,4.78,5.75.72,0,2.51-.15,4.67-2.7a3.27,3.27,0,0,0,3.27,2.7,3,3,0,0,0,2.65-2,17.9,17.9,0,0,0,1.08-3.55c0-.36-.32-.36-.43-.36-.36,0-.39.14-.5.64-.61,2.34-1.26,4.46-2.73,4.46-1,0-1.08-.94-1.08-1.66a9,9,0,0,1,.47-2.65c.39-1.51.46-1.87.79-3.24l1.29-5a5.21,5.21,0,0,0,.25-1.22.94.94,0,0,0-1-1A1.67,1.67,0,0,0,845.33,347.88Z"/><path d="M862.82,370.07c0-.11,0-.18-.61-.79-4.49-4.52-5.63-11.31-5.63-16.81,0-6.25,1.36-12.49,5.78-17,.46-.44.46-.51.46-.61a.32.32,0,0,0-.36-.36c-.35,0-3.59,2.44-5.7,7a27.62,27.62,0,0,0,.1,22.16c2.16,4.42,5.25,6.75,5.6,6.75a.32.32,0,0,0,.36-.36"/><path d="M873.38,350a7.89,7.89,0,0,1,2-.22,5.59,5.59,0,0,1,2.05.22,4.88,4.88,0,0,1-2.3.28,3.68,3.68,0,0,1-1.8-.28m2.8-9.81a6.27,6.27,0,0,1,1.73-.18,5.47,5.47,0,0,1,2,.22,5.39,5.39,0,0,1-2.23.28A2.19,2.19,0,0,1,876.18,340.19Zm-5.81,10.27c-3.92,2.59-4.71,6-4.71,7.26a4.33,4.33,0,0,0,1,2.83c1.15,1.19,1.48,1.33,4.17,2.34l4.35,1.69c.53.25,1.25.5,1.25,1.54a1.87,1.87,0,0,1-1.76,1.9,5.51,5.51,0,0,1-3.16-1.14c-.21-.15-.25-.18-.39-.18a.36.36,0,0,0-.36.39c0,.43,1.9,1.72,3.91,1.72a3.92,3.92,0,0,0,3.74-3.84,2.73,2.73,0,0,0-1.73-2.55l-2.19-.82c-.72-.29-1.43-.58-2.19-.83l-2.15-.86c-1.62-.65-2.7-1.69-2.7-3.2a8,8,0,0,1,4.42-6.1,9,9,0,0,0,3.16.46c1.08,0,3.34,0,3.34-1.11,0-.9-1.54-1-2.94-1a9.16,9.16,0,0,0-3,.43,3.93,3.93,0,0,1-1.08-2.8,7.21,7.21,0,0,1,4-6.11,2.6,2.6,0,0,0,2.3.79c.9,0,3.19,0,3.19-1.11,0-.93-1.58-1-3-1a11.78,11.78,0,0,0-2.26.18,3.06,3.06,0,0,1-.18-1.18,9.58,9.58,0,0,1,.18-1.33.43.43,0,0,0-.43-.47c-.65,0-.65,1.65-.65,1.76a4.7,4.7,0,0,0,.25,1.4c-3.84,1.08-6.28,3.95-6.28,6.72a4.36,4.36,0,0,0,2.33,3.8Z"/><path d="M901.44,352.47c.25-1,.65-1.78,2.66-1.83.12,0,.5,0,.5-.56a.37.37,0,0,0-.38-.35c-.83,0-1.75.1-2.61.1-.6,0-2.05-.1-2.65-.1-.13,0-.5,0-.5.55,0,.33.32.36.55.36,1.18,0,1.6.4,1.6,1a1.82,1.82,0,0,1-.1.6l-2.73,10.93-6.37-13c-.2-.43-.25-.43-.85-.43h-3.43c-.48,0-.8,0-.8.55,0,.36.3.36.82.36a8.73,8.73,0,0,1,1.61.12l-3.36,13.41c-.23.95-.65,1.7-2.61,1.78a.46.46,0,0,0-.52.53.35.35,0,0,0,.37.37c.83,0,1.76-.1,2.61-.1.6,0,2,.1,2.66.1a.46.46,0,0,0,.5-.52c0-.35-.3-.38-.58-.38-1.58-.05-1.58-.7-1.58-1.05a2.28,2.28,0,0,1,.1-.63l3.21-12.83,7.32,15c.2.4.3.42.55.42.4,0,.4-.07.53-.52l3.48-13.86"/><path d="M918.12,352.47a26.23,26.23,0,0,0-2.37-11.2c-2.16-4.42-5.25-6.75-5.61-6.75a.34.34,0,0,0-.36.36c0,.1,0,.17.69.82C914,339.26,916,345,916,352.47c0,6.14-1.33,12.47-5.78,17-.47.43-.47.5-.47.61a.34.34,0,0,0,.36.36c.36,0,3.59-2.44,5.71-7a26.16,26.16,0,0,0,2.27-11"/></g><polygon class="cls-15" points="879.44 352.75 879.44 352.75 879.44 352.75 879.44 352.75 879.44 352.75 879.44 352.75 879.44 352.75 879.44 352.75 879.44 352.75 879.44 352.75 879.44 352.75 879.44 352.75 879.44 352.75 879.44 352.75 879.44 352.75 879.44 352.75 879.44 352.75 879.44 352.75 879.44 352.75 879.44 352.75 879.44 352.75 879.44 352.75 879.44 352.75 879.44 352.75 879.44 352.75 879.44 352.75 879.44 352.75 879.44 352.75 879.44 352.75 879.44 352.75 879.44 352.75 879.44 352.75 879.44 352.75 879.44 352.75 879.44 352.75 879.44 352.75 879.44 352.75 879.44 352.75 879.44 352.75 879.44 352.75 879.44 352.75 879.44 352.75 879.44 352.75 879.44 352.75 879.44 352.75 879.44 352.75 879.44 352.75 879.44 352.75 879.44 352.75 879.44 352.75 879.44 352.75 879.44 352.75 879.44 352.75 879.44 352.75 879.44 352.75 879.44 352.75 879.44 352.75 879.44 352.75 879.44 352.75 879.44 352.75 879.44 352.75 879.44 352.75 879.44 352.75 879.44 352.75 879.44 352.75 879.44 352.75 879.44 352.75 879.44 352.75 879.44 352.75 879.44 352.75 879.44 352.75 879.44 352.75 879.44 352.75 879.44 352.75 879.44 352.75 879.44 352.75 879.44 352.75 879.44 352.75 879.44 352.75 879.44 352.75 879.44 352.75 879.44 352.75 879.44 352.75 879.44 352.75 879.44 352.75 879.44 352.75 879.44 352.75 879.44 352.75 879.44 352.75"/><g class="cls-22"><path class="cls-23" d="M465.53,243.09a5.28,5.28,0,0,0,.28-2V223a5.3,5.3,0,0,0-.28-2h4.09a2.77,2.77,0,0,0-.47,1.84v18.28a5.39,5.39,0,0,0,.29,2h-3.91m4.88-20.15c0-.72,0-1.94,2.16-1.94,2.58,0,3.77,1,3.77,5.46,0,5.14-1.91,5.57-4.13,5.57h-1.8Zm5.93,8.73c1.15-1.51,1.25-3.77,1.25-5.21a9.09,9.09,0,0,0-1.11-5.13c2,.46,4.78,1.54,4.78,5.17C481.26,229,479.64,230.84,476.34,231.67Zm-5.93,1.62c.14,0,.9,0,1,0h1.22c7.29,0,9.91-3.41,9.91-6.82,0-5.1-4.59-6.75-9.23-6.75H462.8c-.65,0-1.22,0-1.22.64s.68.61,1,.61c1.87,0,2,.29,2,2.05v18c0,1.76-.15,2.05-2,2.05-.36,0-1,0-1,.61s.57.65,1.22.65h9.62c.65,0,1.19,0,1.19-.65s-.61-.61-1-.61c-2.05,0-2.19-.29-2.19-2.05Z"/><path class="cls-23" d="M494.79,253c0-.11,0-.18-.61-.79-4.49-4.53-5.64-11.32-5.64-16.81,0-6.25,1.36-12.5,5.78-17,.47-.43.47-.5.47-.61a.33.33,0,0,0-.36-.36c-.36,0-3.59,2.44-5.71,7a27.65,27.65,0,0,0,.11,22.15c2.15,4.42,5.24,6.76,5.6,6.76a.33.33,0,0,0,.36-.36"/><path class="cls-23" d="M510,230h3.09c.72,0,1.08,0,1.08-.72,0-.39-.36-.39-1-.39h-3l.75-4.1a34.77,34.77,0,0,1,.86-3.73,2,2,0,0,1,1.69-1.22,2.63,2.63,0,0,1,1.76.65,2,2,0,0,0-1.94,1.93,1.25,1.25,0,0,0,1.33,1.26,2.06,2.06,0,0,0,2-2.15c0-1.66-1.66-2.48-3.13-2.48-1.22,0-3.48.64-4.56,4.2-.22.75-.32,1.11-1.19,5.64h-2.47c-.69,0-1.08,0-1.08.68,0,.43.32.43,1,.43h2.37l-2.7,14.19c-.64,3.48-1.26,6.75-3.12,6.75a2.57,2.57,0,0,1-1.73-.65,1.94,1.94,0,0,0,2-1.94,1.24,1.24,0,0,0-1.33-1.25,2.06,2.06,0,0,0-2,2.15c0,1.62,1.59,2.48,3.06,2.48,2,0,3.41-2.12,4.06-3.48a32.45,32.45,0,0,0,2-6.86L510,230"/><path class="cls-23" d="M530.19,253c0-.11,0-.18-.61-.79-4.49-4.53-5.64-11.32-5.64-16.81,0-6.25,1.36-12.5,5.78-17,.47-.43.47-.5.47-.61a.33.33,0,0,0-.36-.36c-.36,0-3.59,2.44-5.71,7a27.65,27.65,0,0,0,.11,22.15c2.15,4.42,5.24,6.76,5.6,6.76a.33.33,0,0,0,.36-.36"/><path class="cls-23" d="M549.62,229.59l-3-7.15c-.11-.29-.18-.43-.18-.47,0-.21.61-.89,2.12-1,.36,0,.72-.07.72-.68,0-.43-.43-.43-.54-.43-1.47,0-3,.11-4.52.11-.9,0-3.13-.11-4-.11-.21,0-.64,0-.64.72,0,.39.36.39.82.39,2.16,0,2.37.36,2.7,1.15l4.24,10-7.58,8.15-.47.4a7.24,7.24,0,0,1-5.28,2.58c-.47,0-.79,0-.79.72,0,0,0,.4.47.4,1.08,0,2.26-.11,3.37-.11,1.33,0,2.73.11,4,.11.21,0,.64,0,.64-.72a.41.41,0,0,0-.43-.4c-.32,0-1.43-.1-1.43-1.11a2.82,2.82,0,0,1,1-1.61l3.67-3.88,3.23-3.52,3.63,8.58a3.52,3.52,0,0,1,.18.5c0,.29-.69.9-2.09,1-.39,0-.71.08-.71.69,0,.43.39.43.53.43,1,0,3.52-.11,4.53-.11s3.09.11,4,.11c.25,0,.68,0,.68-.68,0-.44-.36-.44-.65-.44-2.4,0-2.48-.14-3.09-1.58-1.4-3.33-3.8-8.94-4.63-11.09,2.44-2.52,6.21-6.79,7.36-7.8a7.37,7.37,0,0,1,4.56-1.83c.47,0,.79,0,.79-.72,0,0,0-.39-.46-.39-1.08,0-2.27.11-3.38.11-1.33,0-2.69-.11-4-.11-.22,0-.69,0-.69.72,0,.25.18.36.43.39s1.44.11,1.44,1.11a2.2,2.2,0,0,1-.68,1.3l-5.82,6.25"/><path class="cls-23" d="M575.08,235.37a26.12,26.12,0,0,0-2.37-11.21c-2.15-4.41-5.24-6.75-5.6-6.75a.34.34,0,0,0-.36.36c0,.11,0,.18.68.83,3.52,3.55,5.57,9.26,5.57,16.77,0,6.14-1.33,12.46-5.78,17-.47.43-.47.5-.47.61a.34.34,0,0,0,.36.36c.36,0,3.59-2.45,5.71-7a26.09,26.09,0,0,0,2.26-10.95"/><path class="cls-23" d="M590.41,218.71c0-.65,0-1.3-.72-1.3s-.72.65-.72,1.3V252c0,.65,0,1.3.72,1.3s.72-.65.72-1.3V218.71"/><path class="cls-23" d="M608.11,242.37a70.58,70.58,0,0,0,5.35-20.58c2.41,0,11.6,0,11.6,7.9,0,7-6.32,12.68-15,12.68h-1.94m-.18,2c8.37,0,20.18-6.39,20.18-16.2a7.09,7.09,0,0,0-3.27-6.32c-3.09-2-6.39-2-9.8-2-3.09,0-5.21,0-8.23,1.29-4.77,2.12-5.45,5.1-5.45,5.39s.14.29.36.29a4,4,0,0,0,1.68-.69,2,2,0,0,0,1.08-1.4c.5-1.43,1.51-2.69,6-2.91a69.2,69.2,0,0,1-4.92,20.65c-1.33.47-2.19,1.3-2.19,1.66s0,.25.83.25Z"/><path class="cls-23" d="M639.68,235.37a26.12,26.12,0,0,0-2.37-11.21c-2.15-4.41-5.24-6.75-5.6-6.75a.34.34,0,0,0-.36.36c0,.11,0,.18.68.83,3.52,3.55,5.57,9.26,5.57,16.77,0,6.14-1.33,12.46-5.78,17-.47.43-.47.5-.47.61a.34.34,0,0,0,.36.36c.36,0,3.59-2.45,5.71-7a26.09,26.09,0,0,0,2.26-10.95"/></g><polygon class="cls-15" points="1169.18 379.75 1169.18 379.75 1169.18 379.75 1169.18 379.75 1169.18 379.75 1169.18 379.75 1169.18 379.75 1169.18 379.75 1169.18 379.75 1169.18 379.75 1169.18 379.75 1169.18 379.75 1169.18 379.75 1169.18 379.75 1169.18 379.75 1169.18 379.75 1169.18 379.75 1169.18 379.75 1169.18 379.75 1169.18 379.75 1169.18 379.75 1169.18 379.75 1169.18 379.75 1169.18 379.75 1169.18 379.75 1169.18 379.75 1169.18 379.75 1169.18 379.75 1169.18 379.75 1169.18 379.75 1169.18 379.75 1169.18 379.75 1169.18 379.75 1169.18 379.75 1169.18 379.75 1169.18 379.75 1169.18 379.75 1169.18 379.75 1169.18 379.75 1169.18 379.75 1169.18 379.75 1169.18 379.75 1169.18 379.75 1169.18 379.75 1169.18 379.75 1169.18 379.75 1169.18 379.75 1169.18 379.75 1169.18 379.75 1169.18 379.75 1169.18 379.75 1169.18 379.75 1169.18 379.75 1169.18 379.75 1169.18 379.75 1169.18 379.75 1169.18 379.75 1169.18 379.75 1169.18 379.75 1169.18 379.75 1169.18 379.75 1169.18 379.75 1169.18 379.75 1169.18 379.75 1169.18 379.75 1169.18 379.75 1169.18 379.75 1169.18 379.75 1169.18 379.75 1169.18 379.75 1169.18 379.75 1169.18 379.75 1169.18 379.75 1169.18 379.75 1169.18 379.75 1169.18 379.75 1169.18 379.75 1169.18 379.75 1169.18 379.75 1169.18 379.75 1169.18 379.75 1169.18 379.75 1169.18 379.75 1169.18 379.75 1169.18 379.75 1169.18 379.75 1169.18 379.75 1169.18 379.75 1169.18 379.75 1169.18 379.75 1169.18 379.75 1169.18 379.75 1169.18 379.75"/></svg>