<svg version="1.1" id="Layer_1" xmlns="http://www.w3.org/2000/svg" x="0" y="0" viewBox="0 0 900 900" xml:space="preserve"><style>.st0{fill:#f15a24}</style><path class="st0" d="M485.8 50v118.3c0 17.8 4.6 14.7 15.1 3.6 8.2-8.8 20.5-22 46.5-22 34.6 0 71.7 33.5 71.7 83.3s-37.1 83.3-71.7 83.3c-25.9 0-38.3-13.2-46.5-22-10.6-11-15.1-14.2-15.1 3.6V450h101.7c29.2 0 37 22.2 18.8 40.3-8.8 8.9-20.5 16.2-20.5 37.9 0 24.2 24.6 55.1 66.7 55.1s66.7-30.9 66.7-55.1c0-21.7-11.7-29.1-20.5-37.9-18.2-18.1-10.4-40.3 18.8-40.3h135V50H485.8zm-38.3 433.3v135c0 29.2-22.2 36.9-40.3 18.8-8.9-8.8-16.2-20.5-38-20.5-24.1 0-55.1 24.6-55.1 66.7s31 66.7 55.1 66.7c21.7 0 29.1-11.7 38-20.5 18.1-18.1 40.3-10.4 40.3 18.8V850h-400V483.3h151.7c31.1 0 45.2-19.2 45.2-37 0-15.4-8.3-25.8-18.8-35.8-7.4-6.9-11.4-10.7-11.4-22.1 0-15.7 17.8-38.4 50-38.4s50 22.7 50 38.4c0 11.5-4 15.2-11.4 22.1-10.5 10.1-18.8 20.4-18.8 35.9 0 17.8 14.1 37 45.2 37h118.3z"/><path class="st0" d="M520.3 272c6.9 7.3 10.6 11.4 22.1 11.4 15.7 0 38.4-17.8 38.4-50s-22.7-50-38.4-50c-11.5 0-15.2 4-22.1 11.4-10 10.4-20.4 18.8-35.8 18.8-17.8 0-37-14.1-37-45.2V50h-400v400h151.7c17.8 0 14.7-4.6 3.6-15.1-8.7-8.2-21.9-20.5-21.9-46.5 0-34.6 33.5-71.7 83.3-71.7s83.3 37.1 83.3 71.7c0 25.9-13.2 38.3-21.9 46.5-11 10.5-14.3 15.1 3.6 15.1h118.3V298.3c0-31.1 19.2-45.2 37-45.2 15.4 0 25.8 8.4 35.8 18.9z"/></svg>