<svg id="Layer_1" data-name="Layer 1" xmlns="http://www.w3.org/2000/svg" viewBox="0 0 1440 768.6"><defs><style>.cls-1,.cls-31,.cls-33,.cls-34{fill:none;}.cls-1,.cls-31{stroke:#a9a9a9;}.cls-1,.cls-23,.cls-31,.cls-33,.cls-34{stroke-miterlimit:10;}.cls-1,.cls-31,.cls-34{stroke-width:2px;}.cls-2{fill:#a9a9a9;}.cls-3{fill:#e5e4e3;}.cls-24,.cls-4{font-size:27px;font-family:FreightSansProSemibold-Regular, FreightSans Pro;}.cls-5{letter-spacing:0em;}.cls-6{letter-spacing:0em;}.cls-7{letter-spacing:0em;}.cls-17,.cls-8{font-size:17.25px;font-family:FreightSansProBold-Regular, FreightSans Pro;}.cls-16,.cls-17,.cls-8{fill:#777;}.cls-15,.cls-8{letter-spacing:0.02em;}.cls-9{letter-spacing:-0.02em;}.cls-10{letter-spacing:-0.02em;}.cls-11{letter-spacing:0.02em;}.cls-12{letter-spacing:0em;}.cls-13{letter-spacing:0.01em;}.cls-14{letter-spacing:-0.05em;}.cls-17{letter-spacing:0.02em;}.cls-18{fill:#22b0b0;}.cls-19,.cls-24,.cls-35{fill:#fff;}.cls-20{letter-spacing:-0.01em;}.cls-21{letter-spacing:-0.01em;}.cls-22{letter-spacing:0em;}.cls-23,.cls-27{fill:#576370;}.cls-23,.cls-34{stroke:#22baba;}.cls-23,.cls-33{stroke-width:4px;}.cls-25{letter-spacing:-0.09em;}.cls-26{letter-spacing:-0.01em;}.cls-28{letter-spacing:0.03em;}.cls-29{letter-spacing:-0.01em;}.cls-30{letter-spacing:-0.02em;}.cls-31{stroke-dasharray:3 5;}.cls-32{letter-spacing:0.02em;}.cls-33{stroke:#fff;}.cls-35{opacity:0.1;}</style></defs><title>illu</title><line class="cls-1" x1="525.28" y1="477.48" x2="525.28" y2="285.55"/><polygon class="cls-2" points="519.81 476.75 530.75 476.75 525.28 482.21 519.81 476.75"/><line class="cls-1" x1="631.75" y1="321.31" x2="631.75" y2="513.25"/><polygon class="cls-2" points="637.22 322.05 626.28 322.05 631.75 316.58 637.22 322.05"/><rect class="cls-3" x="401.35" y="357.74" width="162.52" height="72.47" rx="8.63"/><rect class="cls-3" x="595.38" y="357.74" width="162.52" height="72.47" rx="8.63"/><text class="cls-4" transform="translate(105.17 193.25)">D<tspan class="cls-5" x="17.87" y="0">e</tspan><tspan class="cls-6" x="31.48" y="0">v</tspan><tspan x="44.25" y="0">elope</tspan><tspan class="cls-7" x="107.27" y="0">r</tspan><tspan x="117.91" y="0">s</tspan></text><text class="cls-8" transform="translate(753.93 150.73)">DEP<tspan class="cls-9" x="32.77" y="0">L</tspan><tspan class="cls-10" x="41.38" y="0">O</tspan><tspan class="cls-11" x="53.69" y="0">Y </tspan><tspan class="cls-12"><tspan x="-41.7" y="20.7">C</tspan><tspan class="cls-11" x="-31.11" y="20.7">ONFIGU</tspan><tspan class="cls-13" x="33.43" y="20.7">R</tspan><tspan class="cls-14" x="44.2" y="20.7">A</tspan><tspan class="cls-15" x="54.5" y="20.7">TIONS</tspan></tspan></text><path class="cls-16" d="M416.06,389.77H412.2V379h4.05c3.79,0,5.95,2.11,5.95,5.31S420,389.77,416.06,389.77Zm0-8.59h-1.14v6.4h1.28a2.88,2.88,0,0,0,3.22-3.17C419.44,382.18,418.32,381.18,416.08,381.18Z"/><path class="cls-16" d="M434.14,389.77h-2.73l-.79-2.29h-4l-.78,2.29h-2.72L427,379h3.43Zm-5.51-8.66-1.43,4.23H430Z"/><path class="cls-16" d="M439.93,381.29v8.48h-2.74v-8.48h-3.43V379h9.6v2.3Z"/><path class="cls-16" d="M454,389.77H451.3l-.79-2.29h-4l-.78,2.29H443L446.83,379h3.44Zm-5.5-8.66-1.43,4.23h2.81Z"/><path class="cls-16" d="M462.5,390c-2,0-3.47-1.19-3.47-2.95a3.05,3.05,0,0,1,2.45-2.86,2.83,2.83,0,0,1-1.61-2.47c0-1.46,1.25-3,3.54-3,2,0,3.43,1.05,3.43,2.62a2.65,2.65,0,0,1-2.07,2.38,7.37,7.37,0,0,1,1.48,1.14l1-1.84h2.81l-2.46,3.22,2.59,3.22-2.71.49-1.35-1.93A4.78,4.78,0,0,1,462.5,390Zm.17-5.12a2,2,0,0,0-1.19,1.65A1.44,1.44,0,0,0,463,388a2.6,2.6,0,0,0,2.07-1.29A7.18,7.18,0,0,0,462.67,384.91Zm1.89-3.23a1.19,1.19,0,0,0-2.38-.05c0,.73.57,1.16,1.4,1.52A1.74,1.74,0,0,0,464.56,381.68Z"/><path class="cls-16" d="M479.57,386.63l-1.05,0v3.12h-2.74V379h4c3,0,4.6,1.52,4.6,3.74C484.36,385.25,482.66,386.63,479.57,386.63Zm0-5.46h-1.1v3.36l1.1,0c1.42,0,2.09-.62,2.09-1.71S480.93,381.17,479.55,381.17Z"/><path class="cls-16" d="M489.11,389.77h-2.74V379h4.33c2.86,0,4.36,1.33,4.36,3.42a3.16,3.16,0,0,1-2.21,3.1l2.76,4.26h-3.09l-2.15-3.62-1.26.1Zm1.33-5.59c1.17-.08,1.81-.57,1.81-1.6s-.66-1.41-2-1.41h-1.15v3.05Z"/><path class="cls-16" d="M502.34,390a5.26,5.26,0,0,1-5.62-5.62,5.45,5.45,0,0,1,5.65-5.68,5.26,5.26,0,0,1,5.64,5.61A5.47,5.47,0,0,1,502.34,390Zm0-9.09c-1.83,0-2.86,1.38-2.86,3.4s1.06,3.48,2.91,3.48,2.86-1.39,2.86-3.41S504.17,380.94,502.34,380.94Z"/><path class="cls-16" d="M519.22,386.63c0,1.73-.91,3.14-4.36,3.14h-4.71V379h4.68c3.2,0,4.07,1.23,4.07,2.81a2.35,2.35,0,0,1-2,2.33A2.55,2.55,0,0,1,519.22,386.63Zm-4.65-5.58h-1.76v2.48h1.62c1.14,0,1.72-.47,1.72-1.28S515.6,381.05,514.57,381.05Zm0,4.18h-1.76v2.49h1.84c1.25,0,1.81-.4,1.81-1.24S515.72,385.23,514.57,385.23Z"/><path class="cls-16" d="M521.19,389.77V379h2.74v8.49h4.52v2.29Z"/><path class="cls-16" d="M530.51,389.77V379h7.88v2.21H533.2v2.07h4.17v2.19H533.2v2.1h5.19v2.21Z"/><path class="cls-16" d="M550.61,381.46l-2.36,8.14h-2.93L543,381.48l-.07,8.29h-2.55l.38-10.78h3.88l2.24,8.09,2.24-8.09h3.83l.36,10.78h-2.6Z"/><path class="cls-16" d="M426.71,407.45c0-.72-.77-1-2.2-1.36s-3.47-1.16-3.47-3.31c0-2,1.46-3.33,4.14-3.33a8.16,8.16,0,0,1,4,.95l-.53,2.26a8,8,0,0,0-3.48-1c-.95,0-1.42.33-1.42.91s1,1,2.28,1.35c1.65.45,3.38,1.21,3.38,3.26s-1.59,3.5-4.42,3.5a8.82,8.82,0,0,1-4.15-1l.51-2.27a8,8,0,0,0,3.69,1C426,408.47,426.71,408.11,426.71,407.45Z"/><path class="cls-16" d="M435.35,407.33l-1.05,0v3.12h-2.74V399.69h4c3,0,4.61,1.52,4.61,3.74C440.15,406,438.44,407.33,435.35,407.33Zm0-5.47h-1.11v3.37l1.11,0c1.41,0,2.08-.62,2.08-1.71S436.72,401.86,435.34,401.86Z"/><path class="cls-16" d="M442.15,410.47V399.69H450v2.21h-5.19V404H449v2.19h-4.17v2.1H450v2.21Z"/><path class="cls-16" d="M460.16,402.54a5.31,5.31,0,0,0-2.73-.78,3,3,0,0,0-3.07,3.29c0,2.06,1.14,3.35,3.09,3.35a5.21,5.21,0,0,0,2.84-.88l.57,2.43a8,8,0,0,1-3.53.78c-3.45,0-5.73-2-5.73-5.61s2.26-5.69,5.82-5.69a8.3,8.3,0,0,1,3.56.81Z"/><path class="cls-16" d="M463,410.47V399.69h2.74v10.78Z"/><path class="cls-16" d="M468.35,399.69h7.71V402h-5v2.22h4v2.25h-4v4.05h-2.71Z"/><path class="cls-16" d="M478,410.47V399.69h2.75v10.78Z"/><path class="cls-16" d="M491.51,402.54a5.31,5.31,0,0,0-2.72-.78,3,3,0,0,0-3.07,3.29c0,2.06,1.14,3.35,3.09,3.35a5.21,5.21,0,0,0,2.84-.88l.57,2.43a8,8,0,0,1-3.54.78c-3.44,0-5.72-2-5.72-5.61s2.26-5.69,5.81-5.69a8.34,8.34,0,0,1,3.57.81Z"/><path class="cls-16" d="M504.26,410.47h-2.73l-.79-2.29h-4l-.78,2.29h-2.72l3.83-10.78h3.43Zm-5.5-8.66L497.33,406h2.81Z"/><path class="cls-16" d="M510.05,402v8.49h-2.74V402h-3.43v-2.29h9.61V402Z"/><path class="cls-16" d="M515.37,410.47V399.69h2.74v10.78Z"/><path class="cls-16" d="M525.91,410.73a5.27,5.27,0,0,1-5.62-5.62,5.44,5.44,0,0,1,5.65-5.68,5.26,5.26,0,0,1,5.64,5.61A5.48,5.48,0,0,1,525.91,410.73Zm0-9.09c-1.83,0-2.87,1.38-2.87,3.4s1.07,3.48,2.92,3.48,2.86-1.4,2.86-3.41S527.73,401.64,525.91,401.64Z"/><path class="cls-16" d="M541.17,399.69h2.57v10.88h-2.91l-4.54-7.09v7h-2.57V399.69h3l4.48,7Z"/><path class="cls-16" d="M633.81,386.75c0-.72-.78-1-2.21-1.36s-3.47-1.16-3.47-3.31c0-2,1.47-3.33,4.14-3.33a8.23,8.23,0,0,1,4,.95l-.54,2.26a8,8,0,0,0-3.48-.95c-.95,0-1.41.33-1.41.91s1,1,2.27,1.35c1.66.45,3.38,1.21,3.38,3.26s-1.59,3.5-4.41,3.5a9,9,0,0,1-4.16-1l.52-2.28a8,8,0,0,0,3.69,1C633.13,387.77,633.81,387.41,633.81,386.75Z"/><path class="cls-16" d="M643.33,390c-2.81,0-4.74-1.38-4.74-4.42V379h2.72v6.26c0,1.62.66,2.47,2.09,2.47s2-.69,2-2.36V379h2.73v6.38C648.09,388.49,646.22,390,643.33,390Z"/><path class="cls-16" d="M655.94,390c-3.45,0-5.8-2-5.8-5.6s2.28-5.7,5.81-5.7a8.62,8.62,0,0,1,4.06.94l-.87,2.29a6.17,6.17,0,0,0-3.1-.9,3,3,0,0,0-3.17,3.3c0,2.15,1.08,3.43,3.14,3.43a4.7,4.7,0,0,0,1.72-.33v-1.59h-2.66V383.7h5.14V389A9.09,9.09,0,0,1,655.94,390Z"/><path class="cls-16" d="M667.89,390c-3.45,0-5.79-2-5.79-5.6s2.27-5.7,5.81-5.7a8.58,8.58,0,0,1,4.05.94L671.1,382a6.21,6.21,0,0,0-3.11-.9,3,3,0,0,0-3.17,3.3c0,2.15,1.09,3.43,3.14,3.43a4.7,4.7,0,0,0,1.72-.33v-1.59H667V383.7h5.14V389A9.16,9.16,0,0,1,667.89,390Z"/><path class="cls-16" d="M674.5,389.77V379h7.88v2.21h-5.19v2.07h4.17v2.19h-4.17v2.1h5.19v2.21Z"/><path class="cls-16" d="M689.81,386.75c0-.72-.77-1-2.2-1.36s-3.47-1.16-3.47-3.31c0-2,1.46-3.33,4.14-3.33a8.16,8.16,0,0,1,4,.95l-.53,2.26a8,8,0,0,0-3.49-.95c-.94,0-1.41.33-1.41.91s1,1,2.28,1.35c1.65.45,3.38,1.21,3.38,3.26S691,390,688.12,390a9,9,0,0,1-4.15-1l.51-2.28a8,8,0,0,0,3.69,1C689.14,387.77,689.81,387.41,689.81,386.75Z"/><path class="cls-16" d="M699.82,381.29v8.48h-2.74v-8.48h-3.44V379h9.61v2.3Z"/><path class="cls-16" d="M705.12,389.77V379H713v2.21h-5.2v2.07H712v2.19H707.8v2.1H713v2.21Z"/><path class="cls-16" d="M719.07,389.77h-3.86V379h4c3.79,0,6,2.11,6,5.31S723,389.77,719.07,389.77Zm0-8.59H718v6.4h1.27c2,0,3.23-1,3.23-3.17S721.33,381.18,719.08,381.18Z"/><path class="cls-16" d="M612.05,402.54a5.28,5.28,0,0,0-2.72-.78,3,3,0,0,0-3.07,3.29c0,2.06,1.14,3.35,3.09,3.35a5.21,5.21,0,0,0,2.84-.88l.57,2.43a8,8,0,0,1-3.53.78c-3.45,0-5.73-2-5.73-5.61s2.26-5.69,5.81-5.69a8.34,8.34,0,0,1,3.57.81Z"/><path class="cls-16" d="M619.71,410.73a5.27,5.27,0,0,1-5.62-5.62,5.45,5.45,0,0,1,5.66-5.68,5.26,5.26,0,0,1,5.64,5.61A5.48,5.48,0,0,1,619.71,410.73Zm0-9.09c-1.82,0-2.86,1.38-2.86,3.4s1.07,3.48,2.92,3.48,2.86-1.4,2.86-3.41S621.54,401.64,619.71,401.64Z"/><path class="cls-16" d="M635,399.69h2.57v10.88h-2.92l-4.53-7.09v7h-2.57V399.69h3l4.48,7Z"/><path class="cls-16" d="M640.14,399.69h7.7V402h-5v2.22h4v2.25h-4v4.05h-2.7Z"/><path class="cls-16" d="M649.83,410.47V399.69h2.74v10.78Z"/><path class="cls-16" d="M660.54,410.73c-3.45,0-5.79-2.05-5.79-5.61s2.27-5.69,5.81-5.69a8.58,8.58,0,0,1,4.05.93l-.86,2.3a6.21,6.21,0,0,0-3.11-.9,3,3,0,0,0-3.17,3.29c0,2.16,1.09,3.44,3.14,3.44a4.7,4.7,0,0,0,1.72-.33v-1.59h-2.65V404.4h5.14v5.33A9.29,9.29,0,0,1,660.54,410.73Z"/><path class="cls-16" d="M671.82,410.73c-2.81,0-4.74-1.38-4.74-4.42v-6.62h2.72V406c0,1.62.66,2.47,2.09,2.47s2-.69,2-2.37v-6.36h2.72v6.38C676.58,409.19,674.72,410.73,671.82,410.73Z"/><path class="cls-16" d="M681.83,410.47h-2.75V399.69h4.33c2.86,0,4.36,1.33,4.36,3.42a3.15,3.15,0,0,1-2.2,3.1l2.76,4.26h-3.09l-2.16-3.62-1.25.1Zm1.32-5.59c1.18-.08,1.81-.57,1.81-1.6s-.65-1.42-2-1.42h-1.16v3.06Z"/><path class="cls-16" d="M699.78,410.47h-2.73l-.79-2.29h-4l-.77,2.29h-2.73l3.83-10.78H696Zm-5.5-8.66L692.85,406h2.81Z"/><path class="cls-16" d="M705.58,402v8.49h-2.75V402H699.4v-2.29H709V402Z"/><path class="cls-16" d="M710.89,410.47V399.69h2.74v10.78Z"/><path class="cls-16" d="M721.43,410.73a5.27,5.27,0,0,1-5.62-5.62,5.45,5.45,0,0,1,5.65-5.68A5.26,5.26,0,0,1,727.1,405,5.47,5.47,0,0,1,721.43,410.73Zm0-9.09c-1.83,0-2.86,1.38-2.86,3.4s1.06,3.48,2.91,3.48,2.86-1.4,2.86-3.41S723.26,401.64,721.43,401.64Z"/><path class="cls-16" d="M736.69,399.69h2.57v10.88h-2.91l-4.54-7.09v7h-2.57V399.69h3l4.48,7Z"/><path class="cls-16" d="M747.08,407.45c0-.72-.78-1-2.21-1.36s-3.47-1.16-3.47-3.31c0-2,1.47-3.33,4.14-3.33a8.23,8.23,0,0,1,4,.95l-.54,2.26a8,8,0,0,0-3.48-1c-.95,0-1.42.33-1.42.91s1,1,2.28,1.35c1.66.45,3.38,1.21,3.38,3.26s-1.59,3.5-4.41,3.5a8.84,8.84,0,0,1-4.16-1l.52-2.27a8,8,0,0,0,3.69,1C746.4,408.47,747.08,408.11,747.08,407.45Z"/><text class="cls-17" transform="translate(1260.45 170.6)">D<tspan class="cls-14" x="12" y="0">AT</tspan><tspan class="cls-15" x="31.89" y="0">A</tspan></text><text class="cls-4" transform="translate(98.76 441.85)">Applications</text><path class="cls-18" d="M207.93,118.11a38,38,0,1,1-38-38A37.93,37.93,0,0,1,207.93,118.11Z"/><rect class="cls-19" x="161.91" y="94.23" width="16.07" height="18.85" rx="8.04"/><path class="cls-19" d="M189.68,132.36v1.5a2.84,2.84,0,0,1-2.84,2.84H153.05a2.84,2.84,0,0,1-2.84-2.84v-1.5a14.25,14.25,0,0,1,14.26-14.25h10.95A14.26,14.26,0,0,1,189.68,132.36Z"/><path class="cls-18" d="M207.78,364.51a38,38,0,1,1-38-38A37.93,37.93,0,0,1,207.78,364.51Z"/><path class="cls-19" d="M186.94,362.05h-.19a11.71,11.71,0,0,0,.06-1.19,11.44,11.44,0,0,0-20.61-6.73,7.74,7.74,0,0,0-4.31-1.3,7.6,7.6,0,0,0-7.66,7.53,7.16,7.16,0,0,0,.18,1.61,6,6,0,0,0-1.76-.26c-3.82,0-6.92,3.56-6.92,7.81s3.1,7.81,6.92,7.81h34.29c3.81,0,6.91-3.48,6.91-7.64S190.75,362.05,186.94,362.05Z"/><text class="cls-4" transform="translate(99.62 689.15)"><tspan class="cls-20">R</tspan><tspan x="15.34" y="0">esea</tspan><tspan class="cls-21" x="66.91" y="0">r</tspan><tspan x="77.3" y="0">che</tspan><tspan class="cls-22" x="118.07" y="0">r</tspan><tspan x="128.71" y="0">s</tspan></text><line class="cls-1" x1="438.98" y1="247.97" x2="330.86" y2="247.98"/><polygon class="cls-2" points="438.25 253.44 438.25 242.51 443.71 247.97 438.25 253.44"/><line class="cls-1" x1="438.98" y1="570.87" x2="360.86" y2="570.87"/><polygon class="cls-2" points="438.25 576.34 438.25 565.4 443.71 570.87 438.25 576.34"/><path class="cls-1" d="M240.77,121.94h55.75a34.34,34.34,0,0,1,34.34,34.34V333.67A34.34,34.34,0,0,1,296.52,368H240.77"/><path class="cls-1" d="M240.77,615.45h85.75c19,0,34.34-15.8,34.34-35.29V304.31a33.07,33.07,0,0,1,33.07-33.07H439"/><polygon class="cls-2" points="438.25 265.77 438.25 276.71 443.71 271.24 438.25 265.77"/><rect class="cls-23" x="465.73" y="504.84" width="227.02" height="137.95" rx="12.92"/><text class="cls-24" transform="translate(531.14 545.2)">Bo<tspan class="cls-25" x="30.7" y="0">T</tspan><tspan x="44.01" y="0">o</tspan><tspan class="cls-26" x="58.7" y="0">r</tspan><tspan x="69.09" y="0">ch</tspan></text><rect class="cls-3" x="893.1" y="124.43" width="345.16" height="521.76" rx="20.8"/><rect class="cls-27" x="928.53" y="158.87" width="271.68" height="72.13" rx="12.92"/><text class="cls-24" transform="translate(1017.37 202.54)"><tspan class="cls-5">A</tspan><tspan class="cls-28" x="16.58" y="0">/</tspan><tspan class="cls-29" x="24.19" y="0">B</tspan><tspan x="39.93" y="0"> </tspan><tspan class="cls-25" x="46.09" y="0">T</tspan><tspan x="59.4" y="0">est</tspan></text><rect class="cls-27" x="928.93" y="284.18" width="271.68" height="72.13" rx="12.92"/><text class="cls-24" transform="translate(1002.25 327.85)">M<tspan class="cls-30" x="21.9" y="0">L</tspan><tspan x="35.04" y="0" xml:space="preserve"> Sys</tspan><tspan class="cls-6" x="80.11" y="0">t</tspan><tspan x="89.64" y="0">em</tspan></text><rect class="cls-27" x="929.34" y="409.49" width="271.68" height="72.13" rx="12.92"/><text class="cls-24" transform="translate(1003.87 453.16)">Simulation</text><rect class="cls-27" x="928.12" y="534.8" width="271.68" height="72.13" rx="12.92"/><text class="cls-24" transform="translate(1053.96 578.47)">...</text><path class="cls-1" d="M693.22,258.74h86.15a15,15,0,0,0,15-15V211.35a15,15,0,0,1,15-15H910.07"/><polygon class="cls-2" points="909.34 190.93 909.34 201.86 914.8 196.39 909.34 190.93"/><path class="cls-31" d="M910.07,322.23H809.28a15,15,0,0,1-15-15V273.69a15,15,0,0,0-15-14.95h-9.65"/><polygon class="cls-2" points="909.34 327.69 909.34 316.76 914.8 322.23 909.34 327.69"/><path class="cls-31" d="M794.32,307.27V430.21a15,15,0,0,0,15,15H910.07"/><polygon class="cls-2" points="909.34 439.69 909.34 450.63 914.8 445.16 909.34 439.69"/><path class="cls-31" d="M794.32,439.51V557.75a15,15,0,0,0,15,15H910.07"/><polygon class="cls-2" points="909.34 567.24 909.34 578.17 914.8 572.71 909.34 567.24"/><rect class="cls-23" x="465.73" y="221.8" width="227.02" height="72.13" rx="12.92"/><text class="cls-24" transform="translate(564.73 265.47)"><tspan class="cls-32">A</tspan><tspan x="16.93" y="0">x</tspan></text><path class="cls-1" d="M1200.67,195.76H1317a36.34,36.34,0,0,0,36.34-36.34V114.61A36.33,36.33,0,0,0,1317,78.28H617.21a36.32,36.32,0,0,0-36.33,36.33v61.75"/><polygon class="cls-2" points="586.34 175.63 575.41 175.63 580.88 181.09 586.34 175.63"/><path class="cls-31" d="M1201,320.73h127.27a25,25,0,0,0,25-25V159.42"/><path class="cls-31" d="M1201,447.21h127.27a25,25,0,0,0,25-25V295.7"/><path class="cls-31" d="M1201,569.79h127.27a25,25,0,0,0,25-25V434.12"/><path class="cls-18" d="M207.78,612.22a38,38,0,1,1-38-38A37.93,37.93,0,0,1,207.78,612.22Z"/><circle class="cls-33" cx="167.46" cy="609.66" r="11.85"/><line class="cls-33" x1="176.65" y1="617.14" x2="186.15" y2="626.64"/><path class="cls-34" d="M466.47,590.16c34.79-5.95,46.89,22.7,67.35,22.7,9.63,0,21.2-6.73,33.49-10.42,12.94-3.9,26.57-4.85,35.16-8.19,16.75-6.49,34.83-25.43,47.65-25.43s32,16.13,41.38,16.87"/><path class="cls-35" d="M513.37,604.56c-12.2-17-20.2-39.33-46.9-39.33l-.74,53C482.47,617.69,493.47,607.62,513.37,604.56Z"/><path class="cls-35" d="M523.28,610.38c11.94-3.29,24.77-25.06,41-29s33,14.48,33,14.48c-12.59,19.28-25.43,31-39.1,32.68S530.32,618.69,523.28,610.38Z"/><path class="cls-35" d="M602.47,594.25c6.7-7.81,11.16-25.39,24.28-31.25s23.37,5.82,23.37,5.82C639.59,580.3,632.05,597.6,620.33,601S602.47,594.25,602.47,594.25Z"/><path class="cls-35" d="M654.38,569.33c5.58-2.43,16.18-3,17.53,7.54C659.77,580.87,656.05,574,654.38,569.33Z"/><path class="cls-35" d="M673.5,577.75c10.46-4.71,14.66-7.22,19.26-12.52v36.4C682.29,592.58,677,583.56,673.5,577.75Z"/><circle class="cls-19" cx="513.37" cy="603.57" r="4.26"/><circle class="cls-19" cx="523.28" cy="609.07" r="4.26"/><circle class="cls-19" cx="656.59" cy="569.49" r="4.26"/><circle class="cls-19" cx="680.61" cy="579.56" r="4.26"/><circle class="cls-19" cx="603.43" cy="594.04" r="4.26"/></svg>