<?xml version="1.0" encoding="utf-8"?>
<!-- Generator: Adobe Illustrator 23.0.3, SVG Export Plug-In . SVG Version: 6.00 Build 0)  -->
<svg version="1.1" id="Layer_1" focusable="false" xmlns="http://www.w3.org/2000/svg" xmlns:xlink="http://www.w3.org/1999/xlink"
	 x="0px" y="0px" viewBox="0 0 512 512" style="enable-background:new 0 0 512 512;" xml:space="preserve">
<style type="text/css">
	.st0{fill:#F7931E;}
</style>
<path class="st0" d="M296,32h192c13.3,0,24,10.7,24,24v160c0,13.3-10.7,24-24,24H296c-13.3,0-24-10.7-24-24V56
	C272,42.7,282.7,32,296,32z M216,32H24C10.7,32,0,42.7,0,56v160c0,13.3,10.7,24,24,24h192c13.3,0,24-10.7,24-24V56
	C240,42.7,229.3,32,216,32z M0,296v160c0,13.3,10.7,24,24,24h192c13.3,0,24-10.7,24-24V296c0-13.3-10.7-24-24-24H24
	C10.7,272,0,282.7,0,296z M296,480h192c13.3,0,24-10.7,24-24V296c0-13.3-10.7-24-24-24H296c-13.3,0-24,10.7-24,24v160
	C272,469.3,282.7,480,296,480z"/>
</svg>
