<svg data-name="Layer 1" xmlns="http://www.w3.org/2000/svg" viewBox="0 0 900 900"><path d="M414.85 542.76l-178 178 54.09 53.93c22.56 22.55 3.55 64.27-30.18 66L84.2 850c-21 1.09-36.95-14.89-35.85-35.86l9.24-176.55c1.76-33.74 43.47-52.74 66-30.18l54.08 54.08 178-177.84" fill="#1c60f7"/><path d="M544.46 483.45l178 178 53.92-54.09c22.56-22.56 64.27-3.56 66 30.18l9.24 176.55c1.1 21-14.89 36.95-35.85 35.86l-176.56-9.24c-33.73-1.76-52.74-43.48-30.18-66l54.08-54.08-177.84-178" fill="#93319d"/><path d="M358.62 416.55l-178-178-53.92 54.09c-22.56 22.56-64.27 3.56-66-30.18L51.44 85.91c-1.1-21 14.88-36.95 35.85-35.86l176.55 9.24c33.74 1.76 52.74 43.48 30.18 66l-54.08 54.11 177.84 178" fill="#f15a24"/><path d="M482.07 357.24l178-178L606 125.32c-22.56-22.55-3.56-64.27 30.18-66l176.55-9.24c21-1.09 36.95 14.89 35.85 35.86l-9.23 176.55c-1.77 33.74-43.48 52.74-66 30.18l-54.08-54.08-178 177.84" fill="#f7931e"/></svg>