<svg data-name="Layer 1" xmlns="http://www.w3.org/2000/svg" viewBox="0 0 900 900"><path d="M485.83 50v118.33c0 17.77 4.57 14.74 15.14 3.64 8.16-8.77 20.53-22 46.46-22 34.64 0 71.74 33.47 71.74 83.33s-37.1 83.34-71.74 83.34c-25.9 0-38.26-13.2-46.46-22-10.57-11-15.14-14.17-15.14 3.63V450H587.5c29.23 0 37 22.23 18.8 40.3-8.8 8.87-20.47 16.2-20.47 37.93 0 24.17 24.64 55.1 66.67 55.1s66.67-30.93 66.67-55.1c0-21.73-11.67-29.1-20.47-37.93-18.17-18.07-10.43-40.3 18.8-40.3h135V50z" fill="#f7931e"/><path d="M447.5 483.33v135c0 29.24-22.23 36.94-40.3 18.8-8.87-8.8-16.2-20.46-38-20.46-24.13 0-55.06 24.63-55.06 66.66S345.1 750 369.23 750c21.74 0 29.1-11.67 38-20.5 18.07-18.13 40.3-10.4 40.3 18.83V850H47.5V483.33h151.67c31.1 0 45.2-19.16 45.2-37 0-15.44-8.34-25.77-18.8-35.84-7.37-6.9-11.4-10.66-11.4-22.13 0-15.67 17.8-38.4 50-38.4s50 22.73 50 38.4c0 11.47-4 15.23-11.4 22.1C292.3 420.57 284 430.9 284 446.33c0 17.84 14.13 37 45.2 37z" fill="#1c60f7"/><path d="M520.33 272c6.87 7.33 10.64 11.36 22.1 11.36 15.67 0 38.4-17.8 38.4-50s-22.73-50-38.4-50c-11.46 0-15.23 4-22.1 11.37-10 10.43-20.4 18.83-35.83 18.83-17.83 0-37-14.13-37-45.2V50h-400v400h151.67c17.76 0 14.7-4.57 3.6-15.13-8.74-8.17-21.94-20.54-21.94-46.47 0-34.63 33.47-71.73 83.34-71.73s83.33 37.1 83.33 71.73c0 25.9-13.2 38.27-21.93 46.47-11 10.5-14.27 15.13 3.6 15.13H447.5V298.33c0-31.06 19.17-45.23 37-45.23 15.4 0 25.77 8.4 35.83 18.9z" fill="#f15a24"/></svg>