<svg id="Layer_1" data-name="Layer 1" xmlns="http://www.w3.org/2000/svg" xmlns:xlink="http://www.w3.org/1999/xlink" viewBox="0 0 1440 300"><defs><style>.cls-1,.cls-4,.cls-6{fill:none;}.cls-2{fill:#576370;}.cls-3{font-size:26.22px;fill:#fff;font-family:HelveticaNeueLTPro-Bd, Helvetica Neue LT Pro;}.cls-4{stroke:#a9a9a9;stroke-width:2px;}.cls-4,.cls-6{stroke-miterlimit:10;}.cls-5{fill:#a9a9a9;}.cls-6{stroke:#000;stroke-width:0px;opacity:0;}.cls-7{clip-path:url(#clip-path);}.cls-8{clip-path:url(#clip-path-2);}.cls-9{clip-path:url(#clip-path-3);}.cls-10{clip-path:url(#clip-path-4);}</style><clipPath id="clip-path"><rect class="cls-1" x="651.58" y="192.26" width="139" height="53"/></clipPath><clipPath id="clip-path-2"><rect class="cls-1" x="711.58" y="49.78" width="19" height="34"/></clipPath><clipPath id="clip-path-3"><rect class="cls-1" x="537.6" y="124.43" width="19" height="17"/></clipPath><clipPath id="clip-path-4"><rect class="cls-1" x="885.4" y="120.93" width="17" height="24"/></clipPath></defs><title>blackbox</title><rect class="cls-2" x="634.78" y="88.78" width="172.59" height="88.31" rx="11.91"/><text class="cls-3" transform="translate(713.79 141.76)">?</text><line class="cls-4" x1="861.9" y1="132.93" x2="819.51" y2="132.93"/><polygon class="cls-5" points="861.17 138.4 861.17 127.47 866.63 132.93 861.17 138.4"/><line class="cls-4" x1="616.54" y1="132.93" x2="574.15" y2="132.93"/><polygon class="cls-5" points="615.81 138.4 615.81 127.47 621.27 132.93 615.81 138.4"/><polygon class="cls-6" points="581.4 132.93 581.4 132.93 581.4 132.93 581.4 132.93 581.4 132.93 581.4 132.93 581.4 132.93 581.4 132.93 581.4 132.93 581.4 132.93 581.4 132.93 581.4 132.93 581.4 132.93 581.4 132.93 581.4 132.93 581.4 132.93 581.4 132.93 581.4 132.93 581.4 132.93 581.4 132.93 581.4 132.93 581.4 132.93 581.4 132.93 581.4 132.93 581.4 132.93 581.4 132.93 581.4 132.93 581.4 132.93 581.4 132.93 581.4 132.93 581.4 132.93 581.4 132.93 581.4 132.93 581.4 132.93 581.4 132.93 581.4 132.93 581.4 132.93 581.4 132.93 581.4 132.93 581.4 132.93 581.4 132.93 581.4 132.93 581.4 132.93 581.4 132.93 581.4 132.93 581.4 132.93 581.4 132.93 581.4 132.93 581.4 132.93 581.4 132.93 581.4 132.93 581.4 132.93 581.4 132.93 581.4 132.93 581.4 132.93 581.4 132.93 581.4 132.93 581.4 132.93 581.4 132.93 581.4 132.93 581.4 132.93 581.4 132.93 581.4 132.93 581.4 132.93 581.4 132.93 581.4 132.93 581.4 132.93 581.4 132.93 581.4 132.93 581.4 132.93 581.4 132.93 581.4 132.93 581.4 132.93 581.4 132.93 581.4 132.93 581.4 132.93 581.4 132.93 581.4 132.93 581.4 132.93 581.4 132.93 581.4 132.93 581.4 132.93 581.4 132.93 581.4 132.93 581.4 132.93 581.4 132.93 581.4 132.93"/><g class="cls-7"><path d="M654.83,207.1v9.63c0,1.61-.4,1.61-2.8,1.61v1.12c1.25,0,3.08-.11,4.06-.11s2.8.07,4,.11v-1.12c-2.41,0-2.8,0-2.8-1.61v-6.61c0-3.74,2.55-5.75,4.84-5.75s2.66,1.94,2.66,4v8.37c0,1.61-.39,1.61-2.8,1.61v1.12c1.26,0,3.09-.11,4.06-.11s2.8.07,4,.11v-1.12c-2.4,0-2.8,0-2.8-1.61v-6.61c0-3.74,2.55-5.75,4.85-5.75s2.66,1.94,2.66,4v8.37c0,1.61-.4,1.61-2.81,1.61v1.12c1.26,0,3.09-.11,4.06-.11s2.8.07,4,.11v-1.12c-1.87,0-2.77,0-2.81-1.07v-6.86c0-3.09,0-4.2-1.11-5.5a4.79,4.79,0,0,0-3.77-1.33,5.69,5.69,0,0,0-5.21,3.52c-.5-3.12-3.16-3.52-4.77-3.52-2.63,0-4.31,1.55-5.32,3.78v-3.78L652,204v1.11c2.51,0,2.8.25,2.8,2"/><path d="M692.49,210.84v3.59a4.32,4.32,0,0,1-4.21,4.63,3.09,3.09,0,0,1-3.23-3.05c0-2,1.51-5,7.44-5.17m.25,5.89a3,3,0,0,0,2.8,2.94c.75,0,2.94-.5,2.94-3.41v-2h-.89v2c0,2.08-.9,2.3-1.3,2.3-1.18,0-1.33-1.62-1.33-1.8v-7.18c0-1.51,0-2.91-1.29-4.24a6.86,6.86,0,0,0-4.92-2c-2.94,0-5.42,1.69-5.42,4.06a1.65,1.65,0,1,0,3.3,0c0-.43-.18-1.61-1.83-1.65a5,5,0,0,1,3.88-1.65c1.76,0,3.81,1.4,3.81,4.6v1.32a17.46,17.46,0,0,0-6.61,1.3c-2.7,1.22-3.59,3.09-3.59,4.67,0,2.91,3.48,3.8,5.74,3.8A5,5,0,0,0,692.74,216.73Z"/><path d="M709,211c1.07-1.37,2.44-3.13,3.3-4.06a5.52,5.52,0,0,1,4.27-1.87V204c-.93.07-2,.11-2.94.11-1.08,0-3-.08-3.45-.11v1.11a1,1,0,0,1,1,1.12,2,2,0,0,1-.54,1.25l-2.22,2.8-2.81-3.62c-.32-.36-.32-.43-.32-.65,0-.54.54-.86,1.26-.9V204c-.94,0-3.31.11-3.88.11-.75,0-2.44,0-3.41-.11v1.11c2.51,0,2.55,0,4.24,2.19l3.55,4.64-3.37,4.27a5.76,5.76,0,0,1-4.6,2.15v1.12c.93-.07,2-.11,3-.11s2.55.07,3.41.11v-1.12a1,1,0,0,1-1-1.11c0-.79,1-2,3.23-4.56l2.73,3.59c.29.4.76,1,.76,1.19s-.33.86-1.3.89v1.12c1.08,0,3.09-.11,3.88-.11,1,0,2.37,0,3.45.11v-1.12c-1.94,0-2.59-.07-3.41-1.11L709,211"/><path d="M663.62,240.1c-.25.85-1.08,2.21-2.36,2.21a2.71,2.71,0,0,1-1.35-.35,1.49,1.49,0,0,0,1.1-1.38.93.93,0,0,0-1-.93,1.49,1.49,0,0,0-1.43,1.53c0,1.25,1.4,1.83,2.63,1.83a3.37,3.37,0,0,0,2.81-1.78,3.22,3.22,0,0,0,3,1.78c2.88,0,4.41-3.13,4.41-3.84,0-.32-.32-.32-.4-.32-.35,0-.37.12-.47.42a4.07,4.07,0,0,1-3.44,3,1.47,1.47,0,0,1-1.53-1.63,49.19,49.19,0,0,1,1.31-5.72c.5-1.93,1.63-2.55,2.45-2.55a2.79,2.79,0,0,1,1.36.35,1.46,1.46,0,0,0-1.11,1.38.93.93,0,0,0,1,.92,1.46,1.46,0,0,0,1.4-1.53c0-1.4-1.6-1.82-2.61-1.82a3.33,3.33,0,0,0-2.8,1.77,3.24,3.24,0,0,0-3-1.77c-2.81,0-4.41,3.08-4.41,3.83,0,.33.35.33.42.33.33,0,.35-.1.48-.43a4,4,0,0,1,3.43-3c.83,0,1.51.45,1.51,1.65a15,15,0,0,1-.53,2.61l-.85,3.43"/><path d="M689.24,237.09c.4,0,1,0,1-.6s-.57-.62-1-.62h-11.6a7.11,7.11,0,0,1,7.32-6.34h4.28c.4,0,1,0,1-.61s-.57-.62-1-.62h-4.38a8.19,8.19,0,1,0,0,16.36h4.38c.4,0,1,0,1-.6s-.57-.63-1-.63H685a7.11,7.11,0,0,1-7.32-6.34h11.6"/><path d="M698.92,226.47c0,.5,0,.82,1.55,3.36.9,1.4,6.39,9.77,8.2,12h-3.31a1,1,0,0,0,0-.27c0-.38-.28-1.06-1.28-2.76s-6.39-9.85-8.42-12.38h3.21M697,240.65s.05.3.05.35a2.37,2.37,0,0,0,.32.88h-1.62Zm10.17-14.18a12.34,12.34,0,0,0-1.32,1.17,2.12,2.12,0,0,0-.31-1.17Zm-2.73-.88c-.45,0-.83,0-.83.45s.26.4.48.43c.88.1.88,1.1.88,1.2,0,.7-.3,1.08-1,2-.46.62-1,1.35-1.41,1.83-2.45-3.79-2.61-4.24-2.78-4.77a2.8,2.8,0,0,1,1.23-.27c.17,0,.6,0,.6-.43s-.38-.45-.83-.45h-6.44c-.45,0-.83,0-.83.45a.43.43,0,0,0,.38.43,1.45,1.45,0,0,1,1.28.77c1.43,1.81,5,7.17,5.49,7.95L698,238.3c-1.85,2.08-3,3.38-4,3.58-.25.05-.53.1-.53.43s.38.45.83.45h4.29c.45,0,.85,0,.85-.45s-.35-.4-.55-.43c-.93-.15-.93-1.23-.93-1.25a2.12,2.12,0,0,1,.55-1.33c.9-1.08,1.88-2.16,2.83-3.21,2.76,4.19,3,4.86,3.19,5.44a2.86,2.86,0,0,1-1.56.35c-.22,0-.65,0-.65.43s.38.45.83.45h6.69c.45,0,.83,0,.83-.45a.46.46,0,0,0-.4-.43,1.29,1.29,0,0,1-.63-.22c-.35-.33-2-2.64-3-4.17l-3.41-5c0-.08.32-.43.65-.88l1.25-1.63c1.26-1.65,2.56-3.31,4.59-3.48.25,0,.6-.05.6-.43s-.37-.45-.83-.45Z"/><path d="M736.86,205.09H740c.72,0,1.07,0,1.07-.72,0-.39-.35-.39-1-.39h-3l.76-4.1a32.51,32.51,0,0,1,.86-3.73,1.94,1.94,0,0,1,1.69-1.22,2.63,2.63,0,0,1,1.76.65,2,2,0,0,0-1.94,1.93,1.24,1.24,0,0,0,1.33,1.26,2.06,2.06,0,0,0,2-2.15c0-1.66-1.65-2.48-3.12-2.48-1.22,0-3.49.64-4.56,4.2a54,54,0,0,0-1.19,5.64h-2.48c-.68,0-1.07,0-1.07.68,0,.43.32.43,1,.43h2.37l-2.69,14.19c-.65,3.48-1.26,6.75-3.13,6.75a2.55,2.55,0,0,1-1.72-.65,2,2,0,0,0,2-1.94,1.24,1.24,0,0,0-1.33-1.25,2.06,2.06,0,0,0-2,2.15c0,1.62,1.58,2.48,3,2.48,2,0,3.42-2.12,4.06-3.48a31.84,31.84,0,0,0,2-6.86l2.16-11.39"/><path d="M757,228.08c0-.11,0-.18-.62-.79-4.48-4.53-5.63-11.32-5.63-16.81,0-6.25,1.36-12.5,5.78-17,.47-.43.47-.5.47-.61a.33.33,0,0,0-.36-.36c-.36,0-3.59,2.44-5.71,7a27.6,27.6,0,0,0,.1,22.15c2.16,4.42,5.25,6.76,5.61,6.76a.33.33,0,0,0,.36-.36"/><path d="M771,208.61c.22-.93,1-4.24,3.56-4.24a3.48,3.48,0,0,1,1.79.47,2.09,2.09,0,0,0-1.72,1.94A1.25,1.25,0,0,0,776,208,2,2,0,0,0,777.9,206c0-1.87-2.11-2.38-3.33-2.38-2.09,0-3.35,1.91-3.78,2.73a4,4,0,0,0-3.87-2.73c-3.74,0-5.79,4.64-5.79,5.53,0,.36.36.36.43.36.29,0,.4-.07.47-.39,1.22-3.81,3.59-4.71,4.81-4.71.68,0,1.94.33,1.94,2.41,0,1.11-.61,3.52-1.94,8.55-.57,2.23-1.83,3.73-3.41,3.73a3.48,3.48,0,0,1-1.79-.46,2,2,0,0,0,1.68-1.94A1.23,1.23,0,0,0,762,215.4a2,2,0,0,0-2,2.08c0,1.65,1.8,2.37,3.37,2.37,2.38,0,3.67-2.51,3.78-2.73a4,4,0,0,0,3.87,2.73c3.7,0,5.75-4.63,5.75-5.53,0-.36-.32-.36-.43-.36-.32,0-.39.15-.47.4-1.18,3.84-3.62,4.7-4.77,4.7-1.4,0-2-1.15-2-2.37a14.27,14.27,0,0,1,.61-3.16l1.22-4.92"/><path d="M789.86,210.48a26.27,26.27,0,0,0-2.37-11.21c-2.16-4.41-5.25-6.75-5.61-6.75a.35.35,0,0,0-.36.36c0,.11,0,.18.69.83,3.52,3.55,5.56,9.26,5.56,16.77,0,6.14-1.33,12.46-5.78,17-.47.43-.47.5-.47.61a.35.35,0,0,0,.36.36c.36,0,3.6-2.45,5.71-7a26,26,0,0,0,2.27-11"/></g><polygon class="cls-6" points="721.08 296.22 721.08 296.22 721.08 296.22 721.08 296.22 721.08 296.22 721.08 296.22 721.08 296.22 721.08 296.22 721.08 296.22 721.08 296.22 721.08 296.22 721.08 296.22 721.08 296.22 721.08 296.22 721.08 296.22 721.08 296.22 721.08 296.22 721.08 296.22 721.08 296.22 721.08 296.22 721.08 296.22 721.08 296.22 721.08 296.22 721.08 296.22 721.08 296.22 721.08 296.22 721.08 296.22 721.08 296.22 721.08 296.22 721.08 296.22 721.08 296.22 721.08 296.22 721.08 296.22 721.08 296.22 721.08 296.22 721.08 296.22 721.08 296.22 721.08 296.22 721.08 296.22 721.08 296.22 721.08 296.22 721.08 296.22 721.08 296.22 721.08 296.22 721.08 296.22 721.08 296.22 721.08 296.22 721.08 296.22 721.08 296.22 721.08 296.22 721.08 296.22 721.08 296.22 721.08 296.22 721.08 296.22 721.08 296.22 721.08 296.22 721.08 296.22 721.08 296.22 721.08 296.22 721.08 296.22 721.08 296.22 721.08 296.22 721.08 296.22 721.08 296.22 721.08 296.22 721.08 296.22 721.08 296.22 721.08 296.22 721.08 296.22 721.08 296.22 721.08 296.22 721.08 296.22 721.08 296.22 721.08 296.22 721.08 296.22 721.08 296.22 721.08 296.22 721.08 296.22 721.08 296.22 721.08 296.22 721.08 296.22 721.08 296.22 721.08 296.22 721.08 296.22 721.08 296.22 721.08 296.22 721.08 296.22 721.08 296.22 721.08 296.22 721.08 296.22 721.08 296.22 721.08 296.22 721.08 296.22"/><g class="cls-8"><path d="M723.46,61.62h3.09c.71,0,1.07,0,1.07-.72,0-.4-.36-.4-1-.4h-3l.76-4.09a32.23,32.23,0,0,1,.86-3.74A1.94,1.94,0,0,1,727,51.45a2.63,2.63,0,0,1,1.76.65A2,2,0,0,0,726.8,54a1.25,1.25,0,0,0,1.33,1.26,2.07,2.07,0,0,0,2-2.16c0-1.65-1.65-2.48-3.12-2.48-1.22,0-3.49.65-4.56,4.2a55.71,55.71,0,0,0-1.19,5.64h-2.48c-.68,0-1.07,0-1.07.68,0,.44.32.44,1,.44h2.37L718.36,75.8c-.65,3.49-1.26,6.75-3.13,6.75a2.58,2.58,0,0,1-1.72-.64,2,2,0,0,0,2-1.94,1.25,1.25,0,0,0-1.33-1.26,2.06,2.06,0,0,0-2,2.16c0,1.61,1.58,2.47,3.05,2.47,2,0,3.42-2.12,4.06-3.48a31.68,31.68,0,0,0,2-6.86l2.16-11.38"/></g><polygon class="cls-6" points="721.08 132.93 721.08 132.93 721.08 132.93 721.08 132.93 721.08 132.93 721.08 132.93 721.08 132.93 721.08 132.93 721.08 132.93 721.08 132.93 721.08 132.93 721.08 132.93 721.08 132.93 721.08 132.93 721.08 132.93 721.08 132.93 721.08 132.93 721.08 132.93 721.08 132.93 721.08 132.93 721.08 132.93 721.08 132.93 721.08 132.93 721.08 132.93 721.08 132.93 721.08 132.93 721.08 132.93 721.08 132.93 721.08 132.93 721.08 132.93 721.08 132.93 721.08 132.93 721.08 132.93 721.08 132.93 721.08 132.93 721.08 132.93 721.08 132.93 721.08 132.93 721.08 132.93 721.08 132.93 721.08 132.93 721.08 132.93 721.08 132.93 721.08 132.93 721.08 132.93 721.08 132.93 721.08 132.93 721.08 132.93 721.08 132.93 721.08 132.93 721.08 132.93 721.08 132.93 721.08 132.93 721.08 132.93 721.08 132.93 721.08 132.93 721.08 132.93 721.08 132.93 721.08 132.93 721.08 132.93 721.08 132.93 721.08 132.93 721.08 132.93 721.08 132.93 721.08 132.93 721.08 132.93 721.08 132.93 721.08 132.93 721.08 132.93 721.08 132.93 721.08 132.93 721.08 132.93 721.08 132.93 721.08 132.93 721.08 132.93 721.08 132.93 721.08 132.93 721.08 132.93 721.08 132.93 721.08 132.93 721.08 132.93 721.08 132.93 721.08 132.93 721.08 132.93 721.08 132.93 721.08 132.93 721.08 132.93"/><g class="cls-9"><path d="M548.69,130c.22-.94,1-4.24,3.56-4.24a3.48,3.48,0,0,1,1.79.47,2.08,2.08,0,0,0-1.72,1.93,1.25,1.25,0,0,0,1.36,1.26,2,2,0,0,0,1.94-2.08c0-1.87-2.12-2.37-3.34-2.37-2.08,0-3.34,1.9-3.77,2.73a4,4,0,0,0-3.88-2.73c-3.73,0-5.78,4.63-5.78,5.53,0,.36.36.36.43.36.29,0,.4-.07.47-.4,1.22-3.8,3.59-4.7,4.81-4.7.68,0,1.94.32,1.94,2.4,0,1.12-.61,3.53-1.94,8.55-.57,2.23-1.83,3.74-3.41,3.74a3.45,3.45,0,0,1-1.8-.47A2,2,0,0,0,541,138a1.22,1.22,0,0,0-1.33-1.25,2,2,0,0,0-2,2.08c0,1.65,1.79,2.37,3.37,2.37,2.37,0,3.67-2.52,3.78-2.73a4,4,0,0,0,3.87,2.73c3.7,0,5.75-4.63,5.75-5.53,0-.36-.32-.36-.43-.36-.32,0-.4.14-.47.39-1.18,3.85-3.63,4.71-4.77,4.71-1.4,0-2-1.15-2-2.37a14.27,14.27,0,0,1,.61-3.16l1.22-4.92"/></g><polygon class="cls-6" points="540.9 132.93 540.9 132.93 540.9 132.93 540.9 132.93 540.9 132.93 540.9 132.93 540.9 132.93 540.9 132.93 540.9 132.93 540.9 132.93 540.9 132.93 540.9 132.93 540.9 132.93 540.9 132.93 540.9 132.93 540.9 132.93 540.9 132.93 540.9 132.93 540.9 132.93 540.9 132.93 540.9 132.93 540.9 132.93 540.9 132.93 540.9 132.93 540.9 132.93 540.9 132.93 540.9 132.93 540.9 132.93 540.9 132.93 540.9 132.93 540.9 132.93 540.9 132.93 540.9 132.93 540.9 132.93 540.9 132.93 540.9 132.93 540.9 132.93 540.9 132.93 540.9 132.93 540.9 132.93 540.9 132.93 540.9 132.93 540.9 132.93 540.9 132.93 540.9 132.93 540.9 132.93 540.9 132.93 540.9 132.93 540.9 132.93 540.9 132.93 540.9 132.93 540.9 132.93 540.9 132.93 540.9 132.93 540.9 132.93 540.9 132.93 540.9 132.93 540.9 132.93 540.9 132.93 540.9 132.93 540.9 132.93 540.9 132.93 540.9 132.93 540.9 132.93 540.9 132.93 540.9 132.93 540.9 132.93 540.9 132.93 540.9 132.93 540.9 132.93 540.9 132.93 540.9 132.93 540.9 132.93 540.9 132.93 540.9 132.93 540.9 132.93 540.9 132.93 540.9 132.93 540.9 132.93 540.9 132.93 540.9 132.93 540.9 132.93 540.9 132.93 540.9 132.93 540.9 132.93 540.9 132.93 540.9 132.93"/><g class="cls-10"><path d="M901.86,123.65a2.3,2.3,0,0,0,.14-.83,1,1,0,0,0-1-1,1.58,1.58,0,0,0-1.26.76c-.07.18-.36,1.29-.5,1.94-.25.93-.5,1.9-.72,2.87l-1.61,6.46c-.15.54-1.69,3.06-4.06,3.06-1.83,0-2.23-1.58-2.23-2.91,0-1.65.61-3.88,1.83-7a6.4,6.4,0,0,0,.72-2.59,2.85,2.85,0,0,0-2.94-2.94c-3.42,0-4.74,5.21-4.74,5.53s.35.36.43.36c.35,0,.39-.07.57-.65,1-3.37,2.41-4.45,3.63-4.45.29,0,.9,0,.9,1.15a7.58,7.58,0,0,1-.61,2.51c-1.44,3.81-2.09,5.86-2.09,7.54,0,3.2,2.26,4.28,4.38,4.28a5.07,5.07,0,0,0,3.63-1.62,13.88,13.88,0,0,1-2.33,5.53,5.16,5.16,0,0,1-4,2.26,2.89,2.89,0,0,1-2.73-1.5,2,2,0,0,0,1.54-.43,2,2,0,0,0,.72-1.48,1.22,1.22,0,0,0-1.33-1.25,2.06,2.06,0,0,0-2,2.33c0,1.8,1.58,3.13,3.81,3.13,3.69,0,7.39-3.27,8.4-7.33l3.45-13.72"/></g><polygon class="cls-6" points="899.9 132.93 899.9 132.93 899.9 132.93 899.9 132.93 899.9 132.93 899.9 132.93 899.9 132.93 899.9 132.93 899.9 132.93 899.9 132.93 899.9 132.93 899.9 132.93 899.9 132.93 899.9 132.93 899.9 132.93 899.9 132.93 899.9 132.93 899.9 132.93 899.9 132.93 899.9 132.93 899.9 132.93 899.9 132.93 899.9 132.93 899.9 132.93 899.9 132.93 899.9 132.93 899.9 132.93 899.9 132.93 899.9 132.93 899.9 132.93 899.9 132.93 899.9 132.93 899.9 132.93 899.9 132.93 899.9 132.93 899.9 132.93 899.9 132.93 899.9 132.93 899.9 132.93 899.9 132.93 899.9 132.93 899.9 132.93 899.9 132.93 899.9 132.93 899.9 132.93 899.9 132.93 899.9 132.93 899.9 132.93 899.9 132.93 899.9 132.93 899.9 132.93 899.9 132.93 899.9 132.93 899.9 132.93 899.9 132.93 899.9 132.93 899.9 132.93 899.9 132.93 899.9 132.93 899.9 132.93 899.9 132.93 899.9 132.93 899.9 132.93 899.9 132.93 899.9 132.93 899.9 132.93 899.9 132.93 899.9 132.93 899.9 132.93 899.9 132.93 899.9 132.93 899.9 132.93 899.9 132.93 899.9 132.93 899.9 132.93 899.9 132.93 899.9 132.93 899.9 132.93 899.9 132.93 899.9 132.93 899.9 132.93 899.9 132.93 899.9 132.93 899.9 132.93 899.9 132.93 899.9 132.93 899.9 132.93"/></svg>