<svg id="Layer_1" data-name="Layer 1" xmlns="http://www.w3.org/2000/svg" xmlns:xlink="http://www.w3.org/1999/xlink" viewBox="0 0 1440 620.31"><defs><style>.cls-1,.cls-15,.cls-21,.cls-5{fill:none;}.cls-2{fill:#576370;}.cls-3{font-size:26.22px;font-family:FreightSansProSemibold-Regular, FreightSans Pro;}.cls-3,.cls-4{fill:#fff;}.cls-5{stroke:#a9a9a9;stroke-width:2px;}.cls-15,.cls-21,.cls-5{stroke-miterlimit:10;}.cls-6{fill:#a9a9a9;}.cls-7{letter-spacing:-0.01em;}.cls-8{letter-spacing:0em;}.cls-9{font-size:16.67px;fill:#777;font-family:FreightSansProBold-Regular, FreightSans Pro;letter-spacing:0.02em;}.cls-10{letter-spacing:0.01em;}.cls-11{letter-spacing:0.02em;}.cls-12{letter-spacing:-0.05em;}.cls-13{letter-spacing:0.02em;}.cls-14{letter-spacing:0.03em;}.cls-15,.cls-21{stroke:#000;}.cls-15{stroke-width:0px;opacity:0;}.cls-16{clip-path:url(#clip-path);}.cls-17{clip-path:url(#clip-path-2);}.cls-18{clip-path:url(#clip-path-3);}.cls-19{clip-path:url(#clip-path-4);}.cls-20{clip-path:url(#clip-path-5);}.cls-21{stroke-width:1.43px;}.cls-22{clip-path:url(#clip-path-6);}.cls-23{clip-path:url(#clip-path-7);}.cls-24{clip-path:url(#clip-path-8);}.cls-25{clip-path:url(#clip-path-9);}</style><clipPath id="clip-path"><rect class="cls-1" x="112.3" y="224.97" width="30" height="25"/></clipPath><clipPath id="clip-path-2"><rect class="cls-1" x="274.02" y="112.97" width="27" height="25"/></clipPath><clipPath id="clip-path-3"><rect class="cls-1" x="492.95" y="360.56" width="26" height="22"/></clipPath><clipPath id="clip-path-4"><rect class="cls-1" x="563" y="360.56" width="37" height="22"/></clipPath><clipPath id="clip-path-5"><rect class="cls-1" x="1079.63" y="205.9" width="80" height="79.14"/></clipPath><clipPath id="clip-path-6"><rect class="cls-1" x="1259.52" y="222.94" width="79" height="37"/></clipPath><clipPath id="clip-path-7"><rect class="cls-1" x="830.76" y="82.94" width="74" height="37"/></clipPath><clipPath id="clip-path-8"><rect class="cls-1" x="824.76" y="351.94" width="86" height="37"/></clipPath><clipPath id="clip-path-9"><rect class="cls-1" x="453.22" y="234.83" width="179" height="37"/></clipPath></defs><title>mc</title><rect class="cls-2" x="218.8" y="203.03" width="132.31" height="66.46" rx="11.91"/><text class="cls-3" transform="translate(250.26 244.41)">Model</text><rect class="cls-2" x="400.99" y="434.54" width="282.31" height="96.46" rx="11.91"/><path class="cls-4" d="M456.72,477.41l-1.31,2.68-7.16-3.8-.52,0c-4.85,0-8.42-3.17-8.42-8.54a8.25,8.25,0,0,1,8.44-8.63c4.83,0,8.39,3.15,8.39,8.52a8.27,8.27,0,0,1-4.27,7.5Zm-9-15.59c-3.12,0-5.14,2.36-5.14,5.84s2,6,5.24,6,5.16-2.38,5.16-5.92S450.87,461.82,447.68,461.82Z"/><path class="cls-4" d="M461.89,463.84v7.36c0,1.78.73,2.36,2,2.36a4,4,0,0,0,2.65-1.05v-8.67h3.09v12l-3.09.42v-1.78a5.57,5.57,0,0,1-4,1.83c-2.36,0-3.8-1.57-3.8-4.16v-8.31Z"/><path class="cls-4" d="M479.32,474.53a4.26,4.26,0,0,1-3.41,1.78,3.51,3.51,0,0,1-3.75-3.4c0-2.23,1.63-4.12,7.16-4.3v-.29c0-1.63-.68-2.31-2.41-2.31a8.69,8.69,0,0,0-4,1.29l-.63-2.44a10,10,0,0,1,5.06-1.42c3.72,0,5.16,1.65,5.08,5v4.33c0,.92.16,1.05,1.08,1.1l-.24,2.33c-2.31.27-3.38-.44-3.83-1.65Zm0-4.3c-3,.37-4.12,1-4.12,2.26a1.62,1.62,0,0,0,1.81,1.57,3.11,3.11,0,0,0,2.31-1.05Z"/><path class="cls-4" d="M489.33,476.34a10.54,10.54,0,0,1-4.69-1.13l.68-2.41a8.86,8.86,0,0,0,4.09,1.13c1.21,0,2-.5,2-1.34s-1-1.28-2.44-1.62c-2.28-.53-4.09-1.47-4.09-3.75s1.91-3.78,4.82-3.78a10.79,10.79,0,0,1,4.41,1l-.69,2.41a9.34,9.34,0,0,0-3.8-1c-1.12,0-1.81.42-1.81,1.2s1,1.24,2.44,1.58c2.31.55,4.12,1.44,4.12,3.8S492.43,476.34,489.33,476.34Z"/><path class="cls-4" d="M498.43,461.63a1.86,1.86,0,1,1,0-3.72,1.86,1.86,0,1,1,0,3.72Zm-1.54,14.29v-12l3.09-.44v12.45Z"/><path class="cls-4" d="M502.42,470.89v-2.65h7.39v2.65Z"/><path class="cls-4" d="M527.14,462.79l-4.27,12.89h-3.36l-4.3-12.89-.16,13.13h-3l.55-16.38H517l4.22,12.89,4.22-12.89h4.38l.52,16.38h-3.09Z"/><path class="cls-4" d="M538.89,476.31c-3.54,0-6.11-2.41-6.11-6.42a6.07,6.07,0,0,1,6.26-6.47c3.57,0,6.11,2.46,6.11,6.44A6.08,6.08,0,0,1,538.89,476.31Zm.05-10.4c-2,0-3.12,1.62-3.12,3.95S537,473.8,539,473.8s3.09-1.58,3.09-3.91S540.93,465.91,538.94,465.91Z"/><path class="cls-4" d="M555.61,475.92v-7.37c0-1.78-.71-2.38-2.1-2.38a4,4,0,0,0-2.67,1.13v8.62h-3.09v-12l3.09-.42v1.91a5.55,5.55,0,0,1,4-1.94c2.43,0,3.88,1.58,3.88,4.17v8.31Z"/><path class="cls-4" d="M566.2,476.31c-2.7,0-4.11-1.18-4-4.09l.19-5.68-1.89-.21.08-2,1.88-.6.06-2.68h3l-.06,2.83h3.41l-.08,2.55h-3.51L565.1,472a1.42,1.42,0,0,0,1.6,1.65,6.32,6.32,0,0,0,1.89-.36l.42,2.51A8.09,8.09,0,0,1,566.2,476.31Z"/><path class="cls-4" d="M573.52,470.55a3.37,3.37,0,0,0,3.62,3.3,7.44,7.44,0,0,0,3.77-1.1l.39,2.57a9.43,9.43,0,0,1-4.37,1c-3.88,0-6.45-2.46-6.45-6.31s2.62-6.56,6.24-6.56c3.19,0,5,1.94,5,4.9a8.31,8.31,0,0,1-.26,2l-7.92.11Zm5.27-1.92v-.21c0-1.62-.71-2.64-2.31-2.64a3,3,0,0,0-2.88,2.88Z"/><path class="cls-4" d="M602.54,463.21a7.59,7.59,0,0,0-4.3-1.31c-3.2,0-5.32,2.2-5.32,5.76s2.07,5.9,5.37,5.9a8,8,0,0,0,4.49-1.47l.6,2.94a10.86,10.86,0,0,1-5.22,1.28c-5,0-8.47-3.17-8.47-8.54s3.44-8.63,8.55-8.63a11.37,11.37,0,0,1,5.3,1.29Z"/><path class="cls-4" d="M612.5,474.53a4.24,4.24,0,0,1-3.4,1.78,3.5,3.5,0,0,1-3.75-3.4c0-2.23,1.62-4.12,7.15-4.3v-.29c0-1.63-.68-2.31-2.41-2.31a8.73,8.73,0,0,0-4,1.29l-.63-2.44a10,10,0,0,1,5.06-1.42c3.72,0,5.17,1.65,5.09,5v4.33c0,.92.15,1.05,1.07,1.1l-.23,2.33c-2.31.27-3.39-.44-3.83-1.65Zm0-4.3c-3,.37-4.11,1-4.11,2.26a1.62,1.62,0,0,0,1.81,1.57,3.09,3.09,0,0,0,2.3-1.05Z"/><path class="cls-4" d="M621.86,475.92h-3.09v-12l3.09-.44v2a3.49,3.49,0,0,1,3.15-2,4.23,4.23,0,0,1,2.15.55l-.68,2.78a3.66,3.66,0,0,0-1.73-.47c-1.08,0-2.07.68-2.89,2.15Z"/><path class="cls-4" d="M629,475.92V458.41l3.09-.42v17.93Z"/><path class="cls-4" d="M640.82,476.31c-3.54,0-6.11-2.41-6.11-6.42a6.07,6.07,0,0,1,6.27-6.47c3.56,0,6.1,2.46,6.1,6.44A6.07,6.07,0,0,1,640.82,476.31Zm0-10.4c-2,0-3.12,1.62-3.12,3.95s1.15,3.94,3.17,3.94,3.1-1.58,3.1-3.91S642.86,465.91,640.87,465.91Z"/><path class="cls-4" d="M506.86,502.9c0-1.36-1.23-1.86-3.64-2.52s-5.09-1.7-5.09-4.93c0-2.91,2.23-4.85,5.87-4.85a11.18,11.18,0,0,1,5.64,1.45l-.79,2.7a9.88,9.88,0,0,0-4.82-1.42c-1.91,0-2.75.81-2.75,1.94,0,1.34,1.47,1.86,3.72,2.46,2.46.69,5,1.81,5,4.93s-2.39,5.12-6.24,5.12a11.67,11.67,0,0,1-5.9-1.53l.73-2.75a10,10,0,0,0,5.22,1.57C505.6,505.07,506.86,504.21,506.86,502.9Z"/><path class="cls-4" d="M519.05,506a4.26,4.26,0,0,1-3.41,1.79,3.51,3.51,0,0,1-3.74-3.41c0-2.23,1.62-4.12,7.15-4.3v-.29c0-1.63-.68-2.31-2.41-2.31a8.69,8.69,0,0,0-4,1.29l-.63-2.44a10,10,0,0,1,5.06-1.42c3.72,0,5.16,1.66,5.09,5v4.33c0,.92.15,1.05,1.07,1.1l-.24,2.33c-2.3.27-3.38-.44-3.82-1.65Zm0-4.3c-3,.37-4.11,1-4.11,2.26a1.61,1.61,0,0,0,1.8,1.57,3.11,3.11,0,0,0,2.31-1Z"/><path class="cls-4" d="M540.5,507.38V500c0-1.78-.71-2.41-2-2.41A3.86,3.86,0,0,0,536,498.7v8.68h-3.1V500c0-1.78-.68-2.41-2-2.41a3.55,3.55,0,0,0-2.52,1v8.75h-3.09v-12l3.09-.42v1.7a5.3,5.3,0,0,1,3.86-1.73,3.45,3.45,0,0,1,3.3,2.07,5.77,5.77,0,0,1,4.3-2.07c2.28,0,3.72,1.58,3.72,4.2v8.28Z"/><path class="cls-4" d="M553.26,494.9c3.2,0,5.3,2.6,5.3,6.32s-2.67,6.53-6.11,6.53a9.76,9.76,0,0,1-2.57-.34v5.74h-3.09v-17.8l3.09-.42v1.52A4.85,4.85,0,0,1,553.26,494.9Zm-3.38,9.7a3.68,3.68,0,0,0,2.28.68c2.07,0,3.25-1.67,3.25-3.93s-1.12-3.85-3-3.85a3.63,3.63,0,0,0-2.49,1Z"/><path class="cls-4" d="M561.16,507.38V489.87l3.09-.42v17.93Z"/><path class="cls-4" d="M569.89,502a3.36,3.36,0,0,0,3.61,3.3,7.45,7.45,0,0,0,3.78-1.1l.39,2.57a9.44,9.44,0,0,1-4.38,1c-3.88,0-6.44-2.47-6.44-6.32s2.62-6.56,6.23-6.56c3.2,0,5,1.94,5,4.91a7.82,7.82,0,0,1-.27,2l-7.91.11Zm5.27-1.92v-.21c0-1.62-.71-2.64-2.31-2.64a3,3,0,0,0-2.88,2.88Z"/><path class="cls-4" d="M583.73,507.38h-3.09v-12l3.09-.45v2a3.49,3.49,0,0,1,3.15-2,4.17,4.17,0,0,1,2.14.55l-.68,2.78a3.6,3.6,0,0,0-1.73-.47c-1.07,0-2.07.68-2.88,2.15Z"/><line class="cls-5" x1="393.5" y1="236.37" x2="351.1" y2="236.37"/><polygon class="cls-6" points="392.76 241.84 392.76 230.9 398.23 236.37 392.76 241.84"/><line class="cls-5" x1="193.14" y1="237.37" x2="150.74" y2="237.37"/><polygon class="cls-6" points="192.41 242.84 192.41 231.9 197.87 237.37 192.41 242.84"/><line class="cls-5" x1="1237.94" y1="242.37" x2="1175.54" y2="242.37"/><polygon class="cls-6" points="1237.2 247.84 1237.2 236.9 1242.67 242.37 1237.2 247.84"/><rect class="cls-2" x="415.46" y="179.14" width="254.31" height="116.46" rx="11.91"/><text class="cls-3" transform="translate(490.97 216.95)"><tspan class="cls-7">P</tspan><tspan x="14.45" y="0">os</tspan><tspan class="cls-8" x="40.01" y="0">t</tspan><tspan x="49.26" y="0">erior</tspan></text><line class="cls-5" x1="511.05" y1="434.54" x2="511.05" y2="399.66"/><line class="cls-5" x1="532.26" y1="434.54" x2="532.26" y2="399.66"/><line class="cls-5" x1="553.47" y1="434.54" x2="553.47" y2="399.66"/><line class="cls-5" x1="574.68" y1="434.54" x2="574.68" y2="399.66"/><line class="cls-5" x1="511.05" y1="346.64" x2="511.05" y2="316.49"/><polygon class="cls-6" points="505.58 317.22 516.52 317.22 511.05 311.75 505.58 317.22"/><line class="cls-5" x1="532.26" y1="346.64" x2="532.26" y2="316.49"/><polygon class="cls-6" points="526.79 317.22 537.73 317.22 532.26 311.75 526.79 317.22"/><line class="cls-5" x1="553.47" y1="346.64" x2="553.47" y2="316.49"/><polygon class="cls-6" points="548 317.22 558.93 317.22 553.47 311.75 548 317.22"/><line class="cls-5" x1="574.68" y1="346.64" x2="574.68" y2="316.49"/><polygon class="cls-6" points="569.21 317.22 580.14 317.22 574.68 311.75 569.21 317.22"/><text class="cls-9" transform="translate(301.48 161.55)">T<tspan class="cls-10" x="10.37" y="0">R</tspan><tspan x="20.76" y="0">AINING </tspan><tspan class="cls-11"><tspan x="0" y="24">D</tspan><tspan class="cls-12" x="11.6" y="24">AT</tspan><tspan class="cls-13" x="30.81" y="24">A</tspan></tspan></text><text class="cls-9" transform="translate(71.04 284.82)">CANDI<tspan class="cls-11" x="50.66" y="0">D</tspan><tspan class="cls-12" x="62.26" y="0">A</tspan><tspan x="72.21" y="0">TE </tspan><tspan x="31.24" y="24">SET</tspan></text><text class="cls-9" transform="translate(1234.34 284.83)">UTILI<tspan class="cls-14" x="41.3" y="0">T</tspan><tspan class="cls-13" x="51.83" y="0">Y OF THE </tspan><tspan x="-0.85" y="24">CANDI</tspan><tspan class="cls-11" x="49.81" y="24">D</tspan><tspan class="cls-12" x="61.41" y="24">A</tspan><tspan x="71.36" y="24">TE SET</tspan></text><line class="cls-5" x1="284.95" y1="186.5" x2="284.95" y2="148.24"/><polygon class="cls-6" points="280.94 185.96 288.96 185.96 284.95 189.97 280.94 185.96"/><circle class="cls-2" cx="869.89" cy="196.43" r="3.78"/><circle class="cls-2" cx="869.89" cy="236.58" r="3.78"/><circle class="cls-2" cx="869.89" cy="276.72" r="3.78"/><circle class="cls-2" cx="551.53" cy="373.53" r="2.4"/><circle class="cls-2" cx="539.74" cy="373.53" r="2.4"/><circle class="cls-2" cx="527.95" cy="373.53" r="2.4"/><path class="cls-5" d="M697.8,236.58c54.62,0,57.56-55.4,107.23-55.4h2.85"/><polygon class="cls-6" points="807.15 175.71 807.15 186.65 812.61 181.18 807.15 175.71"/><path class="cls-5" d="M697.8,237.13c54.62,0,57.56,55.4,107.23,55.4h2.85"/><polygon class="cls-6" points="807.15 287.06 807.15 298 812.61 292.53 807.15 287.06"/><path class="cls-5" d="M691.43,237.2c69.6,0,25.74-134.27,113.55-134.27h2.9"/><polygon class="cls-6" points="807.15 97.47 807.15 108.4 812.61 102.93 807.15 97.47"/><path class="cls-5" d="M807.88,371.51H805c-87.81,0-44-134.26-113.55-134.26H669.76"/><polygon class="cls-6" points="807.15 376.98 807.15 366.04 812.61 371.51 807.15 376.98"/><path class="cls-5" d="M1037.86,236.58c-54.61,0-57.55-55.4-107.22-55.4h-7.59"/><path class="cls-5" d="M1037.86,237.13c-54.61,0-57.55,55.4-107.22,55.4h-7.59"/><path class="cls-5" d="M1044.23,237.2c-69.6,0-25.73-134.27-113.55-134.27h-7.63"/><path class="cls-5" d="M923.05,371.51h7.63c87.82,0,44-134.26,113.55-134.26h16.94"/><polygon class="cls-6" points="1060.44 231.78 1060.44 242.71 1065.9 237.25 1060.44 231.78"/><polygon class="cls-15" points="1010.5 509.83 1010.5 509.83 1010.5 509.83 1010.5 509.83 1010.5 509.83 1010.5 509.83 1010.5 509.83 1010.5 509.83 1010.5 509.83 1010.5 509.83 1010.5 509.83 1010.5 509.83 1010.5 509.83 1010.5 509.83 1010.5 509.83 1010.5 509.83 1010.5 509.83 1010.5 509.83 1010.5 509.83 1010.5 509.83 1010.5 509.83 1010.5 509.83 1010.5 509.83 1010.5 509.83 1010.5 509.83 1010.5 509.83 1010.5 509.83 1010.5 509.83 1010.5 509.83 1010.5 509.83 1010.5 509.83 1010.5 509.83 1010.5 509.83 1010.5 509.83 1010.5 509.83 1010.5 509.83 1010.5 509.83 1010.5 509.83 1010.5 509.83 1010.5 509.83 1010.5 509.83 1010.5 509.83 1010.5 509.83 1010.5 509.83 1010.5 509.83 1010.5 509.83 1010.5 509.83 1010.5 509.83 1010.5 509.83 1010.5 509.83 1010.5 509.83 1010.5 509.83 1010.5 509.83 1010.5 509.83 1010.5 509.83 1010.5 509.83 1010.5 509.83 1010.5 509.83 1010.5 509.83 1010.5 509.83 1010.5 509.83 1010.5 509.83 1010.5 509.83 1010.5 509.83 1010.5 509.83 1010.5 509.83 1010.5 509.83 1010.5 509.83 1010.5 509.83 1010.5 509.83 1010.5 509.83 1010.5 509.83 1010.5 509.83 1010.5 509.83 1010.5 509.83 1010.5 509.83 1010.5 509.83 1010.5 509.83 1010.5 509.83 1010.5 509.83 1010.5 509.83 1010.5 509.83 1010.5 509.83 1010.5 509.83 1010.5 509.83 1010.5 509.83 1010.5 509.83 1010.5 509.83 1010.5 509.83 1010.5 509.83 1010.5 509.83 1010.5 509.83 1010.5 509.83 1010.5 509.83 1010.5 509.83 1010.5 509.83 1010.5 509.83 1010.5 509.83 1010.5 509.83 1010.5 509.83 1010.5 509.83 1010.5 509.83 1010.5 509.83 1010.5 509.83 1010.5 509.83 1010.5 509.83 1010.5 509.83 1010.5 509.83 1010.5 509.83 1010.5 509.83 1010.5 509.83 1010.5 509.83 1010.5 509.83 1010.5 509.83"/><g class="cls-16"><path d="M129,234.81l-3-7.14c-.1-.29-.18-.44-.18-.47,0-.22.61-.9,2.12-1,.36,0,.72-.07.72-.68,0-.44-.43-.44-.54-.44-1.47,0-3,.11-4.52.11-.9,0-3.13-.11-4-.11-.22,0-.65,0-.65.72,0,.4.36.4.82.4,2.16,0,2.38.36,2.7,1.15l4.24,10-7.58,8.15-.47.39a7.25,7.25,0,0,1-5.28,2.59c-.47,0-.79,0-.79.72,0,0,0,.39.47.39,1.08,0,2.26-.1,3.37-.1,1.33,0,2.73.1,4,.1.21,0,.64,0,.64-.72,0-.35-.36-.39-.43-.39-.32,0-1.43-.11-1.43-1.11a2.85,2.85,0,0,1,1-1.62l3.67-3.88,3.23-3.52,3.63,8.59a3.07,3.07,0,0,1,.18.5c0,.29-.69.9-2.09,1-.39,0-.71.07-.71.68,0,.43.39.43.54.43,1,0,3.51-.1,4.52-.1s3.09.1,4,.1c.25,0,.68,0,.68-.68,0-.43-.36-.43-.65-.43-2.4,0-2.48-.14-3.09-1.58-1.4-3.34-3.8-8.94-4.63-11.1,2.44-2.51,6.21-6.78,7.36-7.79a7.38,7.38,0,0,1,4.57-1.83c.46,0,.78,0,.78-.72,0,0,0-.4-.46-.4-1.08,0-2.27.11-3.38.11-1.33,0-2.69-.11-4-.11-.22,0-.69,0-.69.72,0,.25.18.36.43.4s1.44.11,1.44,1.11a2.15,2.15,0,0,1-.68,1.29L129,234.81"/></g><polygon class="cls-15" points="129 235.83 129 235.83 129 235.83 129 235.83 129 235.83 129 235.83 129 235.83 129 235.83 129 235.83 129 235.83 129 235.83 129 235.83 129 235.83 129 235.83 129 235.83 129 235.83 129 235.83 129 235.83 129 235.83 129 235.83 129 235.83 129 235.83 129 235.83 129 235.83 129 235.83 129 235.83 129 235.83 129 235.83 129 235.83 129 235.83 129 235.83 129 235.83 129 235.83 129 235.83 129 235.83 129 235.83 129 235.83 129 235.83 129 235.83 129 235.83 129 235.83 129 235.83 129 235.83 129 235.83 129 235.83 129 235.83 129 235.83 129 235.83 129 235.83 129 235.83 129 235.83 129 235.83 129 235.83 129 235.83 129 235.83 129 235.83 129 235.83 129 235.83 129 235.83 129 235.83 129 235.83 129 235.83 129 235.83 129 235.83 129 235.83 129 235.83 129 235.83 129 235.83 129 235.83 129 235.83 129 235.83 129 235.83 129 235.83 129 235.83 129 235.83 129 235.83 129 235.83 129 235.83 129 235.83 129 235.83 129 235.83 129 235.83 129 235.83 129 235.83 129 235.83 129 235.83 129 235.83"/><g class="cls-17"><path d="M280.82,135.6A70.7,70.7,0,0,0,286.18,115c2.4,0,11.6,0,11.6,7.9,0,7-6.33,12.68-15,12.68h-1.94m-.18,2c8.37,0,20.19-6.39,20.19-16.19a7.12,7.12,0,0,0-3.27-6.33c-3.09-2-6.39-2-9.8-2-3.09,0-5.21,0-8.23,1.3-4.78,2.12-5.46,5.1-5.46,5.38s.15.29.36.29a4,4,0,0,0,1.69-.68,2.06,2.06,0,0,0,1.08-1.4c.5-1.44,1.51-2.7,6-2.91a69.58,69.58,0,0,1-4.92,20.65c-1.33.47-2.19,1.29-2.19,1.65s0,.25.82.25Z"/></g><polygon class="cls-15" points="289.5 125.83 289.5 125.83 289.5 125.83 289.5 125.83 289.5 125.83 289.5 125.83 289.5 125.83 289.5 125.83 289.5 125.83 289.5 125.83 289.5 125.83 289.5 125.83 289.5 125.83 289.5 125.83 289.5 125.83 289.5 125.83 289.5 125.83 289.5 125.83 289.5 125.83 289.5 125.83 289.5 125.83 289.5 125.83 289.5 125.83 289.5 125.83 289.5 125.83 289.5 125.83 289.5 125.83 289.5 125.83 289.5 125.83 289.5 125.83 289.5 125.83 289.5 125.83 289.5 125.83 289.5 125.83 289.5 125.83 289.5 125.83 289.5 125.83 289.5 125.83 289.5 125.83 289.5 125.83 289.5 125.83 289.5 125.83 289.5 125.83 289.5 125.83 289.5 125.83 289.5 125.83 289.5 125.83 289.5 125.83 289.5 125.83 289.5 125.83 289.5 125.83 289.5 125.83 289.5 125.83 289.5 125.83 289.5 125.83 289.5 125.83 289.5 125.83 289.5 125.83 289.5 125.83 289.5 125.83 289.5 125.83 289.5 125.83 289.5 125.83 289.5 125.83 289.5 125.83 289.5 125.83 289.5 125.83 289.5 125.83 289.5 125.83 289.5 125.83 289.5 125.83 289.5 125.83 289.5 125.83 289.5 125.83 289.5 125.83 289.5 125.83 289.5 125.83 289.5 125.83 289.5 125.83 289.5 125.83 289.5 125.83 289.5 125.83 289.5 125.83 289.5 125.83 289.5 125.83 289.5 125.83 289.5 125.83 289.5 125.83 289.5 125.83"/><g class="cls-18"><path d="M503,368.24c.57,0,1.22,0,1.22-.61s-.43-.5-1-.5h-5.82c.86-3.05,2.87-5.14,6.14-5.14h1.11c.61,0,1.19,0,1.19-.61s-.47-.5-1.08-.5h-1.26c-4.67,0-9.48,3.59-9.48,9.09,0,3.95,2.7,6.78,6.5,6.78,2.34,0,4.67-1.43,4.67-1.83,0-.1,0-.5-.36-.5-.07,0-.14,0-.46.22a7.36,7.36,0,0,1-3.78,1.32c-2.08,0-3.87-1.5-3.87-4.66a14.29,14.29,0,0,1,.39-3.06H503"/><path d="M515.15,365.82c0-.68,0-.7-.75-.7a6.84,6.84,0,0,1-4.91,1.6v.9a8.27,8.27,0,0,0,3.63-.7V379.7c0,.83,0,1.16-2.51,1.16h-.95v.9c.45,0,3.53-.1,4.46-.1s3.94.07,4.49.1v-.9h-1c-2.51,0-2.51-.33-2.51-1.16V365.82"/></g><polygon class="cls-15" points="511 373.33 511 373.33 511 373.33 511 373.33 511 373.33 511 373.33 511 373.33 511 373.33 511 373.33 511 373.33 511 373.33 511 373.33 511 373.33 511 373.33 511 373.33 511 373.33 511 373.33 511 373.33 511 373.33 511 373.33 511 373.33 511 373.33 511 373.33 511 373.33 511 373.33 511 373.33 511 373.33 511 373.33 511 373.33 511 373.33 511 373.33 511 373.33 511 373.33 511 373.33 511 373.33 511 373.33 511 373.33 511 373.33 511 373.33 511 373.33 511 373.33 511 373.33 511 373.33 511 373.33 511 373.33 511 373.33 511 373.33 511 373.33 511 373.33 511 373.33 511 373.33 511 373.33 511 373.33 511 373.33 511 373.33 511 373.33 511 373.33 511 373.33 511 373.33 511 373.33 511 373.33 511 373.33 511 373.33 511 373.33 511 373.33 511 373.33 511 373.33 511 373.33 511 373.33 511 373.33 511 373.33 511 373.33 511 373.33 511 373.33 511 373.33 511 373.33 511 373.33 511 373.33 511 373.33 511 373.33 511 373.33 511 373.33 511 373.33 511 373.33 511 373.33 511 373.33 511 373.33 511 373.33 511 373.33"/><g class="cls-19"><path d="M572,368.24c.58,0,1.22,0,1.22-.61s-.43-.5-1-.5h-5.82c.87-3.05,2.88-5.14,6.14-5.14h1.12c.61,0,1.18,0,1.18-.61s-.46-.5-1.07-.5h-1.26c-4.67,0-9.48,3.59-9.48,9.09,0,3.95,2.69,6.78,6.5,6.78,2.33,0,4.67-1.43,4.67-1.83,0-.1,0-.5-.36-.5-.07,0-.15,0-.47.22a7.3,7.3,0,0,1-3.77,1.32c-2.08,0-3.88-1.5-3.88-4.66a14.13,14.13,0,0,1,.4-3.06H572"/><path d="M596.8,367.37c.25-.95.65-1.78,2.66-1.83.12,0,.5,0,.5-.55a.36.36,0,0,0-.38-.35c-.82,0-1.75.1-2.6.1-.6,0-2.06-.1-2.66-.1-.12,0-.5,0-.5.55,0,.33.33.35.55.35,1.18,0,1.61.4,1.61,1a2.13,2.13,0,0,1-.1.6l-2.74,10.93-6.36-13c-.2-.43-.25-.43-.86-.43h-3.43c-.47,0-.8,0-.8.55,0,.35.3.35.83.35a8.71,8.71,0,0,1,1.6.13l-3.36,13.41c-.22.95-.65,1.7-2.6,1.78a.46.46,0,0,0-.53.52.35.35,0,0,0,.37.38c.83,0,1.76-.1,2.61-.1.6,0,2.06.1,2.66.1a.47.47,0,0,0,.5-.53c0-.35-.3-.37-.58-.37-1.58-.05-1.58-.71-1.58-1.06a2.23,2.23,0,0,1,.1-.62l3.21-12.83,7.32,15c.2.4.3.43.55.43.4,0,.4-.08.53-.53l3.48-13.86"/></g><polygon class="cls-15" points="580.5 361.56 580.5 361.56 580.5 361.56 580.5 361.56 580.5 361.56 580.5 361.56 580.5 361.56 580.5 361.56 580.5 361.56 580.5 361.56 580.5 361.56 580.5 361.56 580.5 361.56 580.5 361.56 580.5 361.56 580.5 361.56 580.5 361.56 580.5 361.56 580.5 361.56 580.5 361.56 580.5 361.56 580.5 361.56 580.5 361.56 580.5 361.56 580.5 361.56 580.5 361.56 580.5 361.56 580.5 361.56 580.5 361.56 580.5 361.56 580.5 361.56 580.5 361.56 580.5 361.56 580.5 361.56 580.5 361.56 580.5 361.56 580.5 361.56 580.5 361.56 580.5 361.56 580.5 361.56 580.5 361.56 580.5 361.56 580.5 361.56 580.5 361.56 580.5 361.56 580.5 361.56 580.5 361.56 580.5 361.56 580.5 361.56 580.5 361.56 580.5 361.56 580.5 361.56 580.5 361.56 580.5 361.56 580.5 361.56 580.5 361.56 580.5 361.56 580.5 361.56 580.5 361.56 580.5 361.56 580.5 361.56 580.5 361.56 580.5 361.56 580.5 361.56 580.5 361.56 580.5 361.56 580.5 361.56 580.5 361.56 580.5 361.56 580.5 361.56 580.5 361.56 580.5 361.56 580.5 361.56 580.5 361.56 580.5 361.56 580.5 361.56 580.5 361.56 580.5 361.56 580.5 361.56 580.5 361.56 580.5 361.56 580.5 361.56 580.5 361.56 580.5 361.56 580.5 361.56 580.5 361.56 580.5 361.56 580.5 361.56 580.5 361.56"/><g class="cls-20"><path d="M1095.16,207c0-.74,0-.8-.71-.8a7.65,7.65,0,0,1-5.62,2v1a9.26,9.26,0,0,0,4-.8v16c0,1.11-.09,1.48-2.87,1.48h-1v1c1.08-.09,3.77-.09,5-.09s3.92,0,5,.09v-1h-1c-2.78,0-2.87-.33-2.87-1.48V207"/><line class="cls-21" x1="1079.74" y1="239.97" x2="1107.9" y2="239.97"/><path d="M1103.07,251c.31-1.24.86-2.19,3.33-2.29.16,0,.53,0,.53-.61,0,0,0-.34-.4-.34-1,0-2.1.09-3.12.09s-2.13-.09-3.15-.09c-.19,0-.56,0-.56.61,0,.34.31.34.56.34,1.76,0,2.1.68,2.1,1.36a3.52,3.52,0,0,1-.1.65l-3.46,13.75L1092,248.35c-.25-.55-.28-.58-1-.58h-4.14c-.62,0-.9,0-.9.61,0,.34.28.34.87.34.15,0,2.1,0,2.1.28l-4.14,16.59c-.31,1.24-.84,2.23-3.34,2.32-.18,0-.52,0-.52.62,0,.21.15.34.4.34,1,0,2.07-.1,3.09-.1s2.16.1,3.18.1c.15,0,.56,0,.56-.62,0-.31-.28-.34-.62-.34-1.79-.06-2-.74-2-1.36a2.48,2.48,0,0,1,.12-.71l4.08-16.31a5.3,5.3,0,0,1,.28.55l7.69,18.2c.22.53.31.59.59.59s.34-.1.49-.65l4.33-17.21"/><path d="M1155.81,261.62l3.74-9.88h-.77c-1.21,3.21-4.48,5.31-8,6.24a38.66,38.66,0,0,1-9.61,1h-18.63l15.72-18.45c.22-.25.28-.34.28-.49s0-.16-.21-.46l-14.4-19.68h16.93a46,46,0,0,1,7.23.49,17.52,17.52,0,0,1,6.8,2.32,9.94,9.94,0,0,1,3.92,4.38h.77l-3.74-8.68H1119.3c-.71,0-.75,0-.84.22a9,9,0,0,0,0,1L1134.77,242l-16,18.75c-.31.37-.31.52-.31.55,0,.34.28.34.84.34h36.51"/><path d="M1137.27,281.57a2.71,2.71,0,0,0-.2.91,1.92,1.92,0,0,0,2,1.83c2.16,0,3.11-3,3.11-3.3s-.28-.28-.35-.28c-.3,0-.32.13-.41.37-.49,1.72-1.44,2.6-2.28,2.6-.43,0-.54-.27-.54-.75a3.55,3.55,0,0,1,.34-1.38c.22-.58.45-1.16.69-1.72s1-2.48,1.06-2.74a2.89,2.89,0,0,0,.13-.69,1.91,1.91,0,0,0-2-1.83c-2.13,0-3.13,2.93-3.13,3.29s.3.28.37.28c.3,0,.32-.1.39-.34.56-1.85,1.51-2.63,2.31-2.63.34,0,.53.17.53.75a5.8,5.8,0,0,1-.67,2.16l-1.35,3.47m4.39-10.95a.82.82,0,0,0-.86-.82,1.27,1.27,0,0,0-1.2,1.18.82.82,0,0,0,.86.82A1.27,1.27,0,0,0,1141.66,270.62Z"/></g><polygon class="cls-15" points="1119.5 246.33 1119.5 246.33 1119.5 246.33 1119.5 246.33 1119.5 246.33 1119.5 246.33 1119.5 246.33 1119.5 246.33 1119.5 246.33 1119.5 246.33 1119.5 246.33 1119.5 246.33 1119.5 246.33 1119.5 246.33 1119.5 246.33 1119.5 246.33 1119.5 246.33 1119.5 246.33 1119.5 246.33 1119.5 246.33 1119.5 246.33 1119.5 246.33 1119.5 246.33 1119.5 246.33 1119.5 246.33 1119.5 246.33 1119.5 246.33 1119.5 246.33 1119.5 246.33 1119.5 246.33 1119.5 246.33 1119.5 246.33 1119.5 246.33 1119.5 246.33 1119.5 246.33 1119.5 246.33 1119.5 246.33 1119.5 246.33 1119.5 246.33 1119.5 246.33 1119.5 246.33 1119.5 246.33 1119.5 246.33 1119.5 246.33 1119.5 246.33 1119.5 246.33 1119.5 246.33 1119.5 246.33 1119.5 246.33 1119.5 246.33 1119.5 246.33 1119.5 246.33 1119.5 246.33 1119.5 246.33 1119.5 246.33 1119.5 246.33 1119.5 246.33 1119.5 246.33 1119.5 246.33 1119.5 246.33 1119.5 246.33 1119.5 246.33 1119.5 246.33 1119.5 246.33 1119.5 246.33 1119.5 246.33 1119.5 246.33 1119.5 246.33 1119.5 246.33 1119.5 246.33 1119.5 246.33 1119.5 246.33 1119.5 246.33 1119.5 246.33 1119.5 246.33 1119.5 246.33 1119.5 246.33 1119.5 246.33 1119.5 246.33 1119.5 246.33 1119.5 246.33 1119.5 246.33 1119.5 246.33 1119.5 246.33 1119.5 246.33 1119.5 246.33 1119.5 246.33 1119.5 246.33 1119.5 246.33 1119.5 246.33 1119.5 246.33"/><g class="cls-22"><path d="M1273.24,247c-3.16,2.77-5.93,3.16-7.36,3.16-2.16,0-3.24-1.61-3.24-3.91a18.6,18.6,0,0,1,2.09-7.47c1.69-2.62,3.63-3.31,4.88-3.31,3.56,0,3.56,4.71,3.56,7.51,0,1.33,0,3.41.07,4m2.41-4.92c0-5.64-3.34-7.4-6-7.4-4.92,0-9.66,5.14-9.66,10.2,0,3.34,2.15,6.07,5.82,6.07a12.09,12.09,0,0,0,7.57-3c.47,1.9,1.66,3,3.27,3a3.32,3.32,0,0,0,3-2.55.38.38,0,0,0-.43-.36c-.25,0-.36.11-.47.36-.65,1.76-1.94,1.76-2,1.76-1.11,0-1.11-2.8-1.11-3.66s0-.83.36-1.26a20.85,20.85,0,0,0,4.13-8.44c0-.07,0-.36-.44-.36s-.36.11-.53.76a21.46,21.46,0,0,1-3.52,7.11Z"/><path d="M1293.5,259.16c0-.11,0-.18-.61-.79-4.49-4.53-5.64-11.32-5.64-16.81,0-6.25,1.37-12.5,5.79-17,.46-.43.46-.5.46-.61a.32.32,0,0,0-.36-.36c-.36,0-3.59,2.44-5.71,7a27.68,27.68,0,0,0,.11,22.16c2.16,4.42,5.24,6.76,5.6,6.76a.32.32,0,0,0,.36-.36"/><path d="M1313,235.78l-3-7.15c-.11-.29-.18-.43-.18-.47,0-.21.61-.89,2.12-1,.36,0,.71-.07.71-.68,0-.43-.43-.43-.53-.43-1.48,0-3,.11-4.53.11-.9,0-3.12-.11-4-.11-.22,0-.65,0-.65.72,0,.39.36.39.83.39,2.15,0,2.37.36,2.69,1.15l4.24,10-7.58,8.15-.47.4a7.22,7.22,0,0,1-5.28,2.58c-.46,0-.78,0-.78.72,0,0,0,.4.46.4,1.08,0,2.26-.11,3.38-.11,1.33,0,2.73.11,4,.11.22,0,.65,0,.65-.72a.41.41,0,0,0-.43-.4c-.33,0-1.44-.1-1.44-1.11,0-.57.54-1.15,1-1.61l3.66-3.88,3.23-3.52,3.63,8.58a2.18,2.18,0,0,1,.18.5c0,.29-.68.9-2.08,1-.4,0-.72.08-.72.69,0,.43.39.43.54.43,1,0,3.52-.11,4.52-.11s3.09.11,4,.11c.25,0,.68,0,.68-.69,0-.43-.36-.43-.64-.43-2.41,0-2.48-.14-3.09-1.58-1.4-3.34-3.81-8.94-4.63-11.09,2.44-2.52,6.21-6.79,7.36-7.8a7.35,7.35,0,0,1,4.56-1.83c.46,0,.79,0,.79-.72,0,0,0-.39-.47-.39-1.08,0-2.26.11-3.37.11-1.33,0-2.7-.11-4-.11-.22,0-.68,0-.68.72,0,.25.18.36.43.39s1.43.11,1.43,1.11a2.17,2.17,0,0,1-.68,1.3l-5.82,6.25"/><path d="M1338.49,241.56a26.12,26.12,0,0,0-2.37-11.21c-2.15-4.41-5.24-6.75-5.6-6.75a.35.35,0,0,0-.36.36c0,.11,0,.18.68.83,3.52,3.55,5.57,9.26,5.57,16.77,0,6.14-1.33,12.46-5.78,17-.47.43-.47.5-.47.61a.35.35,0,0,0,.36.36c.36,0,3.59-2.45,5.71-7a26.12,26.12,0,0,0,2.26-10.95"/></g><polygon class="cls-15" points="1295.5 242.83 1295.5 242.83 1295.5 242.83 1295.5 242.83 1295.5 242.83 1295.5 242.83 1295.5 242.83 1295.5 242.83 1295.5 242.83 1295.5 242.83 1295.5 242.83 1295.5 242.83 1295.5 242.83 1295.5 242.83 1295.5 242.83 1295.5 242.83 1295.5 242.83 1295.5 242.83 1295.5 242.83 1295.5 242.83 1295.5 242.83 1295.5 242.83 1295.5 242.83 1295.5 242.83 1295.5 242.83 1295.5 242.83 1295.5 242.83 1295.5 242.83 1295.5 242.83 1295.5 242.83 1295.5 242.83 1295.5 242.83 1295.5 242.83 1295.5 242.83 1295.5 242.83 1295.5 242.83 1295.5 242.83 1295.5 242.83 1295.5 242.83 1295.5 242.83 1295.5 242.83 1295.5 242.83 1295.5 242.83 1295.5 242.83 1295.5 242.83 1295.5 242.83 1295.5 242.83 1295.5 242.83 1295.5 242.83 1295.5 242.83 1295.5 242.83 1295.5 242.83 1295.5 242.83 1295.5 242.83 1295.5 242.83 1295.5 242.83 1295.5 242.83 1295.5 242.83 1295.5 242.83 1295.5 242.83 1295.5 242.83 1295.5 242.83 1295.5 242.83 1295.5 242.83 1295.5 242.83 1295.5 242.83 1295.5 242.83 1295.5 242.83 1295.5 242.83 1295.5 242.83 1295.5 242.83 1295.5 242.83 1295.5 242.83 1295.5 242.83 1295.5 242.83 1295.5 242.83 1295.5 242.83 1295.5 242.83 1295.5 242.83 1295.5 242.83 1295.5 242.83 1295.5 242.83 1295.5 242.83 1295.5 242.83 1295.5 242.83 1295.5 242.83 1295.5 242.83 1295.5 242.83 1295.5 242.83"/><g class="cls-23"><path d="M840.72,106.26a2.32,2.32,0,0,1-.72,1.33c-1.58,2-3,2.55-4.06,2.55-1.8,0-2.3-2-2.3-3.37a26.24,26.24,0,0,1,2-7.87c1.11-2.12,2.73-3.45,4.16-3.45,2.34,0,2.84,3,2.84,3.16a2.66,2.66,0,0,1-.11.61l-1.79,7m2.33-9.3a3.59,3.59,0,0,0-3.3-2.3c-4.2,0-8.66,5.28-8.66,10.53,0,3.37,2,5.74,4.78,5.74.72,0,2.51-.14,4.67-2.69a3.25,3.25,0,0,0,3.27,2.69,3,3,0,0,0,2.65-2,18.89,18.89,0,0,0,1.08-3.56c0-.36-.32-.36-.43-.36-.36,0-.4.15-.5.65-.61,2.33-1.26,4.45-2.73,4.45-1,0-1.08-.93-1.08-1.65a9,9,0,0,1,.47-2.66c.39-1.51.46-1.86.79-3.23l1.29-5a5,5,0,0,0,.25-1.22.94.94,0,0,0-1-1A1.67,1.67,0,0,0,843.05,97Z"/><path d="M860.44,119.16c0-.11,0-.18-.61-.79-4.49-4.53-5.64-11.32-5.64-16.81,0-6.25,1.37-12.5,5.79-17,.46-.43.46-.5.46-.61a.32.32,0,0,0-.36-.36c-.36,0-3.59,2.44-5.71,7a27.68,27.68,0,0,0,.11,22.16c2.16,4.42,5.24,6.76,5.6,6.76a.32.32,0,0,0,.36-.36"/><path d="M871.1,99.08a8.26,8.26,0,0,1,2-.21,5.65,5.65,0,0,1,2.05.21,4.8,4.8,0,0,1-2.3.29,3.57,3.57,0,0,1-1.8-.29m2.8-9.8a6.27,6.27,0,0,1,1.73-.18,5.53,5.53,0,0,1,2,.21,5.1,5.1,0,0,1-2.23.29A2.19,2.19,0,0,1,873.9,89.28Zm-5.81,10.27c-3.92,2.58-4.71,6-4.71,7.25a4.37,4.37,0,0,0,1,2.84c1.15,1.18,1.48,1.33,4.17,2.33l4.34,1.69c.54.25,1.26.5,1.26,1.55a1.89,1.89,0,0,1-1.76,1.9,5.43,5.43,0,0,1-3.16-1.15c-.21-.14-.25-.18-.39-.18a.36.36,0,0,0-.36.4c0,.43,1.9,1.72,3.91,1.72a3.92,3.92,0,0,0,3.74-3.84,2.71,2.71,0,0,0-1.73-2.55l-2.19-.83c-.72-.29-1.43-.57-2.19-.83l-2.15-.86c-1.62-.64-2.7-1.69-2.7-3.19a8,8,0,0,1,4.42-6.11,8.83,8.83,0,0,0,3.16.47c1.08,0,3.34,0,3.34-1.11,0-.9-1.54-1-2.94-1a9,9,0,0,0-3,.44,3.91,3.91,0,0,1-1.08-2.81,7.17,7.17,0,0,1,4-6.1,2.59,2.59,0,0,0,2.3.79c.89,0,3.19,0,3.19-1.11,0-.94-1.58-1-3-1a11.78,11.78,0,0,0-2.26.18,3.15,3.15,0,0,1-.18-1.19,9.83,9.83,0,0,1,.18-1.33.43.43,0,0,0-.43-.47c-.65,0-.65,1.66-.65,1.77a4.86,4.86,0,0,0,.25,1.4c-3.84,1.07-6.28,4-6.28,6.71a4.35,4.35,0,0,0,2.33,3.81Z"/><path d="M886.65,100c0-.68,0-.7-.75-.7a6.87,6.87,0,0,1-4.91,1.6v.9a8.27,8.27,0,0,0,3.63-.7v12.78c0,.83,0,1.16-2.51,1.16h-1v.9c.45,0,3.54-.1,4.46-.1s3.94.07,4.49.1V115h-1c-2.51,0-2.51-.33-2.51-1.16V100"/><path d="M904.73,101.56a26.12,26.12,0,0,0-2.37-11.21c-2.15-4.41-5.24-6.75-5.6-6.75a.35.35,0,0,0-.36.36c0,.11,0,.18.68.83,3.52,3.55,5.57,9.26,5.57,16.77,0,6.14-1.33,12.46-5.78,17-.47.43-.47.5-.47.61a.35.35,0,0,0,.36.36c.36,0,3.59-2.45,5.71-7a26.12,26.12,0,0,0,2.26-11"/></g><polygon class="cls-15" points="868 99.83 868 99.83 868 99.83 868 99.83 868 99.83 868 99.83 868 99.83 868 99.83 868 99.83 868 99.83 868 99.83 868 99.83 868 99.83 868 99.83 868 99.83 868 99.83 868 99.83 868 99.83 868 99.83 868 99.83 868 99.83 868 99.83 868 99.83 868 99.83 868 99.83 868 99.83 868 99.83 868 99.83 868 99.83 868 99.83 868 99.83 868 99.83 868 99.83 868 99.83 868 99.83 868 99.83 868 99.83 868 99.83 868 99.83 868 99.83 868 99.83 868 99.83 868 99.83 868 99.83 868 99.83 868 99.83 868 99.83 868 99.83 868 99.83 868 99.83 868 99.83 868 99.83 868 99.83 868 99.83 868 99.83 868 99.83 868 99.83 868 99.83 868 99.83 868 99.83 868 99.83 868 99.83 868 99.83 868 99.83 868 99.83 868 99.83 868 99.83 868 99.83 868 99.83 868 99.83 868 99.83 868 99.83 868 99.83 868 99.83 868 99.83 868 99.83 868 99.83 868 99.83 868 99.83 868 99.83 868 99.83 868 99.83 868 99.83 868 99.83 868 99.83 868 99.83 868 99.83 868 99.83 868 99.83"/><g class="cls-24"><path d="M835.32,375.26a2.32,2.32,0,0,1-.72,1.33c-1.58,2-3.05,2.55-4.06,2.55-1.8,0-2.3-2-2.3-3.37a26.24,26.24,0,0,1,2-7.87c1.11-2.12,2.73-3.45,4.16-3.45,2.34,0,2.84,2.95,2.84,3.16a2.66,2.66,0,0,1-.11.61l-1.79,7m2.33-9.3a3.59,3.59,0,0,0-3.3-2.3c-4.2,0-8.66,5.28-8.66,10.53,0,3.37,2,5.74,4.78,5.74.72,0,2.51-.14,4.67-2.69a3.25,3.25,0,0,0,3.27,2.69,3,3,0,0,0,2.65-2,18.89,18.89,0,0,0,1.08-3.56c0-.36-.32-.36-.43-.36-.36,0-.4.15-.5.65-.61,2.33-1.26,4.45-2.73,4.45-1,0-1.08-.93-1.08-1.65a9,9,0,0,1,.47-2.66c.39-1.51.46-1.86.79-3.23l1.29-5a5,5,0,0,0,.25-1.22.94.94,0,0,0-1-1A1.67,1.67,0,0,0,837.65,366Z"/><path d="M855.14,388.16c0-.11,0-.18-.61-.79-4.49-4.53-5.64-11.32-5.64-16.81,0-6.25,1.37-12.5,5.79-17,.46-.43.46-.5.46-.61a.32.32,0,0,0-.36-.36c-.36,0-3.59,2.44-5.71,7a27.68,27.68,0,0,0,.11,22.16c2.16,4.42,5.24,6.76,5.6,6.76a.32.32,0,0,0,.36-.36"/><path d="M865.7,368.08a8.26,8.26,0,0,1,2-.21,5.65,5.65,0,0,1,2,.21,4.8,4.8,0,0,1-2.3.29,3.57,3.57,0,0,1-1.8-.29m2.8-9.8a6.27,6.27,0,0,1,1.73-.18,5.53,5.53,0,0,1,2,.21,5.1,5.1,0,0,1-2.23.29A2.19,2.19,0,0,1,868.5,358.28Zm-5.81,10.27c-3.92,2.58-4.71,6-4.71,7.25a4.37,4.37,0,0,0,1,2.84c1.15,1.18,1.48,1.33,4.17,2.33l4.34,1.69c.54.25,1.26.5,1.26,1.55a1.89,1.89,0,0,1-1.76,1.9,5.43,5.43,0,0,1-3.16-1.15c-.21-.14-.25-.18-.39-.18a.36.36,0,0,0-.36.4c0,.43,1.9,1.72,3.91,1.72a3.92,3.92,0,0,0,3.74-3.84,2.71,2.71,0,0,0-1.73-2.55l-2.19-.83c-.72-.29-1.43-.57-2.19-.83l-2.15-.86c-1.62-.64-2.7-1.69-2.7-3.19a8,8,0,0,1,4.42-6.11,8.83,8.83,0,0,0,3.16.47c1.08,0,3.34,0,3.34-1.11,0-.9-1.54-1-2.94-1a9,9,0,0,0-3,.44,3.91,3.91,0,0,1-1.08-2.81,7.17,7.17,0,0,1,4-6.1,2.59,2.59,0,0,0,2.3.79c.89,0,3.19,0,3.19-1.11,0-.94-1.58-1-3-1a11.78,11.78,0,0,0-2.26.18,3.15,3.15,0,0,1-.18-1.19,9.83,9.83,0,0,1,.18-1.33.43.43,0,0,0-.43-.47c-.65,0-.65,1.66-.65,1.77a4.86,4.86,0,0,0,.25,1.4c-3.84,1.07-6.28,3.95-6.28,6.71a4.35,4.35,0,0,0,2.33,3.81Z"/><path d="M893.76,370.55c.25-.95.65-1.78,2.65-1.83.13,0,.51,0,.51-.55a.37.37,0,0,0-.38-.35c-.83,0-1.75.1-2.61.1-.6,0-2-.1-2.65-.1-.13,0-.5,0-.5.55,0,.33.32.35.55.35,1.18,0,1.6.4,1.6,1a1.86,1.86,0,0,1-.1.6l-2.73,10.93-6.37-13c-.2-.43-.25-.43-.85-.43h-3.43c-.48,0-.81,0-.81.55,0,.35.31.35.83.35a8.74,8.74,0,0,1,1.61.13l-3.36,13.41c-.23.95-.65,1.7-2.61,1.78a.46.46,0,0,0-.53.52.36.36,0,0,0,.38.38c.83,0,1.75-.1,2.61-.1.6,0,2,.1,2.65.1a.48.48,0,0,0,.51-.53c0-.35-.31-.37-.58-.37-1.58-.06-1.58-.71-1.58-1.06a2.23,2.23,0,0,1,.1-.62l3.21-12.84,7.32,15c.2.4.3.43.55.43s.4-.08.52-.53l3.49-13.86"/><path d="M910.43,370.56a26.12,26.12,0,0,0-2.37-11.21c-2.15-4.41-5.24-6.75-5.6-6.75a.35.35,0,0,0-.36.36c0,.11,0,.18.68.83,3.52,3.55,5.57,9.26,5.57,16.77,0,6.14-1.33,12.46-5.78,17-.47.43-.47.5-.47.61a.35.35,0,0,0,.36.36c.36,0,3.59-2.45,5.71-7a26.12,26.12,0,0,0,2.26-10.95"/></g><polygon class="cls-15" points="871.75 370.83 871.75 370.83 871.75 370.83 871.75 370.83 871.75 370.83 871.75 370.83 871.75 370.83 871.75 370.83 871.75 370.83 871.75 370.83 871.75 370.83 871.75 370.83 871.75 370.83 871.75 370.83 871.75 370.83 871.75 370.83 871.75 370.83 871.75 370.83 871.75 370.83 871.75 370.83 871.75 370.83 871.75 370.83 871.75 370.83 871.75 370.83 871.75 370.83 871.75 370.83 871.75 370.83 871.75 370.83 871.75 370.83 871.75 370.83 871.75 370.83 871.75 370.83 871.75 370.83 871.75 370.83 871.75 370.83 871.75 370.83 871.75 370.83 871.75 370.83 871.75 370.83 871.75 370.83 871.75 370.83 871.75 370.83 871.75 370.83 871.75 370.83 871.75 370.83 871.75 370.83 871.75 370.83 871.75 370.83 871.75 370.83 871.75 370.83 871.75 370.83 871.75 370.83 871.75 370.83 871.75 370.83 871.75 370.83 871.75 370.83 871.75 370.83 871.75 370.83 871.75 370.83 871.75 370.83 871.75 370.83 871.75 370.83 871.75 370.83 871.75 370.83 871.75 370.83 871.75 370.83 871.75 370.83 871.75 370.83 871.75 370.83 871.75 370.83 871.75 370.83 871.75 370.83 871.75 370.83 871.75 370.83 871.75 370.83 871.75 370.83 871.75 370.83 871.75 370.83 871.75 370.83 871.75 370.83 871.75 370.83 871.75 370.83 871.75 370.83 871.75 370.83 871.75 370.83 871.75 370.83 871.75 370.83 871.75 370.83 871.75 370.83"/><g class="cls-25"><path class="cls-4" d="M457.84,261.18a5.13,5.13,0,0,0,.29-2V241.06a5.11,5.11,0,0,0-.29-2h4.1a2.73,2.73,0,0,0-.47,1.83V259.2a5.41,5.41,0,0,0,.29,2h-3.92M462.73,241c0-.72,0-1.94,2.15-1.94,2.59,0,3.78,1,3.78,5.46,0,5.13-1.91,5.56-4.14,5.56h-1.79Zm5.93,8.73c1.14-1.51,1.25-3.77,1.25-5.21a9.11,9.11,0,0,0-1.11-5.14c2,.47,4.78,1.55,4.78,5.17C473.58,247.1,472,248.93,468.66,249.76Zm-5.93,1.61a7.32,7.32,0,0,1,1,0h1.22c7.29,0,9.91-3.41,9.91-6.83,0-5.09-4.59-6.75-9.23-6.75H455.12c-.65,0-1.23,0-1.23.65s.69.61,1,.61c1.87,0,2,.29,2,2v18c0,1.76-.15,2.05-2,2.05-.36,0-1,0-1,.61s.58.64,1.23.64h9.62c.65,0,1.19,0,1.19-.64s-.61-.61-1-.61c-2.05,0-2.19-.29-2.19-2.05Z"/><path class="cls-4" d="M487.11,271.05c0-.11,0-.18-.61-.79-4.49-4.52-5.64-11.31-5.64-16.8,0-6.25,1.36-12.5,5.78-17,.47-.43.47-.51.47-.61a.33.33,0,0,0-.36-.36c-.36,0-3.59,2.44-5.71,7a27.68,27.68,0,0,0,.11,22.16c2.15,4.42,5.24,6.75,5.6,6.75a.33.33,0,0,0,.36-.36"/><path class="cls-4" d="M502.3,248.07h3.09c.72,0,1.08,0,1.08-.72,0-.4-.36-.4-1-.4h-3l.75-4.09a34.77,34.77,0,0,1,.86-3.73,2,2,0,0,1,1.69-1.23,2.63,2.63,0,0,1,1.76.65,2,2,0,0,0-1.94,1.94,1.25,1.25,0,0,0,1.33,1.26,2.06,2.06,0,0,0,2-2.16c0-1.65-1.65-2.48-3.12-2.48-1.22,0-3.48.65-4.56,4.21-.22.75-.32,1.11-1.19,5.63h-2.48c-.68,0-1.07,0-1.07.69,0,.43.32.43,1,.43h2.37l-2.69,14.18c-.65,3.49-1.26,6.76-3.12,6.76a2.56,2.56,0,0,1-1.73-.65,2,2,0,0,0,2-1.94,1.25,1.25,0,0,0-1.33-1.26,2.07,2.07,0,0,0-2,2.16c0,1.61,1.58,2.48,3.06,2.48,2,0,3.41-2.12,4.05-3.49a31.68,31.68,0,0,0,2-6.86l2.16-11.38"/><path class="cls-4" d="M522.51,271.05c0-.11,0-.18-.61-.79-4.49-4.52-5.64-11.31-5.64-16.8,0-6.25,1.36-12.5,5.78-17,.47-.43.47-.51.47-.61a.33.33,0,0,0-.36-.36c-.36,0-3.59,2.44-5.71,7a27.68,27.68,0,0,0,.11,22.16c2.15,4.42,5.24,6.75,5.6,6.75a.33.33,0,0,0,.36-.36"/><path class="cls-4" d="M541.94,247.67l-3-7.14c-.11-.29-.18-.44-.18-.47,0-.22.61-.9,2.12-1,.36,0,.72-.07.72-.68,0-.44-.43-.44-.54-.44-1.47,0-3,.11-4.52.11-.9,0-3.13-.11-4-.11-.21,0-.64,0-.64.72,0,.4.36.4.82.4,2.16,0,2.37.36,2.7,1.15l4.23,10L532,258.34l-.47.4a7.28,7.28,0,0,1-5.28,2.58c-.47,0-.79,0-.79.72,0,0,0,.39.47.39,1.07,0,2.26-.1,3.37-.1,1.33,0,2.73.1,4,.1.22,0,.65,0,.65-.72,0-.35-.36-.39-.43-.39-.32,0-1.44-.11-1.44-1.11,0-.58.54-1.15,1-1.62l3.67-3.88,3.23-3.52,3.63,8.59a3.07,3.07,0,0,1,.18.5c0,.29-.69.9-2.09,1-.39,0-.72.07-.72.68,0,.43.4.43.54.43,1,0,3.52-.1,4.53-.1s3.09.1,4,.1c.26,0,.69,0,.69-.68,0-.43-.36-.43-.65-.43-2.41,0-2.48-.14-3.09-1.58-1.4-3.34-3.81-8.94-4.63-11.1,2.44-2.51,6.21-6.78,7.36-7.79a7.37,7.37,0,0,1,4.56-1.83c.47,0,.79,0,.79-.72,0,0,0-.4-.47-.4-1.07,0-2.26.11-3.37.11-1.33,0-2.69-.11-4-.11-.21,0-.68,0-.68.72,0,.25.18.36.43.4s1.44.11,1.44,1.11a2.2,2.2,0,0,1-.68,1.29l-5.82,6.25"/><path class="cls-4" d="M567.4,253.46A26.24,26.24,0,0,0,565,242.25c-2.16-4.42-5.24-6.75-5.6-6.75a.34.34,0,0,0-.36.36c0,.1,0,.18.68.82,3.52,3.56,5.57,9.27,5.57,16.78,0,6.14-1.33,12.46-5.79,17-.46.43-.46.5-.46.61a.34.34,0,0,0,.36.36c.36,0,3.59-2.44,5.71-7a26.12,26.12,0,0,0,2.26-11"/><path class="cls-4" d="M582.73,236.79c0-.65,0-1.29-.72-1.29s-.72.64-.72,1.29v33.33c0,.65,0,1.29.72,1.29s.72-.64.72-1.29V236.79"/><path class="cls-4" d="M600.43,260.46a70.91,70.91,0,0,0,5.35-20.58c2.4,0,11.6,0,11.6,7.9,0,7-6.32,12.68-15,12.68h-1.93m-.18,2c8.36,0,20.18-6.39,20.18-16.19a7.12,7.12,0,0,0-3.27-6.33c-3.09-2-6.39-2-9.8-2-3.09,0-5.21,0-8.23,1.3-4.77,2.12-5.46,5.1-5.46,5.38s.15.29.36.29a4,4,0,0,0,1.69-.68,2,2,0,0,0,1.08-1.4c.5-1.44,1.51-2.7,6-2.91a69.28,69.28,0,0,1-4.92,20.65c-1.33.47-2.19,1.29-2.19,1.65s0,.25.83.25Z"/><path class="cls-4" d="M632,253.46a26.24,26.24,0,0,0-2.37-11.21c-2.16-4.42-5.24-6.75-5.6-6.75a.34.34,0,0,0-.36.36c0,.1,0,.18.68.82,3.52,3.56,5.57,9.27,5.57,16.78,0,6.14-1.33,12.46-5.79,17-.46.43-.46.5-.46.61a.34.34,0,0,0,.36.36c.36,0,3.59-2.44,5.71-7a26.12,26.12,0,0,0,2.26-11"/></g><polygon class="cls-15" points="1161.5 397.83 1161.5 397.83 1161.5 397.83 1161.5 397.83 1161.5 397.83 1161.5 397.83 1161.5 397.83 1161.5 397.83 1161.5 397.83 1161.5 397.83 1161.5 397.83 1161.5 397.83 1161.5 397.83 1161.5 397.83 1161.5 397.83 1161.5 397.83 1161.5 397.83 1161.5 397.83 1161.5 397.83 1161.5 397.83 1161.5 397.83 1161.5 397.83 1161.5 397.83 1161.5 397.83 1161.5 397.83 1161.5 397.83 1161.5 397.83 1161.5 397.83 1161.5 397.83 1161.5 397.83 1161.5 397.83 1161.5 397.83 1161.5 397.83 1161.5 397.83 1161.5 397.83 1161.5 397.83 1161.5 397.83 1161.5 397.83 1161.5 397.83 1161.5 397.83 1161.5 397.83 1161.5 397.83 1161.5 397.83 1161.5 397.83 1161.5 397.83 1161.5 397.83 1161.5 397.83 1161.5 397.83 1161.5 397.83 1161.5 397.83 1161.5 397.83 1161.5 397.83 1161.5 397.83 1161.5 397.83 1161.5 397.83 1161.5 397.83 1161.5 397.83 1161.5 397.83 1161.5 397.83 1161.5 397.83 1161.5 397.83 1161.5 397.83 1161.5 397.83 1161.5 397.83 1161.5 397.83 1161.5 397.83 1161.5 397.83 1161.5 397.83 1161.5 397.83 1161.5 397.83 1161.5 397.83 1161.5 397.83 1161.5 397.83 1161.5 397.83 1161.5 397.83 1161.5 397.83 1161.5 397.83 1161.5 397.83 1161.5 397.83 1161.5 397.83 1161.5 397.83 1161.5 397.83 1161.5 397.83 1161.5 397.83 1161.5 397.83 1161.5 397.83 1161.5 397.83 1161.5 397.83 1161.5 397.83 1161.5 397.83 1161.5 397.83 1161.5 397.83 1161.5 397.83"/></svg>