<?xml version="1.0" encoding="utf-8"?>
<!-- Generator: Adobe Illustrator 23.0.3, SVG Export Plug-In . SVG Version: 6.00 Build 0)  -->
<svg version="1.1" id="Layer_1" xmlns="http://www.w3.org/2000/svg" xmlns:xlink="http://www.w3.org/1999/xlink" x="0px" y="0px"
	 viewBox="0 0 900 900" style="enable-background:new 0 0 900 900;" xml:space="preserve">
<style type="text/css">
	.st0{fill:#F15A24;}
</style>
<title>exp_arrows_grey</title>
<path class="st0" d="M414.9,542.8l-178,178l54.1,53.9c22.6,22.5,3.5,64.3-30.2,66L84.2,850c-21,1.1-37-14.9-35.8-35.9l9.2-176.5
	c1.8-33.7,43.5-52.7,66-30.2l54.1,54.1l178-177.8"/>
<path class="st0" d="M544.5,483.5l178,178l53.9-54.1c22.6-22.6,64.3-3.6,66,30.2l9.2,176.5c1.1,21-14.9,37-35.8,35.9l-176.6-9.2
	c-33.7-1.8-52.7-43.5-30.2-66l54.1-54.1l-177.8-178"/>
<path class="st0" d="M358.6,416.5l-178-178l-53.9,54.1c-22.6,22.6-64.3,3.6-66-30.2L51.4,85.9c-1.1-21,14.9-37,35.8-35.9l176.6,9.2
	c33.7,1.8,52.7,43.5,30.2,66l-54.1,54.1l177.8,178"/>
<path class="st0" d="M482.1,357.2l178-178L606,125.3c-22.6-22.5-3.6-64.3,30.2-66l176.5-9.2c21-1.1,37,14.9,35.8,35.9l-9.2,176.5
	c-1.8,33.7-43.5,52.7-66,30.2l-54.1-54.1l-178,177.8"/>
</svg>
