<svg id="Layer_1" data-name="Layer 1" xmlns="http://www.w3.org/2000/svg" xmlns:xlink="http://www.w3.org/1999/xlink" viewBox="0 0 1440 350"><defs><style>.cls-1,.cls-15,.cls-4{fill:none;}.cls-2{fill:#576370;}.cls-3{font-size:26.22px;font-family:FreightSansProSemibold-Regular, FreightSans Pro;}.cls-19,.cls-3{fill:#fff;}.cls-4{stroke:#a9a9a9;stroke-width:2px;}.cls-15,.cls-4{stroke-miterlimit:10;}.cls-5{fill:#a9a9a9;}.cls-6{letter-spacing:-0.01em;}.cls-7{letter-spacing:0em;}.cls-8{font-size:16.67px;fill:#777;font-family:FreightSansProBold-Regular, FreightSans Pro;letter-spacing:0.02em;}.cls-9{letter-spacing:0.01em;}.cls-10{letter-spacing:0.02em;}.cls-11{letter-spacing:-0.05em;}.cls-12{letter-spacing:0.02em;}.cls-13{letter-spacing:0.03em;}.cls-14{clip-path:url(#clip-path);}.cls-15{stroke:#000;stroke-width:0px;opacity:0;}.cls-16{clip-path:url(#clip-path-2);}.cls-17{clip-path:url(#clip-path-3);}.cls-18{clip-path:url(#clip-path-4);}</style><clipPath id="clip-path"><rect class="cls-1" x="228.04" y="178.21" width="30" height="25"/></clipPath><clipPath id="clip-path-2"><rect class="cls-1" x="393.76" y="66.21" width="27" height="25"/></clipPath><clipPath id="clip-path-3"><rect class="cls-1" x="1141.87" y="166.91" width="79" height="37"/></clipPath><clipPath id="clip-path-4"><rect class="cls-1" x="572.96" y="188.07" width="179" height="37"/></clipPath></defs><title>overview_bayesopt</title><rect class="cls-2" x="338.54" y="156.27" width="132.31" height="66.46" rx="11.91"/><text class="cls-3" transform="translate(370.01 197.19)">Model</text><line class="cls-4" x1="517.14" y1="189.15" x2="470.84" y2="189.15"/><polygon class="cls-5" points="516.41 194.61 516.41 183.68 521.88 189.15 516.41 194.61"/><line class="cls-4" x1="312.88" y1="189.15" x2="270.49" y2="189.15"/><polygon class="cls-5" points="312.15 194.61 312.15 183.68 317.61 189.15 312.15 194.61"/><line class="cls-4" x1="1120.29" y1="189.15" x2="1057.89" y2="189.15"/><polygon class="cls-5" points="1119.55 194.61 1119.55 183.68 1125.02 189.15 1119.55 194.61"/><rect class="cls-2" x="535.2" y="130.92" width="254.31" height="116.46" rx="11.91"/><text class="cls-3" transform="translate(610.71 170.19)"><tspan class="cls-6">P</tspan><tspan x="14.45" y="0">os</tspan><tspan class="cls-7" x="40.01" y="0">t</tspan><tspan x="49.26" y="0">erior</tspan></text><text class="cls-8" transform="translate(421.22 114.79)">T<tspan class="cls-9" x="10.37" y="0">R</tspan><tspan x="20.76" y="0">AINING </tspan><tspan class="cls-10"><tspan x="0" y="24">D</tspan><tspan class="cls-11" x="11.6" y="24">AT</tspan><tspan class="cls-12" x="30.81" y="24">A</tspan></tspan></text><text class="cls-8" transform="translate(197.05 234.83)">CANDI<tspan class="cls-10" x="50.66" y="0">D</tspan><tspan class="cls-11" x="62.26" y="0">A</tspan><tspan x="72.21" y="0">TE </tspan><tspan x="31.24" y="24">SET</tspan></text><text class="cls-8" transform="translate(1123.69 228.8)">UTILI<tspan class="cls-13" x="41.3" y="0">T</tspan><tspan class="cls-12" x="51.83" y="0">Y OF THE </tspan><tspan x="-0.85" y="24">CANDI</tspan><tspan class="cls-10" x="49.81" y="24">D</tspan><tspan class="cls-11" x="61.41" y="24">A</tspan><tspan x="71.36" y="24">TE SET</tspan></text><line class="cls-4" x1="404.69" y1="139.74" x2="404.69" y2="101.48"/><polygon class="cls-5" points="400.68 139.2 408.7 139.2 404.69 143.21 400.68 139.2"/><g class="cls-14"><path d="M244.76,188.05l-3-7.14c-.1-.29-.17-.43-.17-.47,0-.22.61-.9,2.11-1,.36,0,.72-.07.72-.68,0-.44-.43-.44-.54-.44-1.47,0-3,.11-4.52.11-.9,0-3.13-.11-4-.11-.22,0-.65,0-.65.72,0,.4.36.4.83.4,2.15,0,2.37.36,2.69,1.15l4.24,10-7.58,8.15-.47.4a7.26,7.26,0,0,1-5.28,2.58c-.46,0-.79,0-.79.72,0,0,0,.39.47.39,1.08,0,2.26-.1,3.38-.1,1.32,0,2.73.1,4,.1.21,0,.64,0,.64-.71a.41.41,0,0,0-.43-.4c-.32,0-1.43-.11-1.43-1.11,0-.58.54-1.15,1-1.62l3.66-3.88,3.23-3.52,3.63,8.59a3.07,3.07,0,0,1,.18.5c0,.29-.68.9-2.08,1-.4,0-.72.07-.72.68,0,.43.39.43.54.43,1,0,3.52-.1,4.52-.1s3.09.1,4,.1c.25,0,.68,0,.68-.68,0-.43-.36-.43-.65-.43-2.4,0-2.47-.14-3.08-1.58-1.41-3.34-3.81-8.94-4.64-11.1,2.45-2.51,6.22-6.78,7.37-7.79a7.35,7.35,0,0,1,4.56-1.83c.46,0,.79,0,.79-.72,0,0,0-.4-.47-.4-1.08,0-2.26.11-3.38.11-1.33,0-2.69-.11-4-.11-.22,0-.69,0-.69.72,0,.25.18.36.44.4s1.43.11,1.43,1.11a2.15,2.15,0,0,1-.68,1.29l-5.82,6.25"/></g><polygon class="cls-15" points="248.74 189.07 248.74 189.07 248.74 189.07 248.74 189.07 248.74 189.07 248.74 189.07 248.74 189.07 248.74 189.07 248.74 189.07 248.74 189.07 248.74 189.07 248.74 189.07 248.74 189.07 248.74 189.07 248.74 189.07 248.74 189.07 248.74 189.07 248.74 189.07 248.74 189.07 248.74 189.07 248.74 189.07 248.74 189.07 248.74 189.07 248.74 189.07 248.74 189.07 248.74 189.07 248.74 189.07 248.74 189.07 248.74 189.07 248.74 189.07 248.74 189.07 248.74 189.07 248.74 189.07 248.74 189.07 248.74 189.07 248.74 189.07 248.74 189.07 248.74 189.07 248.74 189.07 248.74 189.07 248.74 189.07 248.74 189.07 248.74 189.07 248.74 189.07 248.74 189.07 248.74 189.07 248.74 189.07 248.74 189.07 248.74 189.07 248.74 189.07 248.74 189.07 248.74 189.07 248.74 189.07 248.74 189.07 248.74 189.07 248.74 189.07 248.74 189.07 248.74 189.07 248.74 189.07 248.74 189.07 248.74 189.07 248.74 189.07 248.74 189.07 248.74 189.07 248.74 189.07 248.74 189.07 248.74 189.07 248.74 189.07 248.74 189.07 248.74 189.07 248.74 189.07 248.74 189.07 248.74 189.07 248.74 189.07 248.74 189.07 248.74 189.07 248.74 189.07 248.74 189.07 248.74 189.07 248.74 189.07 248.74 189.07 248.74 189.07 248.74 189.07 248.74 189.07 248.74 189.07 248.74 189.07 248.74 189.07"/><g class="cls-16"><path d="M400.57,88.84a70.91,70.91,0,0,0,5.35-20.58c2.4,0,11.6,0,11.6,7.9,0,7-6.32,12.68-15,12.68h-1.93m-.18,2c8.36,0,20.18-6.39,20.18-16.19a7.09,7.09,0,0,0-3.27-6.32c-3.09-2-6.39-2-9.8-2-3.09,0-5.21,0-8.23,1.3-4.77,2.12-5.46,5.1-5.46,5.38s.15.29.36.29a4,4,0,0,0,1.69-.68,2,2,0,0,0,1.08-1.4c.5-1.44,1.51-2.69,6-2.91a69.2,69.2,0,0,1-4.92,20.65c-1.33.47-2.19,1.29-2.19,1.65s0,.25.83.25Z"/></g><polygon class="cls-15" points="409.24 79.07 409.24 79.07 409.24 79.07 409.24 79.07 409.24 79.07 409.24 79.07 409.24 79.07 409.24 79.07 409.24 79.07 409.24 79.07 409.24 79.07 409.24 79.07 409.24 79.07 409.24 79.07 409.24 79.07 409.24 79.07 409.24 79.07 409.24 79.07 409.24 79.07 409.24 79.07 409.24 79.07 409.24 79.07 409.24 79.07 409.24 79.07 409.24 79.07 409.24 79.07 409.24 79.07 409.24 79.07 409.24 79.07 409.24 79.07 409.24 79.07 409.24 79.07 409.24 79.07 409.24 79.07 409.24 79.07 409.24 79.07 409.24 79.07 409.24 79.07 409.24 79.07 409.24 79.07 409.24 79.07 409.24 79.07 409.24 79.07 409.24 79.07 409.24 79.07 409.24 79.07 409.24 79.07 409.24 79.07 409.24 79.07 409.24 79.07 409.24 79.07 409.24 79.07 409.24 79.07 409.24 79.07 409.24 79.07 409.24 79.07 409.24 79.07 409.24 79.07 409.24 79.07 409.24 79.07 409.24 79.07 409.24 79.07 409.24 79.07 409.24 79.07 409.24 79.07 409.24 79.07 409.24 79.07 409.24 79.07 409.24 79.07 409.24 79.07 409.24 79.07 409.24 79.07 409.24 79.07 409.24 79.07 409.24 79.07 409.24 79.07 409.24 79.07 409.24 79.07 409.24 79.07 409.24 79.07 409.24 79.07 409.24 79.07 409.24 79.07 409.24 79.07 409.24 79.07 409.24 79.07 409.24 79.07 409.24 79.07 409.24 79.07"/><g class="cls-17"><path d="M1155.59,191c-3.16,2.76-5.93,3.16-7.36,3.16-2.16,0-3.23-1.62-3.23-3.92a18.67,18.67,0,0,1,2.08-7.47c1.69-2.62,3.63-3.3,4.88-3.3,3.56,0,3.56,4.7,3.56,7.51,0,1.33,0,3.41.07,4M1158,186c0-5.64-3.34-7.4-6-7.4-4.92,0-9.66,5.14-9.66,10.2,0,3.34,2.15,6.07,5.82,6.07a12.11,12.11,0,0,0,7.57-3c.47,1.91,1.66,3,3.27,3a3.33,3.33,0,0,0,3-2.55.38.38,0,0,0-.43-.36c-.25,0-.36.11-.47.36-.65,1.76-1.94,1.76-2,1.76-1.11,0-1.11-2.8-1.11-3.66s0-.83.36-1.26a20.85,20.85,0,0,0,4.13-8.44c0-.07,0-.36-.44-.36s-.35.11-.53.75a21.41,21.41,0,0,1-3.52,7.12Z"/><path d="M1175.85,203.13c0-.1,0-.18-.61-.79-4.49-4.52-5.64-11.31-5.64-16.8,0-6.25,1.37-12.5,5.79-17,.46-.43.46-.5.46-.61a.32.32,0,0,0-.36-.36c-.36,0-3.59,2.44-5.71,7a27.68,27.68,0,0,0,.11,22.16c2.16,4.42,5.24,6.75,5.6,6.75a.32.32,0,0,0,.36-.36"/><path d="M1195.38,179.75l-3-7.14c-.11-.29-.18-.43-.18-.47,0-.22.61-.9,2.12-1,.36,0,.71-.07.71-.68,0-.44-.43-.44-.53-.44-1.48,0-3,.11-4.53.11-.9,0-3.12-.11-4-.11-.22,0-.65,0-.65.72,0,.4.36.4.83.4,2.15,0,2.37.36,2.69,1.15l4.24,10-7.58,8.15-.47.4a7.24,7.24,0,0,1-5.28,2.58c-.46,0-.78,0-.78.72,0,0,0,.39.46.39,1.08,0,2.26-.1,3.38-.1,1.33,0,2.73.1,4,.1.22,0,.65,0,.65-.71a.41.41,0,0,0-.43-.4c-.33,0-1.44-.11-1.44-1.11,0-.58.54-1.15,1-1.62l3.66-3.88,3.24-3.52,3.62,8.59a2.18,2.18,0,0,1,.18.5c0,.29-.68.9-2.08,1-.4,0-.72.07-.72.68,0,.43.4.43.54.43,1,0,3.52-.1,4.52-.1s3.09.1,4,.1c.25,0,.68,0,.68-.68,0-.43-.36-.43-.64-.43-2.41,0-2.48-.14-3.09-1.58-1.4-3.34-3.81-8.94-4.63-11.1,2.44-2.51,6.21-6.78,7.36-7.79a7.35,7.35,0,0,1,4.56-1.83c.46,0,.79,0,.79-.72,0,0,0-.4-.47-.4-1.08,0-2.26.11-3.37.11-1.33,0-2.7-.11-4-.11-.22,0-.68,0-.68.72,0,.25.18.36.43.4s1.43.11,1.43,1.11a2.15,2.15,0,0,1-.68,1.29l-5.82,6.25"/><path d="M1220.85,185.54a26.12,26.12,0,0,0-2.38-11.21c-2.15-4.42-5.24-6.75-5.6-6.75a.34.34,0,0,0-.36.36c0,.11,0,.18.69.82,3.51,3.56,5.56,9.27,5.56,16.78,0,6.14-1.33,12.46-5.78,17-.47.43-.47.51-.47.61a.34.34,0,0,0,.36.36c.36,0,3.59-2.44,5.71-7a26.14,26.14,0,0,0,2.27-11"/></g><polygon class="cls-15" points="1117.85 186.81 1117.85 186.81 1117.85 186.81 1117.85 186.81 1117.85 186.81 1117.85 186.81 1117.85 186.81 1117.85 186.81 1117.85 186.81 1117.85 186.81 1117.85 186.81 1117.85 186.81 1117.85 186.81 1117.85 186.81 1117.85 186.81 1117.85 186.81 1117.85 186.81 1117.85 186.81 1117.85 186.81 1117.85 186.81 1117.85 186.81 1117.85 186.81 1117.85 186.81 1117.85 186.81 1117.85 186.81 1117.85 186.81 1117.85 186.81 1117.85 186.81 1117.85 186.81 1117.85 186.81 1117.85 186.81 1117.85 186.81 1117.85 186.81 1117.85 186.81 1117.85 186.81 1117.85 186.81 1117.85 186.81 1117.85 186.81 1117.85 186.81 1117.85 186.81 1117.85 186.81 1117.85 186.81 1117.85 186.81 1117.85 186.81 1117.85 186.81 1117.85 186.81 1117.85 186.81 1117.85 186.81 1117.85 186.81 1117.85 186.81 1117.85 186.81 1117.85 186.81 1117.85 186.81 1117.85 186.81 1117.85 186.81 1117.85 186.81 1117.85 186.81 1117.85 186.81 1117.85 186.81 1117.85 186.81 1117.85 186.81 1117.85 186.81 1117.85 186.81 1117.85 186.81 1117.85 186.81 1117.85 186.81 1117.85 186.81 1117.85 186.81 1117.85 186.81 1117.85 186.81 1117.85 186.81 1117.85 186.81 1117.85 186.81 1117.85 186.81 1117.85 186.81 1117.85 186.81 1117.85 186.81 1117.85 186.81 1117.85 186.81 1117.85 186.81 1117.85 186.81 1117.85 186.81 1117.85 186.81 1117.85 186.81 1117.85 186.81 1117.85 186.81 1117.85 186.81 1117.85 186.81 1117.85 186.81"/><g class="cls-18"><path class="cls-19" d="M577.59,214.42a5.3,5.3,0,0,0,.28-2V194.31a5.3,5.3,0,0,0-.28-2h4.09a2.73,2.73,0,0,0-.47,1.83v18.28a5.41,5.41,0,0,0,.29,2h-3.91m4.88-20.15c0-.72,0-1.94,2.16-1.94,2.58,0,3.77,1,3.77,5.46,0,5.13-1.91,5.57-4.13,5.57h-1.8ZM588.4,203c1.15-1.51,1.25-3.77,1.25-5.21a9.12,9.12,0,0,0-1.11-5.14c2,.47,4.78,1.55,4.78,5.17C593.32,200.34,591.7,202.17,588.4,203Zm-5.93,1.61a7.32,7.32,0,0,1,1,0h1.22c7.29,0,9.91-3.41,9.91-6.83,0-5.09-4.59-6.75-9.23-6.75H574.86c-.65,0-1.22,0-1.22.65s.68.61,1,.61c1.86,0,2,.29,2,2v18c0,1.76-.15,2-2,2-.36,0-1,0-1,.61s.57.64,1.22.64h9.62c.65,0,1.19,0,1.19-.64s-.61-.61-1-.61c-2,0-2.19-.29-2.19-2Z"/><path class="cls-19" d="M606.85,224.29c0-.1,0-.18-.61-.79-4.49-4.52-5.64-11.31-5.64-16.8,0-6.25,1.36-12.5,5.78-17,.47-.43.47-.5.47-.61a.32.32,0,0,0-.36-.36c-.36,0-3.59,2.44-5.71,7a27.68,27.68,0,0,0,.11,22.16c2.15,4.42,5.24,6.75,5.6,6.75a.32.32,0,0,0,.36-.36"/><path class="cls-19" d="M622,201.31h3.09c.72,0,1.08,0,1.08-.72,0-.4-.36-.4-1-.4h-3l.75-4.09a37.36,37.36,0,0,1,.86-3.73,2,2,0,0,1,1.69-1.23,2.62,2.62,0,0,1,1.76.65,2,2,0,0,0-1.94,1.94,1.25,1.25,0,0,0,1.33,1.26,2.07,2.07,0,0,0,2-2.16c0-1.65-1.66-2.47-3.13-2.47-1.22,0-3.48.64-4.56,4.2-.22.75-.32,1.11-1.19,5.63h-2.47c-.68,0-1.08,0-1.08.69,0,.43.32.43,1,.43h2.37l-2.7,14.18c-.64,3.49-1.26,6.76-3.12,6.76a2.57,2.57,0,0,1-1.73-.65,2,2,0,0,0,2-1.94,1.25,1.25,0,0,0-1.33-1.26,2.07,2.07,0,0,0-2,2.16c0,1.61,1.59,2.48,3.06,2.48,2,0,3.41-2.12,4.06-3.49a32.29,32.29,0,0,0,2-6.86L622,201.31"/><path class="cls-19" d="M642.25,224.29c0-.1,0-.18-.61-.79C637.15,219,636,212.19,636,206.7c0-6.25,1.36-12.5,5.78-17,.47-.43.47-.5.47-.61a.32.32,0,0,0-.36-.36c-.36,0-3.59,2.44-5.71,7a27.68,27.68,0,0,0,.11,22.16c2.15,4.42,5.24,6.75,5.6,6.75a.32.32,0,0,0,.36-.36"/><path class="cls-19" d="M661.68,200.91l-3-7.14c-.1-.29-.18-.44-.18-.47,0-.22.61-.9,2.12-1,.36,0,.72-.07.72-.68,0-.44-.43-.44-.54-.44-1.47,0-3,.11-4.52.11-.9,0-3.13-.11-4-.11-.21,0-.64,0-.64.72,0,.4.36.4.82.4,2.16,0,2.37.36,2.7,1.15l4.24,10-7.58,8.15-.47.4a7.28,7.28,0,0,1-5.28,2.58c-.47,0-.79,0-.79.72,0,0,0,.39.47.39,1.08,0,2.26-.1,3.37-.1,1.33,0,2.73.1,4,.1.21,0,.64,0,.64-.71a.41.41,0,0,0-.43-.4c-.32,0-1.43-.11-1.43-1.11a2.85,2.85,0,0,1,1-1.62l3.67-3.88,3.23-3.52,3.63,8.59a3.07,3.07,0,0,1,.18.5c0,.29-.69.9-2.09,1-.39,0-.71.07-.71.68,0,.43.39.43.53.43,1,0,3.52-.1,4.53-.1s3.09.1,4,.1c.25,0,.68,0,.68-.68,0-.43-.36-.43-.65-.43-2.4,0-2.48-.14-3.09-1.58-1.4-3.34-3.8-8.94-4.63-11.1,2.44-2.51,6.21-6.78,7.36-7.79a7.37,7.37,0,0,1,4.56-1.83c.47,0,.79,0,.79-.72,0,0,0-.4-.46-.4-1.08,0-2.27.11-3.38.11-1.33,0-2.69-.11-4-.11-.22,0-.69,0-.69.72,0,.25.18.36.43.4s1.44.11,1.44,1.11a2.2,2.2,0,0,1-.68,1.29l-5.82,6.25"/><path class="cls-19" d="M687.14,206.7a26.09,26.09,0,0,0-2.37-11.21c-2.15-4.42-5.24-6.75-5.6-6.75a.34.34,0,0,0-.36.36c0,.11,0,.18.68.82,3.52,3.56,5.57,9.27,5.57,16.78,0,6.14-1.33,12.46-5.78,17-.47.43-.47.51-.47.61a.34.34,0,0,0,.36.36c.36,0,3.59-2.44,5.71-7a26.12,26.12,0,0,0,2.26-11"/><path class="cls-19" d="M702.47,190c0-.64,0-1.29-.72-1.29s-.72.65-.72,1.29v33.33c0,.65,0,1.29.72,1.29s.72-.64.72-1.29V190"/><path class="cls-19" d="M720.17,213.7a70.58,70.58,0,0,0,5.35-20.58c2.41,0,11.6,0,11.6,7.9,0,7-6.32,12.68-15,12.68h-1.94m-.18,2c8.37,0,20.18-6.39,20.18-16.19a7.09,7.09,0,0,0-3.27-6.32c-3.09-2-6.39-2-9.8-2-3.09,0-5.21,0-8.23,1.3-4.77,2.12-5.45,5.1-5.45,5.38s.14.29.36.29a4,4,0,0,0,1.68-.68,2,2,0,0,0,1.08-1.4c.5-1.44,1.51-2.7,6-2.91a69.2,69.2,0,0,1-4.92,20.65c-1.33.47-2.19,1.29-2.19,1.65s0,.25.83.25Z"/><path class="cls-19" d="M751.74,206.7a26.09,26.09,0,0,0-2.37-11.21c-2.15-4.42-5.24-6.75-5.6-6.75a.34.34,0,0,0-.36.36c0,.11,0,.18.68.82,3.52,3.56,5.57,9.27,5.57,16.78,0,6.14-1.33,12.46-5.78,17-.47.43-.47.51-.47.61a.34.34,0,0,0,.36.36c.36,0,3.59-2.44,5.71-7a26.12,26.12,0,0,0,2.26-11"/></g><rect class="cls-2" x="860.23" y="142.34" width="198.55" height="93.62" rx="11.91"/><path class="cls-19" d="M912.92,180.28h-3.23l-1.36-3.88h-6.61l-1.33,3.88h-3.23l6-16.39H907Zm-7.87-13.63-2.49,7.1h5Z"/><path class="cls-19" d="M920.21,180.67c-3.93,0-6.27-2.44-6.27-6.4s2.57-6.47,6.37-6.47a8.17,8.17,0,0,1,4.17,1l-.65,2.49a6.2,6.2,0,0,0-3.28-1c-2.23,0-3.44,1.52-3.44,3.85s1.39,3.91,3.44,3.91a6.19,6.19,0,0,0,3.35-.94l.5,2.51A8.4,8.4,0,0,1,920.21,180.67Z"/><path class="cls-19" d="M934.81,186V179.1a4.88,4.88,0,0,1-3.41,1.57c-3.2,0-5.27-2.6-5.27-6.34s2.68-6.53,6.11-6.53a9.77,9.77,0,0,1,3,.52l2.67-.5V186Zm-2.28-15.8c-2.07,0-3.25,1.73-3.25,3.95s1.18,3.91,3,3.91a3.55,3.55,0,0,0,2.49-1V171A3.72,3.72,0,0,0,932.53,170.24Z"/><path class="cls-19" d="M944.2,168.19v7.37c0,1.78.73,2.36,2,2.36a4,4,0,0,0,2.65-1v-8.68H952v12l-3.09.42v-1.78a5.57,5.57,0,0,1-4,1.83c-2.36,0-3.8-1.57-3.8-4.17v-8.31Z"/><path class="cls-19" d="M956.83,166a1.86,1.86,0,1,1,0-3.72,1.86,1.86,0,1,1,0,3.72Zm-1.54,14.29v-12l3.09-.45v12.46Z"/><path class="cls-19" d="M965.43,180.7a10.54,10.54,0,0,1-4.69-1.13l.68-2.41a8.81,8.81,0,0,0,4.09,1.12c1.21,0,2-.49,2-1.33s-1-1.29-2.44-1.63c-2.28-.52-4.08-1.47-4.08-3.75s1.91-3.77,4.82-3.77a10.58,10.58,0,0,1,4.4,1l-.68,2.41a9.4,9.4,0,0,0-3.8-1c-1.13,0-1.81.42-1.81,1.21s1,1.23,2.44,1.57c2.31.55,4.11,1.44,4.11,3.8S968.53,180.7,965.43,180.7Z"/><path class="cls-19" d="M974.53,166a1.86,1.86,0,1,1,0-3.72,1.86,1.86,0,1,1,0,3.72ZM973,180.28v-12l3.1-.45v12.46Z"/><path class="cls-19" d="M983.65,180.67c-2.7,0-4.11-1.18-4-4.09l.19-5.69-1.89-.21.08-2,1.88-.61.06-2.67h3l-.06,2.83h3.41l-.08,2.54h-3.51l-.16,5.59a1.43,1.43,0,0,0,1.6,1.65,6,6,0,0,0,1.89-.37l.42,2.52A8.33,8.33,0,0,1,983.65,180.67Z"/><path class="cls-19" d="M990.31,166a1.86,1.86,0,1,1,0-3.72,1.86,1.86,0,1,1,0,3.72Zm-1.54,14.29v-12l3.09-.45v12.46Z"/><path class="cls-19" d="M1000.56,180.67c-3.54,0-6.1-2.41-6.1-6.42s2.7-6.48,6.26-6.48,6.11,2.47,6.11,6.45A6.08,6.08,0,0,1,1000.56,180.67Zm.06-10.41c-2,0-3.12,1.63-3.12,4s1.15,3.93,3.17,3.93,3.09-1.57,3.09-3.9S1002.61,170.26,1000.62,170.26Z"/><path class="cls-19" d="M1017.29,180.28v-7.37c0-1.78-.71-2.39-2.1-2.39a4.08,4.08,0,0,0-2.67,1.13v8.63h-3.1v-12l3.1-.42v1.92a5.53,5.53,0,0,1,4-1.94c2.44,0,3.88,1.57,3.88,4.17v8.31Z"/><path class="cls-19" d="M912.43,195.35h10.91v2.78h-7.73v4.33h6.29v2.75h-6.29v6.53h-3.18Z"/><path class="cls-19" d="M928.3,199.65V207c0,1.78.73,2.36,2,2.36a4,4,0,0,0,2.65-1v-8.68h3.09v12l-3.09.42V210.3a5.57,5.57,0,0,1-4,1.83c-2.36,0-3.8-1.57-3.8-4.17v-8.31Z"/><path class="cls-19" d="M947.25,211.74v-7.37c0-1.78-.71-2.38-2.1-2.38a4.07,4.07,0,0,0-2.67,1.12v8.63h-3.09v-12l3.09-.42v1.91a5.53,5.53,0,0,1,4-1.94c2.44,0,3.88,1.57,3.88,4.17v8.31Z"/><path class="cls-19" d="M959.13,212.13c-3.94,0-6.27-2.44-6.27-6.4s2.57-6.47,6.37-6.47a8.17,8.17,0,0,1,4.17,1l-.66,2.49a6.17,6.17,0,0,0-3.27-1c-2.23,0-3.44,1.52-3.44,3.86s1.39,3.9,3.44,3.9a6.19,6.19,0,0,0,3.35-.94l.5,2.52A8.51,8.51,0,0,1,959.13,212.13Z"/><path class="cls-19" d="M970.16,212.13c-2.7,0-4.11-1.18-4-4.09l.19-5.69-1.89-.21.08-2,1.89-.61.05-2.67h3l-.06,2.83h3.41l-.08,2.54h-3.51l-.16,5.59a1.43,1.43,0,0,0,1.6,1.65,6,6,0,0,0,1.89-.37l.42,2.52A8.33,8.33,0,0,1,970.16,212.13Z"/><path class="cls-19" d="M976.82,197.45a1.86,1.86,0,1,1,0-3.72,1.86,1.86,0,1,1,0,3.72Zm-1.54,14.29v-12l3.09-.44v12.45Z"/><path class="cls-19" d="M987.07,212.13c-3.53,0-6.1-2.41-6.1-6.42s2.7-6.48,6.26-6.48,6.11,2.47,6.11,6.45A6.08,6.08,0,0,1,987.07,212.13Zm.06-10.41c-2,0-3.12,1.63-3.12,4s1.15,3.93,3.17,3.93,3.09-1.57,3.09-3.9S989.12,201.72,987.13,201.72Z"/><path class="cls-19" d="M1003.8,211.74v-7.37c0-1.78-.71-2.38-2.1-2.38a4.07,4.07,0,0,0-2.67,1.12v8.63h-3.09v-12l3.09-.42v1.91a5.52,5.52,0,0,1,4-1.94c2.44,0,3.88,1.57,3.88,4.17v8.31Z"/><line class="cls-4" x1="842.35" y1="189.15" x2="789.61" y2="189.15"/><polygon class="cls-5" points="841.62 194.61 841.62 183.68 847.09 189.15 841.62 194.61"/></svg>